<mxfile host="app.diagrams.net" modified="2024-02-03T18:51:52.896Z" agent="Mozilla/5.0 (Macintosh; Intel Mac OS X 10_15_7) AppleWebKit/605.1.15 (KHTML, like Gecko) Version/17.3 Safari/605.1.15" etag="mTOYZTcUXAWfbVKuvi4c" version="23.1.1" type="github">
  <diagram name="Page-1" id="o0CB6MCXejPIjPAFugZq">
    <mxGraphModel dx="1026" dy="719" grid="1" gridSize="10" guides="1" tooltips="1" connect="1" arrows="1" fold="1" page="1" pageScale="1" pageWidth="1100" pageHeight="850" math="0" shadow="0">
      <root>
        <mxCell id="0" />
        <mxCell id="1" parent="0" />
        <mxCell id="l7w2UNLdyFyKtGdHqsaT-7" style="edgeStyle=orthogonalEdgeStyle;rounded=0;orthogonalLoop=1;jettySize=auto;html=1;strokeColor=#333333;strokeWidth=1;" parent="1" source="l7w2UNLdyFyKtGdHqsaT-3" target="l7w2UNLdyFyKtGdHqsaT-2" edge="1">
          <mxGeometry relative="1" as="geometry" />
        </mxCell>
        <mxCell id="9_x6dCNxKeWLmISFSyYR-43" style="edgeStyle=orthogonalEdgeStyle;rounded=0;orthogonalLoop=1;jettySize=auto;html=1;entryX=0;entryY=0.5;entryDx=0;entryDy=0;" edge="1" parent="1" source="l7w2UNLdyFyKtGdHqsaT-3" target="afDIatIIUUOGtq9c_muA-41">
          <mxGeometry relative="1" as="geometry">
            <Array as="points">
              <mxPoint x="20" y="40" />
              <mxPoint x="20" y="581" />
            </Array>
          </mxGeometry>
        </mxCell>
        <mxCell id="l7w2UNLdyFyKtGdHqsaT-3" value="Mobile App" style="shape=image;verticalLabelPosition=bottom;verticalAlign=top;imageAspect=0;aspect=fixed;image=data:image/png,iVBORw0KGgoAAAANSUhEUgAAAKgAAACnCAYAAACFHRdhAAAACXBIWXMAAC4jAAAuIwF4pT92AAAOjklEQVR4Ae2d7XHbOhaGwTv739kKoq3AvhVEqSDqQEoFUSqIXEGUCiJWELmCK3VgV7BUBWtVoB3YL2VYOgcASZAEyPPMeO6dWJYo8OX5wgGQnU4nJfiR5cUHpdQdXmz+v4tnpdQjXvN8mk8eZcj9EIFeYIhwaohwopT62MLH7Q3x6p9CxPue0Qs0y4upIci7loRYFS3cHUS7O80nzxFcUy+MTqBZXmhrOIMgv0RwST48QbDb03yyi/9ywzEKgWZ5oS3jAsKMwUI24aiFCrFu0/0afgxWoLCUC/y0JconxJAuPrX0+aVYN0O1rIMTaJYX2kouA4lCx4IFfh7LhKZJTIiYVyHe/YBQI0QSdlBKrSHWwcSsgxAoMu9lQ2u5L5MSiLAIfJlWLqoH5X9var5drpRadf0d2iBpgRrCXNa4mdEnHoidpw0Suj2Emqz7T1KghjB/VPxTLcoNRJmUdcF3LqsPs4oPZLJCTUqgNS1mGZslJ0oOQ6yzipb1QY9dSuOQjECzvFhAaL7CzIec3ZYY1YoqD+0vWNTok6noBYo4bO2ZlR+NTHYQ1rIKeIhXnoniEdZ0E883uCZagcKN6cH+5vHyUpjrMU8LlqCUtfJ8qHV8uoj1gY5SoBjgjYclEGFaqCDUI1z+utcLJohOoFlerDyz83sRph8VXH901jQagSLY19N2t46XJpeJxgIeflcydYRIo5jnj0KgmJ7cOAbugIEbVTdPaGAINh5u/9dpPln2fr19CzTLi7VHIpRMWSQVPI2CntiY9jnuvQkUWfrW8SSL1WwR3IONo9h/hEh76fTvRaCe8eYDxClWs2WyvNCu/KflU3qrmXYuUBTedw7X8jX2AvLQwH3ZOjL9zu/LX11+mIc4tUv/W8TZPXDhd/BcHL+RM3RGZxbUYy6994BceMWjFp2f5pNFF8PViUAhzt+Wl3T2hQU/YrlnrQvU44tGUW8TrvEIyVoXaasC9fiCkgxFTt8ibS1JEnEOAyRPU5SaKOYoU7VCKxZUxDk8+rqnwQWK2YmdpQgv4kwUD5F+Dj3r14aLt80QiTgTxsPdbyHiYAQVKIq43Nz6vYgzfRwi1ZZ1Ay8ahGACRTmJ60rSmd5qeLdrnECkXOZ+iwaUIASJQR2xyf40n0yJfxcSx1Hj/h5iCUljC2q0bFHiPGDttjBAELLlzDf7GSIeDeHiV0xSpGOUmcytDxsU6Z+YL7ltGo82EihWDXJx51K2sx4NMyZp+ggDVpvaMSiejEemf1CaP0YGlpD8Yb517fpoEwvKLWM9YOWgMCKwCvQX841rl55qCdTh2iXuHCnoSqPi0dquvq4F5epc9xJ3jh4utPtWJ6uvLFB0W5OuXYrxAgzUPTMQleuilZIkxBEFU/MM3ijQJsZxNMGm5Vpkm5JnciTQlfoxqgpUv/Gc+FUyWXvF7Rxj4oDNK5LoZ0Ce8g/xK+1pJ97v4ytQWJz/Er/S9a9JEpuhupefpEAy+wVkebFlNoW49w0Hq8Sg3BsmscMcur5TF6fCDd+F7BhqEa7cuPS9fi+BwnpSrj2JxAjuxrZzRmrcNp2h6QLsQEjVRm98a+VeLt4SeybRgJzlRWHZMcP3tLi+sMXK/4l9G0pLYu0VGv7L4wNs1jMFcU4ZcZbNLFFXHhzbJa4sdcco0AJEI/vlRhA3uHZr6cnHxXOmOJWaJ9fuN02hLAYLOWNmaFLps10zzSRON28VKMwz9YQmYT0BNXvxkFJdEW6QsjRJnNyM66f08hGVFRaXBeVONEt9xijF6VjS2odepNYinCtvJFBKiOUR0EKHWJKhFMpN5fVT3fefEGeTsEkSnkzKhQzquOc6IPFa4BhtH55RLx77TtFcNWjJxaO2LJ4LYKM7S6dLLFN4Lr5keZFUv0Jo9HfP8uKJWCK04PRmc/FU9ruX418aNWPLKgPawN2gI/8KUqB4MZUcycYLQlO4/MVfoJbaoSRHzUKcUYdH6q3kRG0zTmqOi0GpF+djT47UWxz1uUaRPKmezpahjr55cfOXJ9xdCdTi3sV6AiQ6Y8/Ia6NFmOVkKjO71Bnl4jnLIDdECAnl5q+05yvQB3HvQmAoj/zxcmbsnUBR0ae2sRHrKYSGCxnfGchLC8q5d4k/haDAIzs7tC4FSjUeHKQ4L7QE5ZkrW1Bx70JbUNq6MZtHLgVKxZ9SuxPagjN+Z0N5FiiaICjEggqtgDj0QLz3OdT8i/pHE5n9EFqG0hcpUKq3kds5VxBC4S1QyoKK9RTahkuUXlYKuCyolJeEtuE09mIwTYFSyzskQRJaxVJjfzGYLwJNaGWgMEyoXOdNoNzKQFnkJXQE1Yj0LgZNYumqMFgoN/8uBqVcvJSYhK5gk3Hbqk7p/xT65KrMJAh9QVnQW+Vw8WJBha5wungqSZJZJKF3xMULUSMCFaJGBCpEjQhUiBoRqBA1NoHK9KfQO6VArV3NgtAXpUClKC/0CWUMX46tkRhUiAF2osgmUO8jkwWhLUqBUo3JSRwSJQwCthfE56Q5QWgbp4u3rqwThJZhdfYiUNfKOkFoGWrL+Z26cPHsyjpBaAvLnmBXMShVCxUXL7QNaQTLPcFMgVKZvAhUaBtKoOcd70yBUtOdHyWTF1qGcvFnLZoClUxe6APrpnVngVr2Aa16opogeIEtl9gMXhGF+r0IVOgQzjuTLl4xidInuWNCS1DG78k8NM5HoLZalSA0wZogXQnUspudCFQICuJP5560VLMIFYdy58cLQl28TjWkBEode3hrHq4kCAFYEG/xdHlo8dV58ZZtv7UVXcudoYHLOk9qyOa/PJZDi6+M45VAdT00y4sDER8sRKDXZHmxwti8Gy8c2J8rpVZy1ukVXMh4JVCuYVncvAM9BZzlhc44f1hWH8x1VprlBeXOxgw1HgdqsogT6Ib5dxnot5UGO8ZNXaJnSn5Lqe6VKu5dcQKFkqkzFEWgr6w9xWmylcabF5bMv5NG0bYmiYo3dXfTqEtOsADzGn96Iw/4C1z2TvaC2ARKmlwZZDbA1wnRv0/zSaaU+l7xb0cBYnGqOYQLKXmBIvN8IH71ZeTJEtXgoAP8RVnDO80n2vvcE68be18D5d6PtQQKuLLSquqVDQjq4aQGWOqgBkgSyeTosjhvYhUois1UsjQbccBP1TQp1y1Z+3s4o2atrfvszUS98Y0lGxs6VDCva8Sb8qFFIkmND9XnMHhgPanwZm9plH/BKdDTfLIpdxq7YDlSK8oljzqz/1+WFyel1B8mGeD+duhw1tMZKvrubkeZ4VFaUSSPeY0/tSYDQ8VhPZ1xehWBUlb0x0gz+iUTm9tY2JKBAVMr9izxEigGVjJ6gPGYeR64qx/sr6f5ZHTuHbE4Zz29xqPKBracFZ2PcZ4Zwf0U9U5qXBRCgTvE8Y1AOx9FzJ1SjY0a1Q9Koq1Glhfatf1mLiSl9fNBHihYUj3YK+IhfQzs0snxjbWVD22IVJeXV+x5fp/T6VT1gx+Zgut3zKBEBQbqB3FNX0NYti5AtaQgKgN6Djs6w4C85JGpZPztKi2Z1NmjnsvcV5EmTFyso1vgVrGXymCZuZsda1y7Ya73VxVxqjoWVL0Omh6YL8SvtPmOLh7N8mLnmAePtYDO7byhEPfexebiEQb+JH6lr3dSNeypK1DO5agYXb3D5aRKauNcK6SqdQyNkRxQrCwZZy/AygxpUiGPMd5HyEGJc1833q99ThIGiHKN+gI3scV2GKDPlpJQKtzr1r7YrhXJKJU8H5v0EDc9yGvB3PDbGFeAorwxcdQuY+UBGXB0EyMoyFOVEs2ySZxcKwZ99wavF/eH+XXUpRyEIncR78X/jJgudE01GI648+E0nzRaRdBYoOr1IjeWdTqV6l5COjhWtx5QZWj0YIU6q3NpmZfeyXr6wbKxrG6dhbD6QQSKC+Hi0RtZcjs84DWpWrhCCSyI1wx22jEuiMvWbmFJRaQDAMV4LqQLWgILehw3Wqio1YwKIh1dw+7QwNJhaqZIIcwLWm8OkiRdvak9acpjrOMJbiBOqptNhUqKLmlFoMo9/y0iTQyHOHXuMW2jWhPUxV9g6zifw8oKCdCXOFWbFlT57QL3hC83xrU6SeAQp+Zzm5v1tmlBy/LT1GJJJbuPGHg5mzi/tr2TdKsW9Pwhbkt6QGFXZpwiAPdr7djFr5Np7E4EqvxEesTS3LFubhAFmPXbOu7TrKs9+Ft18SYe7l7POP1B25bQA8byEps4p10eENGZBT1/oJ/72IeayxW87wu3uLCk1Wydva6uBXr+YHsxX3XtSsYKXPrGsWart2pLbwJVfiUMzS8c5SLWNDDo5eVWYJbkaDruZfx7Fah6axreOQbpgARKrGkAYDXXlm6kkt4X5vUuUPUWl249tsju9WkeAuhEWjkMQjThVRQCLfEI1BUGbxXpqsZoQYbuc3xOVAlqVAJVby5/azm9reQAayp1UwsV3HmUD350AlVvLl9b028eL99jYCU+NYAwV55nOu0R40e3EVmUAi2p4JYUBnk9dotaUZjRh0tRC7QEsenSc+uaA26Q9XiToYGHeenhyksemq5Z74IkBKr8Z6BMjohl10NtQsGYLCBMV8xeklRIlIxAS5BErSue2vaEgvR2CGe3Y4JjVsFaqtKzpLInaklyAi2BS1vVOF6wFOsuFcsKSznDz7TiLn1JCrMkWYGWQKiLmicQHzCLtYNgo7Gu+F5TiLLq0d8qdWGWJC/QEmSvS4i17j6gh3IvJIi2kz2RIMZyjyjuTEtfHhB3D6LsNhiBlhjucNnwRpvsjY281MVBsc9cqIBrMfdK1f//AUIsf3yTGxsHIyFMPsY2GZxATQyrOgskhJgoqxTbIdd+By1QE2T/iwAutE9GIUqT0QjUBJZ1avzEbF33EGUyVYeQjFKglxiCvTN++jhw4clM0mSVqwiUBaKdGIlNebxOk8TmaCRaj0i8drZEa+yIQBuC2Na28US023dHj1Lq/z0Fh0PVeMozAAAAAElFTkSuQmCC" parent="1" vertex="1">
          <mxGeometry x="589" y="15" width="50" height="49.7" as="geometry" />
        </mxCell>
        <mxCell id="l7w2UNLdyFyKtGdHqsaT-12" value="" style="shape=image;verticalLabelPosition=bottom;verticalAlign=top;imageAspect=0;aspect=fixed;image=data:image/png,iVBORw0KGgoAAAANSUhEUgAAAKgAAACoCAYAAAB0S6W0AAAACXBIWXMAAC4jAAAuIwF4pT92AAAS2klEQVR4nO1d/3XiuBaW5+z/yVYAW0F4FQxTwTAVQCoYUsGQCoZUMLiCJRUsVPCggrUreKEC3lHyKaOYe2XZ2JZk6zuHM7vBGBt/ur90fyTn81lERPiKP+KTMSNJs1shxEQIof6VGONVxGf8fy6EyArvvQghDvjvTL3O83HxuAgNUYJqSNJsChJOQMDP1h++DkcQVhJ4J/89z8eS0IPHYAkKyTjVXnceXJYOKYV36jVUSTsogiZpNgEhFx4SsgySsFuQdev3pTaH3hMUpJSEnAkhRh5cUhM4gazbvpO1lwSF+l60ICl152dHvH+AMzQl3lOO1m3D16TIuj7PxweL44NCrwgKJ0eScn7lqfaa03Jow9vWogMqIqActJsrTnsEUTcNXqpT9IKgSZpJUi5rSqaT5oxI75mSjJ0hSbNxwXmrY5bIe1qDrEFHA4ImKIi5qvEQj5oN57Va1AgrbeivFT8uiboBUYOMAgRJ0JrEPOJhbUMO2SRpNgNZq5gxwUrUoAgKG3NTgZg5jt/0LY4IG3ZW0bQ5gaSrli+vMQRBUKi5TYWdnT0exCDihQilLUFYGydLLtxlCL+P9wRN0kyu9h+Wh6d9DbfYAFJ1iZcNUeVCXvisXbwlaEV1Lom5iokXb6hI1BN+u3VX11cF3hEUP66Umt8tDo/ENKAiUb2Upl4RFLbUxsLo34OYTmOWoaDCovdOmnpD0CTN5Cr/WXLYCcZ9b3ZKugQEwNrC2XyGNHUeknJOUKzutUVc7wmrO+ZJXgnEkdclal96+jPXDqdTgiJ8tC1R6TlWc1TnDQKCYVOyO+VcYzkjKNTNrmQVR6nZMiyl6aOr4L4TguJH+WU45ASpOZjEXJew1GTpeT5edH2ZnRPUwhk6wvaJoaOOkaTZusTTl89m2qVG+9TlT5Ck2aaEnCl+gEhOBzjPx1J43EODUZASdgf7tRN0JkFBTpOn/uDrbsbQYOEfdCZJO5GgJeSUq/U+ktMfILQ0BhEpdCZJW5egFuScDjW5w3eAgDuD89S6JG1VgkZyhg0QbwrfgELrkrQ1CVoSSorkDAwlwqY1SdqKBI3k7B8QAzVJ0lZ8iMYlKDzA/zJvR3IGjhJJ+oRQVWNolKDYkTgw4YlIzp4gSbODwXG6b3LvvjEVD0N5G8k5CEwNIag1tGgjaNIGXRtW1TKSsz/QvHtqx0kKqG1Tnn0jBIVTxNkljzHBuH8oIekIqXxX42qCalnaFNKQarAjqgFakXOKviIx6Co0IUE3jN15NFx8RE8A7fjE3M3Pa+3RqwiKmnXK7jz5UtMS0T4QWtozX3SVqq9NUKwMrqFCdIqGhwVjj95BkNXCNRKUWxnP0SkaHpDDy2Xc/6ir6msRFMYvq9rrnDMifKBE55m5kVpboZUJit0iTmRHuzOCU/WfEY6shDoSdMV47c+xyC0CAooj4rpqAL8SQdHQiwrIR9Ue8Q6Dqr+pGnqsKkE51R5r1yOKWDKq/gfMRCtYExTSk+rpc4z1RBFFwKvneGEddqoiQbkvi7tFERzWaF1UxNxWiloRFI37qbDSPvZMiuAAs481C21+OFsJyknJmAgSYQQ2bWpL0VKCGmzPKD0jbFFbitpI0Cg9I65CiRQ1xkWNBIUIpvpHRukZURWcQDM62X+UfElvpGeS5mpW/K02wFVoU4sxq3MU47ktQEpRdM8r7kIuTHwyVnUmafZCnDA/z8fWgVaXSNJ8qs2Kt50ifER4ZBvJ2iwMM6++cdvkLEENzRcaLSttAyDmqsJkOgoYGziqrC0grSealNYxWEkNk/Ff4i2ZxzEjP2Mg6JawP+VDG/u6rZmkuU3f9apAj/yR0eYGKauMIxykpGZ4JfEnxSvSSYJnRZ1k6zE5J2ga0SQ5BSoU/0nSnLTHkzQfJ2m+QzeVeQVT4g4aKkvSfEgREU77khKU8+K5zCQvVTvIuas5/N8WP5M0/3D/INa/V5oSN28JFPkB99FrwNakQk6kAOAISrE59zG0pJHTVnJdg3mS5mtpSiRpvq0w5NYGaGWYk5KkZ6AcojtqZ+mCoFDvlETwLhkZNmdX5FT43pIpIXAffydp3vfcWk4TT4t/oCQot4J9VO9cL6i20aYpIfGrz+oeFb+Umr/gHhWov2Ax1LtXZcRQhdfYfr5Dqvux7uEXNhsm+FdBapIXhLBC2OXbEiNvLrQSRVBKgvp4w31PkpaaYQ1bd2YRvnpfrEn6KpyeEcLyNWa9o2YyyeQk3df5VHhzwvwIXtmfsNHaVrM+QIat/q4YvlL4ClMh89GmNRRYftDgRRuUUu/CQwk6BE+3KYw0onLP1xWodjmVCXr0KTgPz70ND7rvUBsOPm0KUILvg19RJCjlOfomPX2TAqFBbgpssNBdg+QWkuRf8Un74y1j1/lG0N7vtnSAuQ/P1bDx8/6MP1F/LMC3LnWRoM3grrh16wiUHUoSlFKdJw8nD/ugmvqCOZcE0yEoAfi+5fmJ+qOG2OOz//jpeNeKEoDvjlIkaIRwvOlBckwljugEpbYNfVPvEe3gs8NgPicELwha5cMuERdNO3Biixpi7K9mxytB9bhTAT6SIZod7eDOoS1KefKvzrBRgnrowYsO4ndHJhWsKeR4IFRrQtfwac/+g4oPJrZ4no8OLT/cZUsPShL/y3k+Glcsg+4SrnIcKKHzgaBUbJGbe+MDQpwiIh++LBWRZbT/8+B6KIw82QJ9R5PDZDsBMnJCy2Y6nuejLJBeqr5oUysv3itg1+OfklxQqf4fpTrF676gDZ7xN/X+o4XJoH/mgTj+WTvfNzmjVHvvXjMZljiGOm/xOqSt+gWmwRNxHym+S33nkTnvU0WTyEUyDqXiX5+xIih1UV45SNg3/mlx6BLdQMa4r0wzCU7oOKLeGyNIbbI50/N8NMN5JjjXWHvoe7z/ov2OekqbPPZFlm9omfHibQr0h/Oucaxy0DKUbszw3otmin07z0cL7TvH2nv3OK/AeVchZ4CZmod5Q1BITm7c9wfIEgfUK6m2PXpp8A0aLOi4Pc9Ha5RJFCH/uEQOpTrP6jwfSVtyjb9tSqpLf2gSQp0jl4sI96UWnVo4q0LLoTG0hoJcMFss2OJvssf969075IKVzSVS29/QJ3iv4mFz2khOdfxEPkCoPS5clEKlPkIKcdihaO0W6lW+DlotvsQEx0wMjuWhIMXUZ3VbWpJ7StQQFaWfKpUw1Y7p15thAQUZPy5rv+gDqnrsshpyiQe9BcHXaIxwwgN/0R6w6cEpLbIt1GXdas7E9yTN5fk25/loClW+1iSYlJZKxRfPW8x/mBD1X0Wn5QX3RElrdd5i1jzXyMx7eE1QqMCqxXE3qMFZQx2vofL/Rbe6AwilHvDeYKOph1rWKe8HMtWf0Whshn5NnzXS6ERT580K90ctFirsw0l9dd7NFUWFXvXe8l3F1wnLKOflBqlkC4R4BNTduEKQXBHXJMV1D/mrpmYV2dT/61NS1HmL0nJnkbQxw2aFqeDsmipcr0wBbwkKqVdVCuSQIg+wMx/gNKgHNwNZ7xGKeSohnwxcr2Eu/KXZrfeafbvQwkTyO6ew+ZQJkRF73PK8r9JdC139hffKitq+w86W9/QffO8DwkyfsSCX2nuPsMdtQ03BENS1zVInGD+CxBpDihzggSuJ8hWq90X15hRvi0HPh1wUwk7f8ZkZzr2D2lWqcIPjX/Df00KnvQMT/P4Bb3uMYxYFlS897xXXBBfXfKtJaHU9v3DeqXa9ts/y6Fuv0tcGtkxrZjkowVn8TLYjZIaHhYQTQlJUSMhHPEH6dgpk0/1T/M7zfJz4bIOGTk6hmQ+hBMpd5TiQ/cCEr158ISQTIh5UEy+o4hDa9OzhfPmCV8dWEZSyO1x2jgudoGNkLl07yKFLeNmGXBE0Zqk3i4uubZ5j77hlI5sLYjNpzgXigukOJ88y6RV+E9TQgsQJQeMArU6x0jYyXIEyg145UObFu0xe9Tmjvy9IsVngDIZhsq9aVCcoRQiXzkpU8+0iRU6pa3BC8MIGpcS8SwkaYt1RKPCFnILjmKoo9pagiMkdLQ6NqIYHj8gpGC39rs11glKO0o1DT16EOPbbY8jF/h/XNicBSgi+C0udoJzN51KKbqOzdDVy1ClNPNspUqA8+PfrfCcoeuRQJRKu95EXnnbh8BknpP69NorwdRSNoeXSO0GLe/EHYt/YKUFljA65oRfZLgOECqorrTYppNxlyAEIJQJCckuPyxcJuiMmaMghn7cuJ30g6eK+UO04RCxh9ng3N7UmKIJ+MOmKgXpuR8l5uhjU1JcBq/vU46lxdUHZnx84+IGgmMdJEcCLVjNIaBijXGNI8Clu2QiSNOM4xRMUoNSHNwm3cp8enTO+DISoT30jJ1BqfwqGoGSfHMzx9AZSmoKof6KILSX6bh4DDlPJiMo3FyUYHYGSoBcCh8qo3zLOyMLH7mzIfNqYtkYd1zftYZbYZtXnuBdZTdrLrC4IO+r3uNDeFwSV3nqSZnvCgJ0F0j6QwgpTg11ggVCZmvU+JZoxvCDEtw0oRHQNOJPlQnu/VnVe/DHNlkw/pC+G3FGvoXX66BJOqiT9fxZZsaOKwNDiCzOSywfl1GXIxnrXO1J5zCW4BLx3Sr2TOQIkQRGUpzzkmSHB1Gt03OH4hC4msTLgEpyQIzcfTBn11AduAmy//Q4Euu87+KrFQGzJSkBmHDXr/5nbqWQJep6PN4xKDFpttUzSExI0+rIV2TQ46clGYMpqkqgPjgxZKEFA2zZtch7SEQ1og3QiOwJlYuXn+Zhd0GUE5ZJbgzf+QaQJOtxdgxP6zfuab+kFkjRbMG0vjfkFZJjpwwFptmXshmBDTkWg1Y7qamcbUD+qDYLoDJWDCS1J/GnKlLMhKNl5zHX3u7aAgPpEmwSioILpGXrXx6G2loD0pHYn0/N8bAxdlhJUvH0BF+TujRSNaA8G6flX2TxY2/aLvbVFI9oFpCdFztRmWLGVBBVvX8QlXEQpGkECmzpUGZGwkZ6iYo96bhfGtzLWCH/ATWmxkp6iCkEhJancyjskl0REvAO7RhwvrE3Dqi3AuROvQt2jj2gNaybu+WgrPUVVgkKKpsRbN7GXUoQCMpao2PmpqklYZ4jCitmj/2oohIoYCKBJOWG1rFq+XpmgEM+cqt9EVT94bBjVvkcCUiXUGkNzno/XTOe5qOoHDINqF3Vzca+Zk8RtUX1FcDZiQIDXzgmnR/RcqIzaBMUXPjJvr30rU45oHZxql7VGtXccr5o0hy9mVX20R4eBJM3WhoLEq7RpE6MQuWK0u7jL1H/AnOPmQj3UVe0KVxMUF8AZwHMMqo3oIWDGcULoGc70VWhkmCzCB1QAX7yNnY5OU98A823H2J15UyXqTU47XhqGHkSnqUcoISdKrpvpJ9sYQXFBM8YevXkbwh9J2hPsDL2ultfanToanRePXSauDCSStAdI0mxjIOdTnd0iExolqPjtNHF155GkAQPknDN3IHM8G0+7bJyg4rfTFEnaI5SQ89hWWyHrko9aJzff1Omt0UFz9kpE84BDtC4h57StIRutElREkgYNzVvnbM5WySnaUvE6UPfMxUiVuo9xUs/gAzlFFwQVdiT9Feua/AH8g8w1OUUXKv7Dl5nVvQCJK2ddRzQHaDOunkh0SU7RNUGFub24whE7EbG1TMdAVhKX+CG6JqdwQVBh7tWjcHprAsu35Yto9HmM0bDYNAmltI9SG3BCUPHbzuH2cxVka8RVVPntwUKlC2TEO8lKc0ZQYb9yc0jT2F6nQWjVl1wNkYAmWza9fVkFTgkq7ALBClGaNgRLqZnDF3Aao3ZOUAUL50n4sKJDhpZgXDYv6hlay7kw8Iag4vcPaMqWUdhDmka1bwFoqVWJhy4gAFZNZMI3Ba8IKqr9mAJx01UMSdHAb7nEy6TOBRb9wrff0juCKqD1+MayZ3wkqoaKxPROaurwlqAKKLr7YXl4+jYleJjJJxWJKXyVmjq8J6j42LXCdhjsHkQdRKAftvsSJTc2xMzhbHr/+wRBUIWKal9os9c3fVP/kJZqRLrtLPwTFm4wpeBBEVQBcbxVBaIKba7RNmSyokHXzCJurEP15VyHFkcOkqAKNYkqQNYtyOq1vQrzZgpSmnZ9KJywKNehLsqgCaoAolZRdTpOyAmQr4Pr2KpGSPWquvhEyBKziF4QVAE26qKi+qOwR8LuQU2Xa1oCwYZUE+0UKSeWTg6HI0jZm522XhFUAQ9fzd6sI1U55CCugMQt4oCRiVRvAEm+W7yavKYTzJVehtd6SVAdCMEsYMPVUZc+4qTZ0L0OpfWeoDpA1mkLkrUL5CDlbkiJ3IMiqA6YAboz4hthJSGV87Yb6jbuYAlKAU6WPo7bdufqWhw1p0xFEwaf9yoiQcuhedvqX6F53kUoQh/hLOlQ8+YFyJi1ER3oGyJBI/yFEOL//lpYdcMtnS4AAAAASUVORK5CYII=" parent="1" vertex="1">
          <mxGeometry x="330" y="558" width="50" height="50" as="geometry" />
        </mxCell>
        <mxCell id="afDIatIIUUOGtq9c_muA-2" value="Experience" style="swimlane;horizontal=0;whiteSpace=wrap;html=1;startSize=48;strokeWidth=2;" parent="1" vertex="1">
          <mxGeometry x="70" y="130" width="1080" height="120" as="geometry" />
        </mxCell>
        <mxCell id="l7w2UNLdyFyKtGdHqsaT-2" value="mobile-experience-api" style="shape=image;verticalLabelPosition=bottom;verticalAlign=top;imageAspect=0;image=data:image/png,iVBORw0KGgoAAAANSUhEUgAAAO4AAACECAYAAACXgRceAAAAAXNSR0IArs4c6QAAAIRlWElmTU0AKgAAAAgABQESAAMAAAABAAEAAAEaAAUAAAABAAAASgEbAAUAAAABAAAAUgEoAAMAAAABAAIAAIdpAAQAAAABAAAAWgAAAAAAAAFKAAAAAQAAAUoAAAABAAOgAQADAAAAAQABAACgAgAEAAAAAQAAAO6gAwAEAAAAAQAAAIQAAAAAyiTvzQAAAAlwSFlzAAAywAAAMsABKGRa2wAAIsdJREFUeAHtXQmYFNW1vt2zMQsDw7CDIKKoILiigs8nuKDGxKgRoxLZkhDFaGJc8mL8BKKJMcnTxJcYg4qCMYkao1mMu2A0IriACIggEllkZ4bZt+5+/189t6em5nZVdU91T0/1Pd8307XcuvfWqfrrnHvuOecKoUlzQHOg23Eg0O163M07PGfOnLyWlpZ+gUCg4eGHH67A7US6wy1dddVVxQWBgpGhSKgskhPhe7Ortrb206eeeqqpO/Tfb30M+u2GMv1+GhoaSkVYXB5piVwxffr0I+bOnVuS4X0OXHnllWU5OTlnhgKhB0RQvIJPzVJ8eG4pLy/vneF99233cn17Zxl6Y/n5+bnhlvDYsAhPDwaCO+tr61fNnjn7XwDES7m5uesXLlzYnCldnz179mAREl9EX78CsJ4cEREN1Ax5OBq4XfcgqO0MARiGRCKRCwCQBU3hprUAyxPhcPglAHxrRUVFPVRRAjkt6vTUqVNz+vXrV1hXVzcCEvWr6Mc0tD0Mf1ozAxMyiTRw0/w0ANJmwGB3IBRoAWgl/zlmLAQ8x4dD4fHYrm1uav6kuLh41cyZM98PhoPvNoYa1z3++ONVXnd3/vz5wa1btw5Ev8YHIoEJdbV1E9DGOOzHla4BEWhB2T3Nzc0tXvdH1+eOA9o45Y5PXpYKTJs2rSckKgFyUyQcOQO/BLDyWRAkONeAv12Qgi/miJzFJbUla+958p4G7CcliQnWPXv2FNXX15+M+r8ByToJ9ZfhLx9/SukKIEeCwWAjevkyPjr3osfvLlq0qAblk+oDrtPUCQ4oX5ZO1KcvTYADN9xwQyHU4ZOAiSsAoMm4dCT+8uyqMIAcEGsgrf8OIL0Cqbfqscceq7W7pvVcYO7UucX1JfUnQlpOQZsXAoSjiUeHa6vxgViPdl+NBCJP79q1a93zzz/f6HCNPp1iDmjgppjBbqrH2DIfavFgAJGAuhpS+HgX11HSVQSCgQ8ArDuGDRv2BiSpUnXF8Vyow6dDsi6AfDwG11ENtn32qPMgyv4dYF0C7WDVxo0bK5ctW6as30VfdRGPOWD78DxuS1fnggNQo0sBlPMB4KsAnBMh6fqaxsLxaggDaI8BissBznbgwvG8oAhODEfCX8PFds87hLYqANSNKP9cbiT3iYWLF26O16A+3rUcsHuQXduzLG+dAC4IFowKB8JnAW5TwY6x+OMY1GuqR/2rUOmz+HsDwN+0ZMmSA9jWY1evOe1hfRq4HjIzRVUFoErn9ezZ82SAajrGp5MhgftDOha5kMTWLhGM9HSqgSTejuv/BseKJ6uqqj7CtFPIWljvZy4HNHAz99koe3b11Vf3h/fVaAD4aIDvaIBvFGTjMEjNQVCvS3EsZmzCPoFK49IWlKPauwGH1uZF8tY1Rho3uzRqKfuhD3YtBzRw08R/SM1CSM3TIDVnQVo2BHOC927evHlDZww+dJgYOHBgbmVlZW5eXl4wWB8saspr6gUjVxH+Io2Njftxe1UwfLXAet0yZsyYFhiqwgnecgD+1bktDS0nYaJoDryoDsGH4DPU8SZ+X4S3195M8vZK8N66bXEN3NQ/ugCcKIYDrPMh7WggymltshK/L8Aq/DTU1bcffPDBHQBCxowr+VEA4A8JRoKnRYKRr8DSPRn9tTplVEHS/xPHF8GgtkwDuPXJpuFHAzfFTAYASkqKS14EaOlwYeU3gdqAo58BtP8AgBc99NBDH6W4S7bV0zkDU0dj0d9vAKzno/Bg/PXAn7Xv5noOQoO4o7q6+pd6rGxmS+q27R5G6lrNoppnzZr1cwDgJpe3XAsArwBEngmGgisbw43bioqK9qVSkuHDkl9YWNgPH43hkVDkVLR/MdqnUwjB6ppwXRhaxdcXPbroUdcX6YJJc0ADN2nWOV84Y8aMkXihP4TxqNC5dLsStPBSld4BMGwI5ARWAkjLWRfcDKvblUxi57rrriutqak5HgauCRiz0kd5FIxXQ1BVL/zFjFtJVF3R3NI8Dj7V25O4Vl+SAAekk3sCl+iibjmQF8y7HIHnhQCF20tkOY6Dy/mHa8dBEl5GRRWSu3bWzFmf4PhqgI0fhE/DwfB2SMuKQFMgFMmPhOECGYGhKhAKhQI4novfvgD8UMQAH4brOBd8XHVV9Sj85st+yV8c6xShnTKMdWejkh91qiJ9sSMHNHAdWZR8AYD2HEjK5CswXxmtphj1HYvDxxpgo76E46GWUBPkZLNoEc2I8Q0hwigHwM7F8QKUyPOsD+b+KLbZDryupuCUBq6CP14e0sD1kpsd66KESwfRo4p/BqULqLI98y++GhPN+3o7NRwIpqZaXSs5AAD1yTZOQF3WdpM0PHQN3DQwWTehOeA1BzRwveaork9zIA0c0MBNA5N1E5oDXnNAA9drjur6NAfSwAEN3DQwWTehOeA1BzRwveaork9zIA0c0MBNA5N1E5oDXnNAA9drjur6NAfSwAEN3DQwWTehOeA1B7Lb5fGRLZO8Zqi5vl0fLDbvZs92ivkaY+SsEcti21m2kV3uaXyhgmISIm3OgHP+pCx71n6+3QWIflomsgjI2QFcAjZHzNNg9TN2Y/e2QMwYMT+259MN/wN3yZalGrA+fXvj35bvwetf4GopG/+1zpYzYTHZr+qzP4EbHcsuzZb3U9+nLQd8KX39OR0UFBq0tu9yVp2cJ/gh9xn5D7gc02rSHDBzwIcfcn+pyou3zMfzmmd+Zn7c5kPLCwZET6zDV5IXEEU5AYFd/AZFPtLMVTQhd2MEiwThX3VzRFQ1h0VjCAeymQKYLpo+YrJfWOA34Pr67SzODYghRbmiX4+gOAS/R/bKEyN75hrHgF8xtDhX9MkPitUVTaIZoCWAPz7YLD7C37bakNjXGBI760PiII77mlHx0OkjY5V/PKei0jbeI+uWx/lVLYA0/e8BPcRXDy3GbwGAmSMI4Hwcj/fVPQPlzUSQEsh1LRGANyze398onvhPrVi2q8EAd9aAmHP5ApLXBxTv2Xe/W1uMBel8QvnQe88c2ENcMLRIfGV4kRhUKJcb8vYGP4f0fWFHvfjbtjrx1t5Gsbch5G0DmVjbjBG+eOd9cROG1dAHBohCSNHJAOx9J5eLYcU5xjjW+u5TctZjvMq/XQAe1eCNVUipjDX4qArXYEw7oiTXkMj9CoJibFm+GI59joN74I8S3PzQ+bVrQZ2fVLeIBzZWiz9uqRX7UQ8O+ZN8oi6bn6G7B5WJpnX6H3dzo9TcI3uK2Yf3FCeWx9Ijx54HMfTOvkbx0uf14r0DTWIjwLqjdawaK2SzQdV6IKT2iJI8cUKffHHWoB7ilH4FoheMW2ai/epjfAQe21wjfv9pjdhe50MJTCNVSCww33eXbyfhY+0OuNoLKSXPlpbgo2Fguv+UcmMca24Ew1EYlFrE81Bl71l/UGyGRPSShsK4Ne2wYmPsfDgMXLRQm+ltqM53rT0oXsbHgtJdU4o5wA9KRLzu1s/aHrgasCl7WrlA7b0nlYkrR5SIPlBpzUT193vvHhArAZ4DsACnivjwSwDY4yGFrx7VU1w8rMhQp2V7nEb682d14hfrDhoquTyuf1POAUdvr/jAzZI50ZQ/AkUDoyFl/w/j2EkYz1LqSvqwskn8ZM1B8SdYfNNNGPoKWqOvP7rUGGeXmiTwcnxAfvRBpXgNVmjODWtKCwdswWt6bUyd0aA1McPbzUuHF4t7x/fB3GtOzEhEg9NtqyvF/RuqRA115C4kGrAoeb9/TC8xDoYt+YLsgcV5Hvr4OIxX1ZDEmtLAARunkY7zDBq0KXsiVEcJ2gEwFElAUJpdsmyPoZKmUCt2fU/8bqytbDYMYQTxkaV5hiW6OBcWwIHRZX7XQ5Wv7eIPjOsb6t4FDxUXfzcgnv3VMuttyPen7biP5kPbbqprtzgve+PoUnEzpFgZPJtIlLIPbaoRN793IGNBUIB+XwNr9w3o+yHwyuLLQjsVjWW/+qhK7PCj1dl4Ohn2TzGF1V7iRqXtpAzrdrfvzrxje4vvjW4DbSNAe+2KA+JuWG0bMthiy66thJcVjWV0r6S7Jcfkp/brYcwxr8WYvArzxppSzIGgOFQ886vF5lbamzO7+Vyo+cYyYZsGn28fVSq+BRW5d6ukpf/w9Df3icWYK+0Ohh7aouhddct7FeLNPY2GxOV9XYf74rxzX4tFPBP47rs+MD+axX+iDbiWE767+S64oWmHlYibx5QiKCCq2NDwdNnre8VfttYaqnK8Lh0GT6ejIOHSRcOgBnM+GX4acYl+zdeu2G/4N1PGUvL+YGwvzAWXxD5KcS/WJzznQBtwo95HnjeQrRVybpTjWjk2pCV2zvJ94o09DYZ7ooovBM43jugp1l80RDwysW+7qSJVeS+O0atqxsgS8eqUgeLuE/sY7pHx6l2DqKN5H1QIGtQoiWm8Ing5rcXxsKYUciAaIBFroA24sUN6o7McKIf6eNcJZYYU4+tMA+zNUDXpzB8vLpYAWnbuILFwQrkBglPhkkg1O9V05qBCOIEUG4EM38Uc7sMT+orTMZ8bD4b/hrp855pKwTln0gBoEz8EeMeW5cW9JtX3kI31m4E7LxsZ4PU9U/DcOra3OKVvQSxI4NeYn33qs9q41mPG1L5x3iBxWv+Cdi//fBi1DoXanCo6vGeeuAzRR1ItZ9/px3wfpqy+iMikeEKUY176M3/ealU+qbxAzME4nvHAmlLEAUsecDNwU9RidlU7BRLsgqGFsXEfJRSBW4E4WBXRT3gp1FSq1lbi1BH9mFNBVHPZz6lwCLHScejLL+COSWcR1biXY9xff1wtXjT5MU/HWHcitATWqyn1HNDA9ZDHdBNklA+NSyRakG9fXSG2IvsEX3YrDYX31HNnDbCVVGdDAl4FUHhNEwCymRjbMsxPRaPgeHHHcb0Nyas6T5X/p5jOehfTRbw31nMTDHFH4DpNqeeABq6HPJ4+slicALWR+aBIv4VUokGHzhZW4jTK05P6C6qrauhEr2BdPz6+t+jfapm21pPMPq3IlyOjBiWrHRG8ND4xRlhFjAP+E1wgtyOKiUSV+RK4S+opIhW3vD2mgesRPwmsiw6JGnlY5TuQRH/YUoOg9I4qMoH66Gn9EHtbEHccae7WYDg+3HNSH/OhpLf5IaAU5zSOGzoZY3UayY7prQY556NX7GuKzUlTOxgGjcPuY+SmXV3GngMauPb8cX32Uhh5juwV9SyigL0f0vY/NS1KFZlTPpRicbTUDm2y3EWQZByTdpbGI1Cf7dOK7Za+fEgRxrtFHcIPeT19lh/dXC0+bY0XpqHtC0OKRJl2zHDL3qTKaeAmxbb2F3Fsy/xQgwqjY1tK25XIWKFyxOcY8LZxvURhAsBha0Uo/3PMs1oD3tv3xH6PuasugcGJ49tEiB8OWo0nY5pIZWmmlZljXRlw/zUE6NM90v2nIZHe6LLkgAauB+8Bp1AoaaQEXfRJjdgKaauiBZjiMUcHqcqojhEEzCVFg1EyxPBaxtvOPtydimxtg6CfDmPWmF4dVWb6ND+NgHs51uXY+JS++cbHxlqP3veGAxq4HvDx3MGFgqlgSAx5o7RVxdUyzSrHl8l6GXGqhWNIeiolSmMxRv0mpKaMTkr0epbnfY4HIKXxzVwH82Ex4RydTfiROR/qcp+C9jEs5vJ6u3Mc0MDtHP8EpQsNN3LM+M/t9Ub2RVW112KqqLQ12EB13s2xXrj+ruPLEpJmtPJ+CePUeNZhN+2yDKd8GGTPGF0r1UHsLoU/877WFK9TAHImC1Cp1tZr9X7iHNDATZxn7a7geHEQXlASQ/Re342XV2FJpicVXQmTlbayUarjx/TOEzchTNANcSg9sX8PcQ2kLSVhZ+lsOJgwEyVjjK1Eh4zdrcAtQcO8Zwbga/KeA5qrneTpsUjvIuctOWf7GeY0mafYSlMxb9oZw5K5vmIMWGdhrOo0D8trRiHq5+soy3G1F0R1nR5S8mNlrpPxuZ9UtQjGG5P+Cx+MUq6NoslzDmjgdoKlVFsZYC4B+c7+JnEAycStRDWahiEmJbcjWmX/BYntRKxlMKT8nceVCSZRj0ccz16AsSb9jp2IUNsCgxqnsJzoDIyxhyv8kolXfry40BiJkrlES1wndiZ1XgM3KbZFLzoKYz2uFiChswbJyisViaMmIGMErbIK7bJd6w9vqhYXL90Tc2Zod9KyQ1WVEUSck1UR26L/83VH9XRsl9cTcLe+X2GsZEADkx1xjMvABNVHg9NCkgcMkOAqCrRoa/KWA5qlneAnpY40NtEveVN1s7GwlrXK07FYF8d8dkRpuwApUJlH+Ztv7bcrGjvHfMzMrsEgeCtx6ohzr4wHdqKDiBV+Cilh/4wIpn9iTnb5XmepfxyGCDJBgLl+WtVlFkjeMYMoVONh8zV6O3EOaOAmzrPYFYdgfR+pJnMdH04BqYTVaMx9OkXNEDTSqLUEy388B+u0ExEYBCj9ic1GL/bpHBiRVJE/1jrZX66W8Af4HFPSrj7QKN6Dyu9EnLeW6XjMZXci1I8fMXyHDOI0mQaumUPebGvgdoKP9A7q2SpJt9e1wFOqo18yx7d8ybksph0txIJbZpr11r6Yymk+bt2mR9WZSJt6OYLhSWxlDKzONyJSx0k1Z/kPoSJzoS+Ob0n8+KyGyr+1NXDAOKj4NxLBESrg0jDFj5jMp8XpsngRSIpq9SGXHNDAdckoVTGqqlKSbkfoHteftRJfcLpE2sGWqiod9c3EJS+vX3nAfCjuNsfPTKPKcEKqxnMw7mXUkRNRpWVWDkpcMzGr4yZYh+2I2gat6aqPAz2oZKaP4SU5WuLaMTLJcxq4STKOgOVqd1wDiEQpU68ALi3PDsJWrKtoVob+MbroL1vrHHvILnCce+u43sa6ulzMyw29urNB0D3TGnZI7YEr19sR1V+Occ0quizPNYckK3ICdp8seYX+TZQDGriJcqy1PF9HvpNOryWtzioXQXOzK+AiqSKOE7+zcr/Y7QAiXkupTuf+n51Y5krCUapyORGpIpvb34P2dtWrI5vM5fjBUOGSY1z5MaBU1jNCZq55s62BmyQfORViNro0YGwXinRUlVlG9XKbm7UbT3LV+OvfcacyU/qpLL3mtrjNqKXntteJZ5AmVkWUlnRhVDmSmMuzLdWUEC3krT4YxkfL6eNmrlNvu+OABq47PnUoRRWZEkdSlSFl5F7bb1+83E7OQzIcru2qti0CgONQBqx7RXTL5Orz0vKrqpf3Q/BqykwOaOAm+Vw4jjMvH8IMGNJQZa6Sai6K2tJBgMSOaOi5bVWFsdC1XTk35zYh3czjmG7yYqHsEL4qCiWj3fBBY9/NU0m8jAZu4jxL6ApOi9jDErmJHfyIKfdo/OJi150hqsgvIBDgScTOOhE1CifDEp1FOESwEnMtwyZnEK3jilky6yV6P0EOaOAmyDBZnNKW0ylyHFgCfVhlhNkP32VZRl5r/XUTI8txJ6dtHk1SZSa86BH1mw3Vjv3hCIBztE6+1eSBSqLSGBdsHdiz3x2hbeWA3k+UAxq4iXLMVJ6J4BpaxSkTuhUpkEsppxBKplqEOMEh26IszHliukWqLMGyTLzfzXDHXLK5VnwMVdmJaKHmagzmMbz1GlqNo+P6jrBk5BAuN2gHppakhdlah95PngMauMnzzpjrrGkdwDJHcrFiwpYpTDk9Ygfe45Ht0Q0RIlw9gCqzXX3WuqgZvLijASqy2opsLc/II6q7drQNDid00bT2gywgL6S3FMfSMszPrj59LjEOaOAmxq92pbfBQ0g61NMnt1hhPqbEpZSze3n5oo+Fm6Ib4piZK+f9zuIiGe9aAut9uDA+sLEq5s0Ur6w8TmeOwxVZLuR5/n4CCc4PkpWi0jon5phCHjkZ56x16H1nDmjgOvMoboltkH4y9pQGJs5rqpwtPjrY5AgaJmJzS7RC37O+SjBw3YkY2L8E4+K1lc4qsqzraARFjIT7pB3xY6SKPba6eG6GD7R0f7SrT59LjAMauInxq13pjfA+ovGJxFgDZsPopZC6K/Y2KVO1miu7EkngMLR0RVSZt2HsePvqynZTUtaLKe1f3RmN/LGei7fPONuTEAAvVd145dbhQ6BK9s4YYLp5kug2ybG1DDiIV5c+njgH7D+rideXVVcwvxIlymkACKN0GKNKa6wMz5PM4Jq4n8OF0C6YfjAk9rdGlRoLhMnr7H4pxagy01h1JjJHqky37BsXHDPPN9vVyXNnIbsFs1HaEWNu+adyHGHWi96tH69VUNGlRmJXnz6XOAc0cBPnWbsrmDliH6TusNxcI1VLX6QkZZpSMxE4/9hWb2RH5BgwHjHn8u/hHCEzSMQrJ49zjMmFt/jnBY3Dh+e8IYXKFQvM9TO9zmetYYDm4/RLHo2xurSu0wdbGu/M5fR25zkQ/y3qfN1ZUcPbWJ2dzhEkhtQdC1WRc7pW+it8g508pBgmuGhiX+uladmnz/FFSOHKAHw7opGNS4fSh9pKlNSDsZoDp5GoHr8JgEvjnbWs3u8cBzRwO8c/I1cTDTVSHf0CJNbAHh0VGeaj+jdA7mSoYd7i7x/jLvVqJ7seu5xAuwxZKJkw3Wls+/LnDeID3IvKqeQc5FLu3yP6Si3HvTLxHEYRmlLAAQ3cTjKVnkOvY6wppS6lzjAEmVundPn+/gwqrXX8q2r+pyeUiW/GSQKnKt+ZY+wns0DeMLrUmH+1q4tjWkYUqZw4mEKHjiQylQ9T7+xXTBfZ1a/PueeABq57XsUt+RqAux1TQyQapy4ZVqx0YKCx5llE+qiMOtbKf3NKH6yLW2Y97Ok+Je2FUI/vxoeCFnEn4uJeHLeqrMRMncOMjiQa7TgO1mqyE0eTP6+BmzzvYlfSBfFlOO/ToZ50CZakZGpSlcvg/647KHYA5E4aJOeDb0USOC5+7QZUsc643BgIK/YtY3qJ+04uN1KtOl3GMS1zU22ANdlKXGrkPENNjnpbPYFynD+m84em1HBAA9cjvj6B9KaftlpaOe3DsSotzFYiyOevrnAtjbjC+xvnDfRU+jK4nxkgKdHpteVEHA78Fuv9voQ5YW5bieNj5riCADe8qZ6BViE/Ytayet8bDmjgesNHY9z3CnI4HWhdN+jrGKNyiRCVJxVTxjysyPUUryucXhmtyJ0cr7zTcaq6dP7f06ohOJX/C8a1T8PPWWUVZ0bJSzE0kEuS/An3xphfFcCd2tHn3XNAA9c9rxxLPoSVCNbDvZEqIkP1rj+q1FixTnXhD7BqwDvI7OhGnQwjWv1fcOLwkqiuq9ReaxtcMvR+SFvmqLISDVtMyH5MWVTacpzP/MxOieas9ej9xDmggZs4z+JewekPhs5RmpHOxdTQl2H8UTldcFrowqW7BQ1WCu2zXRuUXrRce0ns4wZIRjt6B6C9bVVl3LZ5b5z3lffH8Tv9p918jOza1eecOaCB68yjhEo8jpSqnK+l5Zj+yz+EgSneYtD09f3Sa7uNhbDtGuEU0mp4aHlJuxFI/DGkaLyPBqXxTzB99QrGtaoyXD/o+qNLjUXP2C+W4zKbbr2+vLyXbKxLA9fjp85g9zvWVIp1rZKHEUN3YbqFCcRpvLES1covvLLbWD3Aeo77lF70zvJaijG4nZZfht1Z6S20x8ySTFKnAi3XQbp1XC9j/VveEy3Ov1hXhbWTOtZlrVvve8MBDVxv+NiulvWInOGLLFXm8QiU//mJfeLmlmLupgnP7xS//KiqXT3cIXBe29V+pYEOhZI8wNUXGOgviV5Of0Y+qqvf3m9Mb6k+FjS23YhppPMx/cPkeDR0/fTDg8bHReVNJevWv95yQAPXW37GansS00OPfVobCzbntA6DCJgSRkV0mbwBUm7q63uM9XtkGcMwBWeGVBBDA6WBitM3P/mwUlzz9j5jPSFVe5yXnoulTri0JzUJflQe2lQj/grJzGVUNKWPA+q3KH3t+7YlvtR3Y4xIdZNxsSS+8PMBXukWaBy0/KPEO+7vO2LSl6o0Y19TQQQrA+z5kfnSa3vEnWviu2RSJb72yFJxo8k18lksj/Kbj6uU6nYq+qvrbONA27Br8Zbo29V2Tm95wAFOCz1yWl/Ds0g68DPtzA+RJ5lzvnZMHws3xAuHFoofQxVNFVH15UugcmOUbTLb47cxtfUdGKOYj4rEpOrMffW+iyU5ZT36t5McmDEihtfYhtDA7SRX41/OjBCPIFyPkUMSvLTCTntjn6MTBB+QHbjjt+rNGS4T+j+IVroG0laq+UwTezu8v5jLSjUO9qZlXUsHDpiAq1XlDtzx/gA9jqa/uVf8ESqpDP87G/OfS6cMdMw20ZWgpcRnfPBNMEYRtOzLM1CPb3rvgHgXklaD1vt3xW2NbcANiGVuL9LlEucAF4z+1vL9GBNWx/yUmS3i5XMGiO9CBVUtnpV4K95cQV/mS+HL/ChU/KnwQ6b1mMN0Lr59M0BLq7mmruVAG3Aj4vWu7Yr/W+c48ha8+NdgukXG7xIk947vI5aeO1AwEL2riZFID5xaLhZOKDfia6mq0z3y++g3x+VerDnU1ffYLdu3CNY24Ia1xE3HA6V6ySCD01/YacS2ynV1TulbIF46e4D4w+n9EGmT2yEQP5V94wIMDEO8HQtj/+OsAWLW4SWGrzWl7GqMY+eu2C/uwxyzKqtjKvul6zZxwCJYO+ZYMZXVm6njABPKnfPybvFVqKLMeCENP1cgIP2LsCS/ibxOP4PvLzM5porokslxLIFKv+MhSOrOwAESE+D9bmONeBDqMed79Xg2ypdM+d/6mFq7s2TLUlggJmVK57KlH4zfvQfqMoPRmUHDTHSQ4Fq2zCjBIAbV6gHm8k7btBIPR1K7U/sViCtGlIgzBhS0Cz2kIW0Z2mLCdbapKUM4YLIos0ftgfvIlkkiKJZmSFezqhuUdFw4jA4aM7GqARe7kw8HGqvhxFEBKfgBgg1o2WVUEYPyGczANWpZJmJarJar5bEOjqH5YWCSc46hJwKwXMu3BGliKXFJvJbWbk7z3AvAvrc/GiRhnNT/MoEDC8SMEfPNHZHvRtuxxVtYYF7bAb2Vbg6MQuQNs0pw3peSseNDivaIluqdSLTOpOPRBbQJQayqALDS8aMP/voBtPxVEbBqJABgLikGy69EfLBeWU/FqS491gG07I36ndAqc5c+Kflg6NV0RGmu4bU0BdKyHAAsNknKRDtJY1M9rGF7EdL3NmJtuTI91eE6IFiPYRPlZprKW1Rk2araOBUSCwQ92/R4V/Ip7b+UnZw+op8yp484l8oUqEdAGh8BqzNX0xvbG4tzYZveWNbFsekfXQXHf047McSQ9TASiEYxhvOp0tCk/SZ1g/YcCIvJ8QqoJa4srdVmyYmM/uX4mIEL/CVFJWvE1v84WlL/z0gOcM6WwnPWiGXx+mcPXF4VBS+35vGfJs0BzYEUccAFYGXLzsCVJfnbBmKOjs8wn+rSba3Sdyn7u13jFi+kLu0/HSuk85ONhLX2MTHgWq/OlH09jZUpT6I79ENppe0OHTf3UT1PYC7RHbYT+FJ1h9vRfUwhB6R0S2ET6ajaH8AlpzJJ/UnHk9NtJMcBn3zk/QNcWuE0aQ7Yc8A374g/xrjyYWnHEckJ/WvlADWy6SMmWw93133/SFw+AS11u+t7mPp+W8LiUt9galvwl8Qlr7SFObVvTPes3ReWZDPr/SVxeWdR44NvxjLmh6W3k+KA70BLLvhP4spnq901JSey+deXoOUD9S9weXcavORCtpJvQcsH6m/gyldWA1hywv+/Cfj7dmdmZAdw5RMigOljrX2bJUf88Sudbxwiavxxs9G7yC7gmp9cVApLLmROwIS5j3o7PgeSdM6PX6E+ozmgOaA5oDmgOaA5oDlg5cD/A+qplueDZ5IZAAAAAElFTkSuQmCC;aspect=fixed;" parent="afDIatIIUUOGtq9c_muA-2" vertex="1">
          <mxGeometry x="519" y="35" width="50" height="27.73" as="geometry" />
        </mxCell>
        <mxCell id="afDIatIIUUOGtq9c_muA-3" value="Process" style="swimlane;horizontal=0;whiteSpace=wrap;html=1;startSize=48;strokeWidth=2;" parent="1" vertex="1">
          <mxGeometry x="70" y="250" width="1080" height="130" as="geometry" />
        </mxCell>
        <mxCell id="l7w2UNLdyFyKtGdHqsaT-4" value="request-ride-process-api" style="shape=image;verticalLabelPosition=bottom;verticalAlign=top;imageAspect=0;image=data:image/png,iVBORw0KGgoAAAANSUhEUgAAAO4AAACECAYAAACXgRceAAAAAXNSR0IArs4c6QAAAIRlWElmTU0AKgAAAAgABQESAAMAAAABAAEAAAEaAAUAAAABAAAASgEbAAUAAAABAAAAUgEoAAMAAAABAAIAAIdpAAQAAAABAAAAWgAAAAAAAAFKAAAAAQAAAUoAAAABAAOgAQADAAAAAQABAACgAgAEAAAAAQAAAO6gAwAEAAAAAQAAAIQAAAAAyiTvzQAAAAlwSFlzAAAywAAAMsABKGRa2wAAIsdJREFUeAHtXQmYFNW1vt2zMQsDw7CDIKKoILiigs8nuKDGxKgRoxLZkhDFaGJc8mL8BKKJMcnTxJcYg4qCMYkao1mMu2A0IriACIggEllkZ4bZt+5+/189t6em5nZVdU91T0/1Pd8307XcuvfWqfrrnHvuOecKoUlzQHOg23Eg0O163M07PGfOnLyWlpZ+gUCg4eGHH67A7US6wy1dddVVxQWBgpGhSKgskhPhe7Ortrb206eeeqqpO/Tfb30M+u2GMv1+GhoaSkVYXB5piVwxffr0I+bOnVuS4X0OXHnllWU5OTlnhgKhB0RQvIJPzVJ8eG4pLy/vneF99233cn17Zxl6Y/n5+bnhlvDYsAhPDwaCO+tr61fNnjn7XwDES7m5uesXLlzYnCldnz179mAREl9EX78CsJ4cEREN1Ax5OBq4XfcgqO0MARiGRCKRCwCQBU3hprUAyxPhcPglAHxrRUVFPVRRAjkt6vTUqVNz+vXrV1hXVzcCEvWr6Mc0tD0Mf1ozAxMyiTRw0/w0ANJmwGB3IBRoAWgl/zlmLAQ8x4dD4fHYrm1uav6kuLh41cyZM98PhoPvNoYa1z3++ONVXnd3/vz5wa1btw5Ev8YHIoEJdbV1E9DGOOzHla4BEWhB2T3Nzc0tXvdH1+eOA9o45Y5PXpYKTJs2rSckKgFyUyQcOQO/BLDyWRAkONeAv12Qgi/miJzFJbUla+958p4G7CcliQnWPXv2FNXX15+M+r8ByToJ9ZfhLx9/SukKIEeCwWAjevkyPjr3osfvLlq0qAblk+oDrtPUCQ4oX5ZO1KcvTYADN9xwQyHU4ZOAiSsAoMm4dCT+8uyqMIAcEGsgrf8OIL0Cqbfqscceq7W7pvVcYO7UucX1JfUnQlpOQZsXAoSjiUeHa6vxgViPdl+NBCJP79q1a93zzz/f6HCNPp1iDmjgppjBbqrH2DIfavFgAJGAuhpS+HgX11HSVQSCgQ8ArDuGDRv2BiSpUnXF8Vyow6dDsi6AfDwG11ENtn32qPMgyv4dYF0C7WDVxo0bK5ctW6as30VfdRGPOWD78DxuS1fnggNQo0sBlPMB4KsAnBMh6fqaxsLxaggDaI8BissBznbgwvG8oAhODEfCX8PFds87hLYqANSNKP9cbiT3iYWLF26O16A+3rUcsHuQXduzLG+dAC4IFowKB8JnAW5TwY6x+OMY1GuqR/2rUOmz+HsDwN+0ZMmSA9jWY1evOe1hfRq4HjIzRVUFoErn9ezZ82SAajrGp5MhgftDOha5kMTWLhGM9HSqgSTejuv/BseKJ6uqqj7CtFPIWljvZy4HNHAz99koe3b11Vf3h/fVaAD4aIDvaIBvFGTjMEjNQVCvS3EsZmzCPoFK49IWlKPauwGH1uZF8tY1Rho3uzRqKfuhD3YtBzRw08R/SM1CSM3TIDVnQVo2BHOC927evHlDZww+dJgYOHBgbmVlZW5eXl4wWB8saspr6gUjVxH+Io2Njftxe1UwfLXAet0yZsyYFhiqwgnecgD+1bktDS0nYaJoDryoDsGH4DPU8SZ+X4S3195M8vZK8N66bXEN3NQ/ugCcKIYDrPMh7WggymltshK/L8Aq/DTU1bcffPDBHQBCxowr+VEA4A8JRoKnRYKRr8DSPRn9tTplVEHS/xPHF8GgtkwDuPXJpuFHAzfFTAYASkqKS14EaOlwYeU3gdqAo58BtP8AgBc99NBDH6W4S7bV0zkDU0dj0d9vAKzno/Bg/PXAn7Xv5noOQoO4o7q6+pd6rGxmS+q27R5G6lrNoppnzZr1cwDgJpe3XAsArwBEngmGgisbw43bioqK9qVSkuHDkl9YWNgPH43hkVDkVLR/MdqnUwjB6ppwXRhaxdcXPbroUdcX6YJJc0ADN2nWOV84Y8aMkXihP4TxqNC5dLsStPBSld4BMGwI5ARWAkjLWRfcDKvblUxi57rrriutqak5HgauCRiz0kd5FIxXQ1BVL/zFjFtJVF3R3NI8Dj7V25O4Vl+SAAekk3sCl+iibjmQF8y7HIHnhQCF20tkOY6Dy/mHa8dBEl5GRRWSu3bWzFmf4PhqgI0fhE/DwfB2SMuKQFMgFMmPhOECGYGhKhAKhQI4novfvgD8UMQAH4brOBd8XHVV9Sj85st+yV8c6xShnTKMdWejkh91qiJ9sSMHNHAdWZR8AYD2HEjK5CswXxmtphj1HYvDxxpgo76E46GWUBPkZLNoEc2I8Q0hwigHwM7F8QKUyPOsD+b+KLbZDryupuCUBq6CP14e0sD1kpsd66KESwfRo4p/BqULqLI98y++GhPN+3o7NRwIpqZaXSs5AAD1yTZOQF3WdpM0PHQN3DQwWTehOeA1BzRwveaork9zIA0c0MBNA5N1E5oDXnNAA9drjur6NAfSwAEN3DQwWTehOeA1BzRwveaork9zIA0c0MBNA5N1E5oDXnNAA9drjur6NAfSwAEN3DQwWTehOeA1B7Lb5fGRLZO8Zqi5vl0fLDbvZs92ivkaY+SsEcti21m2kV3uaXyhgmISIm3OgHP+pCx71n6+3QWIflomsgjI2QFcAjZHzNNg9TN2Y/e2QMwYMT+259MN/wN3yZalGrA+fXvj35bvwetf4GopG/+1zpYzYTHZr+qzP4EbHcsuzZb3U9+nLQd8KX39OR0UFBq0tu9yVp2cJ/gh9xn5D7gc02rSHDBzwIcfcn+pyou3zMfzmmd+Zn7c5kPLCwZET6zDV5IXEEU5AYFd/AZFPtLMVTQhd2MEiwThX3VzRFQ1h0VjCAeymQKYLpo+YrJfWOA34Pr67SzODYghRbmiX4+gOAS/R/bKEyN75hrHgF8xtDhX9MkPitUVTaIZoCWAPz7YLD7C37bakNjXGBI760PiII77mlHx0OkjY5V/PKei0jbeI+uWx/lVLYA0/e8BPcRXDy3GbwGAmSMI4Hwcj/fVPQPlzUSQEsh1LRGANyze398onvhPrVi2q8EAd9aAmHP5ApLXBxTv2Xe/W1uMBel8QvnQe88c2ENcMLRIfGV4kRhUKJcb8vYGP4f0fWFHvfjbtjrx1t5Gsbch5G0DmVjbjBG+eOd9cROG1dAHBohCSNHJAOx9J5eLYcU5xjjW+u5TctZjvMq/XQAe1eCNVUipjDX4qArXYEw7oiTXkMj9CoJibFm+GI59joN74I8S3PzQ+bVrQZ2fVLeIBzZWiz9uqRX7UQ8O+ZN8oi6bn6G7B5WJpnX6H3dzo9TcI3uK2Yf3FCeWx9Ijx54HMfTOvkbx0uf14r0DTWIjwLqjdawaK2SzQdV6IKT2iJI8cUKffHHWoB7ilH4FoheMW2ai/epjfAQe21wjfv9pjdhe50MJTCNVSCww33eXbyfhY+0OuNoLKSXPlpbgo2Fguv+UcmMca24Ew1EYlFrE81Bl71l/UGyGRPSShsK4Ne2wYmPsfDgMXLRQm+ltqM53rT0oXsbHgtJdU4o5wA9KRLzu1s/aHrgasCl7WrlA7b0nlYkrR5SIPlBpzUT193vvHhArAZ4DsACnivjwSwDY4yGFrx7VU1w8rMhQp2V7nEb682d14hfrDhoquTyuf1POAUdvr/jAzZI50ZQ/AkUDoyFl/w/j2EkYz1LqSvqwskn8ZM1B8SdYfNNNGPoKWqOvP7rUGGeXmiTwcnxAfvRBpXgNVmjODWtKCwdswWt6bUyd0aA1McPbzUuHF4t7x/fB3GtOzEhEg9NtqyvF/RuqRA115C4kGrAoeb9/TC8xDoYt+YLsgcV5Hvr4OIxX1ZDEmtLAARunkY7zDBq0KXsiVEcJ2gEwFElAUJpdsmyPoZKmUCt2fU/8bqytbDYMYQTxkaV5hiW6OBcWwIHRZX7XQ5Wv7eIPjOsb6t4FDxUXfzcgnv3VMuttyPen7biP5kPbbqprtzgve+PoUnEzpFgZPJtIlLIPbaoRN793IGNBUIB+XwNr9w3o+yHwyuLLQjsVjWW/+qhK7PCj1dl4Ohn2TzGF1V7iRqXtpAzrdrfvzrxje4vvjW4DbSNAe+2KA+JuWG0bMthiy66thJcVjWV0r6S7Jcfkp/brYcwxr8WYvArzxppSzIGgOFQ886vF5lbamzO7+Vyo+cYyYZsGn28fVSq+BRW5d6ukpf/w9Df3icWYK+0Ohh7aouhddct7FeLNPY2GxOV9XYf74rxzX4tFPBP47rs+MD+axX+iDbiWE767+S64oWmHlYibx5QiKCCq2NDwdNnre8VfttYaqnK8Lh0GT6ejIOHSRcOgBnM+GX4acYl+zdeu2G/4N1PGUvL+YGwvzAWXxD5KcS/WJzznQBtwo95HnjeQrRVybpTjWjk2pCV2zvJ94o09DYZ7ooovBM43jugp1l80RDwysW+7qSJVeS+O0atqxsgS8eqUgeLuE/sY7pHx6l2DqKN5H1QIGtQoiWm8Ing5rcXxsKYUciAaIBFroA24sUN6o7McKIf6eNcJZYYU4+tMA+zNUDXpzB8vLpYAWnbuILFwQrkBglPhkkg1O9V05qBCOIEUG4EM38Uc7sMT+orTMZ8bD4b/hrp855pKwTln0gBoEz8EeMeW5cW9JtX3kI31m4E7LxsZ4PU9U/DcOra3OKVvQSxI4NeYn33qs9q41mPG1L5x3iBxWv+Cdi//fBi1DoXanCo6vGeeuAzRR1ItZ9/px3wfpqy+iMikeEKUY176M3/ealU+qbxAzME4nvHAmlLEAUsecDNwU9RidlU7BRLsgqGFsXEfJRSBW4E4WBXRT3gp1FSq1lbi1BH9mFNBVHPZz6lwCLHScejLL+COSWcR1biXY9xff1wtXjT5MU/HWHcitATWqyn1HNDA9ZDHdBNklA+NSyRakG9fXSG2IvsEX3YrDYX31HNnDbCVVGdDAl4FUHhNEwCymRjbMsxPRaPgeHHHcb0Nyas6T5X/p5jOehfTRbw31nMTDHFH4DpNqeeABq6HPJ4+slicALWR+aBIv4VUokGHzhZW4jTK05P6C6qrauhEr2BdPz6+t+jfapm21pPMPq3IlyOjBiWrHRG8ND4xRlhFjAP+E1wgtyOKiUSV+RK4S+opIhW3vD2mgesRPwmsiw6JGnlY5TuQRH/YUoOg9I4qMoH66Gn9EHtbEHccae7WYDg+3HNSH/OhpLf5IaAU5zSOGzoZY3UayY7prQY556NX7GuKzUlTOxgGjcPuY+SmXV3GngMauPb8cX32Uhh5juwV9SyigL0f0vY/NS1KFZlTPpRicbTUDm2y3EWQZByTdpbGI1Cf7dOK7Za+fEgRxrtFHcIPeT19lh/dXC0+bY0XpqHtC0OKRJl2zHDL3qTKaeAmxbb2F3Fsy/xQgwqjY1tK25XIWKFyxOcY8LZxvURhAsBha0Uo/3PMs1oD3tv3xH6PuasugcGJ49tEiB8OWo0nY5pIZWmmlZljXRlw/zUE6NM90v2nIZHe6LLkgAauB+8Bp1AoaaQEXfRJjdgKaauiBZjiMUcHqcqojhEEzCVFg1EyxPBaxtvOPtydimxtg6CfDmPWmF4dVWb6ND+NgHs51uXY+JS++cbHxlqP3veGAxq4HvDx3MGFgqlgSAx5o7RVxdUyzSrHl8l6GXGqhWNIeiolSmMxRv0mpKaMTkr0epbnfY4HIKXxzVwH82Ex4RydTfiROR/qcp+C9jEs5vJ6u3Mc0MDtHP8EpQsNN3LM+M/t9Ub2RVW112KqqLQ12EB13s2xXrj+ruPLEpJmtPJ+CePUeNZhN+2yDKd8GGTPGF0r1UHsLoU/877WFK9TAHImC1Cp1tZr9X7iHNDATZxn7a7geHEQXlASQ/Re342XV2FJpicVXQmTlbayUarjx/TOEzchTNANcSg9sX8PcQ2kLSVhZ+lsOJgwEyVjjK1Eh4zdrcAtQcO8Zwbga/KeA5qrneTpsUjvIuctOWf7GeY0mafYSlMxb9oZw5K5vmIMWGdhrOo0D8trRiHq5+soy3G1F0R1nR5S8mNlrpPxuZ9UtQjGG5P+Cx+MUq6NoslzDmjgdoKlVFsZYC4B+c7+JnEAycStRDWahiEmJbcjWmX/BYntRKxlMKT8nceVCSZRj0ccz16AsSb9jp2IUNsCgxqnsJzoDIyxhyv8kolXfry40BiJkrlES1wndiZ1XgM3KbZFLzoKYz2uFiChswbJyisViaMmIGMErbIK7bJd6w9vqhYXL90Tc2Zod9KyQ1WVEUSck1UR26L/83VH9XRsl9cTcLe+X2GsZEADkx1xjMvABNVHg9NCkgcMkOAqCrRoa/KWA5qlneAnpY40NtEveVN1s7GwlrXK07FYF8d8dkRpuwApUJlH+Ztv7bcrGjvHfMzMrsEgeCtx6ohzr4wHdqKDiBV+Cilh/4wIpn9iTnb5XmepfxyGCDJBgLl+WtVlFkjeMYMoVONh8zV6O3EOaOAmzrPYFYdgfR+pJnMdH04BqYTVaMx9OkXNEDTSqLUEy388B+u0ExEYBCj9ic1GL/bpHBiRVJE/1jrZX66W8Af4HFPSrj7QKN6Dyu9EnLeW6XjMZXci1I8fMXyHDOI0mQaumUPebGvgdoKP9A7q2SpJt9e1wFOqo18yx7d8ybksph0txIJbZpr11r6Yymk+bt2mR9WZSJt6OYLhSWxlDKzONyJSx0k1Z/kPoSJzoS+Ob0n8+KyGyr+1NXDAOKj4NxLBESrg0jDFj5jMp8XpsngRSIpq9SGXHNDAdckoVTGqqlKSbkfoHteftRJfcLpE2sGWqiod9c3EJS+vX3nAfCjuNsfPTKPKcEKqxnMw7mXUkRNRpWVWDkpcMzGr4yZYh+2I2gat6aqPAz2oZKaP4SU5WuLaMTLJcxq4STKOgOVqd1wDiEQpU68ALi3PDsJWrKtoVob+MbroL1vrHHvILnCce+u43sa6ulzMyw29urNB0D3TGnZI7YEr19sR1V+Occ0quizPNYckK3ICdp8seYX+TZQDGriJcqy1PF9HvpNOryWtzioXQXOzK+AiqSKOE7+zcr/Y7QAiXkupTuf+n51Y5krCUapyORGpIpvb34P2dtWrI5vM5fjBUOGSY1z5MaBU1jNCZq55s62BmyQfORViNro0YGwXinRUlVlG9XKbm7UbT3LV+OvfcacyU/qpLL3mtrjNqKXntteJZ5AmVkWUlnRhVDmSmMuzLdWUEC3krT4YxkfL6eNmrlNvu+OABq47PnUoRRWZEkdSlSFl5F7bb1+83E7OQzIcru2qti0CgONQBqx7RXTL5Orz0vKrqpf3Q/BqykwOaOAm+Vw4jjMvH8IMGNJQZa6Sai6K2tJBgMSOaOi5bVWFsdC1XTk35zYh3czjmG7yYqHsEL4qCiWj3fBBY9/NU0m8jAZu4jxL6ApOi9jDErmJHfyIKfdo/OJi150hqsgvIBDgScTOOhE1CifDEp1FOESwEnMtwyZnEK3jilky6yV6P0EOaOAmyDBZnNKW0ylyHFgCfVhlhNkP32VZRl5r/XUTI8txJ6dtHk1SZSa86BH1mw3Vjv3hCIBztE6+1eSBSqLSGBdsHdiz3x2hbeWA3k+UAxq4iXLMVJ6J4BpaxSkTuhUpkEsppxBKplqEOMEh26IszHliukWqLMGyTLzfzXDHXLK5VnwMVdmJaKHmagzmMbz1GlqNo+P6jrBk5BAuN2gHppakhdlah95PngMauMnzzpjrrGkdwDJHcrFiwpYpTDk9Ygfe45Ht0Q0RIlw9gCqzXX3WuqgZvLijASqy2opsLc/II6q7drQNDid00bT2gywgL6S3FMfSMszPrj59LjEOaOAmxq92pbfBQ0g61NMnt1hhPqbEpZSze3n5oo+Fm6Ib4piZK+f9zuIiGe9aAut9uDA+sLEq5s0Ur6w8TmeOwxVZLuR5/n4CCc4PkpWi0jon5phCHjkZ56x16H1nDmjgOvMoboltkH4y9pQGJs5rqpwtPjrY5AgaJmJzS7RC37O+SjBw3YkY2L8E4+K1lc4qsqzraARFjIT7pB3xY6SKPba6eG6GD7R0f7SrT59LjAMauInxq13pjfA+ovGJxFgDZsPopZC6K/Y2KVO1miu7EkngMLR0RVSZt2HsePvqynZTUtaLKe1f3RmN/LGei7fPONuTEAAvVd145dbhQ6BK9s4YYLp5kug2ybG1DDiIV5c+njgH7D+rideXVVcwvxIlymkACKN0GKNKa6wMz5PM4Jq4n8OF0C6YfjAk9rdGlRoLhMnr7H4pxagy01h1JjJHqky37BsXHDPPN9vVyXNnIbsFs1HaEWNu+adyHGHWi96tH69VUNGlRmJXnz6XOAc0cBPnWbsrmDliH6TusNxcI1VLX6QkZZpSMxE4/9hWb2RH5BgwHjHn8u/hHCEzSMQrJ49zjMmFt/jnBY3Dh+e8IYXKFQvM9TO9zmetYYDm4/RLHo2xurSu0wdbGu/M5fR25zkQ/y3qfN1ZUcPbWJ2dzhEkhtQdC1WRc7pW+it8g508pBgmuGhiX+uladmnz/FFSOHKAHw7opGNS4fSh9pKlNSDsZoDp5GoHr8JgEvjnbWs3u8cBzRwO8c/I1cTDTVSHf0CJNbAHh0VGeaj+jdA7mSoYd7i7x/jLvVqJ7seu5xAuwxZKJkw3Wls+/LnDeID3IvKqeQc5FLu3yP6Si3HvTLxHEYRmlLAAQ3cTjKVnkOvY6wppS6lzjAEmVundPn+/gwqrXX8q2r+pyeUiW/GSQKnKt+ZY+wns0DeMLrUmH+1q4tjWkYUqZw4mEKHjiQylQ9T7+xXTBfZ1a/PueeABq57XsUt+RqAux1TQyQapy4ZVqx0YKCx5llE+qiMOtbKf3NKH6yLW2Y97Ok+Je2FUI/vxoeCFnEn4uJeHLeqrMRMncOMjiQa7TgO1mqyE0eTP6+BmzzvYlfSBfFlOO/ToZ50CZakZGpSlcvg/647KHYA5E4aJOeDb0USOC5+7QZUsc643BgIK/YtY3qJ+04uN1KtOl3GMS1zU22ANdlKXGrkPENNjnpbPYFynD+m84em1HBAA9cjvj6B9KaftlpaOe3DsSotzFYiyOevrnAtjbjC+xvnDfRU+jK4nxkgKdHpteVEHA78Fuv9voQ5YW5bieNj5riCADe8qZ6BViE/Ytayet8bDmjgesNHY9z3CnI4HWhdN+jrGKNyiRCVJxVTxjysyPUUryucXhmtyJ0cr7zTcaq6dP7f06ohOJX/C8a1T8PPWWUVZ0bJSzE0kEuS/An3xphfFcCd2tHn3XNAA9c9rxxLPoSVCNbDvZEqIkP1rj+q1FixTnXhD7BqwDvI7OhGnQwjWv1fcOLwkqiuq9ReaxtcMvR+SFvmqLISDVtMyH5MWVTacpzP/MxOieas9ej9xDmggZs4z+JewekPhs5RmpHOxdTQl2H8UTldcFrowqW7BQ1WCu2zXRuUXrRce0ns4wZIRjt6B6C9bVVl3LZ5b5z3lffH8Tv9p918jOza1eecOaCB68yjhEo8jpSqnK+l5Zj+yz+EgSneYtD09f3Sa7uNhbDtGuEU0mp4aHlJuxFI/DGkaLyPBqXxTzB99QrGtaoyXD/o+qNLjUXP2C+W4zKbbr2+vLyXbKxLA9fjp85g9zvWVIp1rZKHEUN3YbqFCcRpvLES1covvLLbWD3Aeo77lF70zvJaijG4nZZfht1Z6S20x8ySTFKnAi3XQbp1XC9j/VveEy3Ov1hXhbWTOtZlrVvve8MBDVxv+NiulvWInOGLLFXm8QiU//mJfeLmlmLupgnP7xS//KiqXT3cIXBe29V+pYEOhZI8wNUXGOgviV5Of0Y+qqvf3m9Mb6k+FjS23YhppPMx/cPkeDR0/fTDg8bHReVNJevWv95yQAPXW37GansS00OPfVobCzbntA6DCJgSRkV0mbwBUm7q63uM9XtkGcMwBWeGVBBDA6WBitM3P/mwUlzz9j5jPSFVe5yXnoulTri0JzUJflQe2lQj/grJzGVUNKWPA+q3KH3t+7YlvtR3Y4xIdZNxsSS+8PMBXukWaBy0/KPEO+7vO2LSl6o0Y19TQQQrA+z5kfnSa3vEnWviu2RSJb72yFJxo8k18lksj/Kbj6uU6nYq+qvrbONA27Br8Zbo29V2Tm95wAFOCz1yWl/Ds0g68DPtzA+RJ5lzvnZMHws3xAuHFoofQxVNFVH15UugcmOUbTLb47cxtfUdGKOYj4rEpOrMffW+iyU5ZT36t5McmDEihtfYhtDA7SRX41/OjBCPIFyPkUMSvLTCTntjn6MTBB+QHbjjt+rNGS4T+j+IVroG0laq+UwTezu8v5jLSjUO9qZlXUsHDpiAq1XlDtzx/gA9jqa/uVf8ESqpDP87G/OfS6cMdMw20ZWgpcRnfPBNMEYRtOzLM1CPb3rvgHgXklaD1vt3xW2NbcANiGVuL9LlEucAF4z+1vL9GBNWx/yUmS3i5XMGiO9CBVUtnpV4K95cQV/mS+HL/ChU/KnwQ6b1mMN0Lr59M0BLq7mmruVAG3Aj4vWu7Yr/W+c48ha8+NdgukXG7xIk947vI5aeO1AwEL2riZFID5xaLhZOKDfia6mq0z3y++g3x+VerDnU1ffYLdu3CNY24Ia1xE3HA6V6ySCD01/YacS2ynV1TulbIF46e4D4w+n9EGmT2yEQP5V94wIMDEO8HQtj/+OsAWLW4SWGrzWl7GqMY+eu2C/uwxyzKqtjKvul6zZxwCJYO+ZYMZXVm6njABPKnfPybvFVqKLMeCENP1cgIP2LsCS/ibxOP4PvLzM5porokslxLIFKv+MhSOrOwAESE+D9bmONeBDqMed79Xg2ypdM+d/6mFq7s2TLUlggJmVK57KlH4zfvQfqMoPRmUHDTHSQ4Fq2zCjBIAbV6gHm8k7btBIPR1K7U/sViCtGlIgzBhS0Cz2kIW0Z2mLCdbapKUM4YLIos0ftgfvIlkkiKJZmSFezqhuUdFw4jA4aM7GqARe7kw8HGqvhxFEBKfgBgg1o2WVUEYPyGczANWpZJmJarJar5bEOjqH5YWCSc46hJwKwXMu3BGliKXFJvJbWbk7z3AvAvrc/GiRhnNT/MoEDC8SMEfPNHZHvRtuxxVtYYF7bAb2Vbg6MQuQNs0pw3peSseNDivaIluqdSLTOpOPRBbQJQayqALDS8aMP/voBtPxVEbBqJABgLikGy69EfLBeWU/FqS491gG07I36ndAqc5c+Kflg6NV0RGmu4bU0BdKyHAAsNknKRDtJY1M9rGF7EdL3NmJtuTI91eE6IFiPYRPlZprKW1Rk2araOBUSCwQ92/R4V/Ip7b+UnZw+op8yp484l8oUqEdAGh8BqzNX0xvbG4tzYZveWNbFsekfXQXHf047McSQ9TASiEYxhvOp0tCk/SZ1g/YcCIvJ8QqoJa4srdVmyYmM/uX4mIEL/CVFJWvE1v84WlL/z0gOcM6WwnPWiGXx+mcPXF4VBS+35vGfJs0BzYEUccAFYGXLzsCVJfnbBmKOjs8wn+rSba3Sdyn7u13jFi+kLu0/HSuk85ONhLX2MTHgWq/OlH09jZUpT6I79ENppe0OHTf3UT1PYC7RHbYT+FJ1h9vRfUwhB6R0S2ET6ajaH8AlpzJJ/UnHk9NtJMcBn3zk/QNcWuE0aQ7Yc8A374g/xrjyYWnHEckJ/WvlADWy6SMmWw93133/SFw+AS11u+t7mPp+W8LiUt9galvwl8Qlr7SFObVvTPes3ReWZDPr/SVxeWdR44NvxjLmh6W3k+KA70BLLvhP4spnq901JSey+deXoOUD9S9weXcavORCtpJvQcsH6m/gyldWA1hywv+/Cfj7dmdmZAdw5RMigOljrX2bJUf88Sudbxwiavxxs9G7yC7gmp9cVApLLmROwIS5j3o7PgeSdM6PX6E+ozmgOaA5oDmgOaA5oDlg5cD/A+qplueDZ5IZAAAAAElFTkSuQmCC;aspect=fixed;" parent="afDIatIIUUOGtq9c_muA-3" vertex="1">
          <mxGeometry x="156" y="42.99999999999999" width="50" height="27.73" as="geometry" />
        </mxCell>
        <mxCell id="l7w2UNLdyFyKtGdHqsaT-6" value="waiting-ride-process-api" style="shape=image;verticalLabelPosition=bottom;verticalAlign=top;imageAspect=0;image=data:image/png,iVBORw0KGgoAAAANSUhEUgAAAO4AAACECAYAAACXgRceAAAAAXNSR0IArs4c6QAAAIRlWElmTU0AKgAAAAgABQESAAMAAAABAAEAAAEaAAUAAAABAAAASgEbAAUAAAABAAAAUgEoAAMAAAABAAIAAIdpAAQAAAABAAAAWgAAAAAAAAFKAAAAAQAAAUoAAAABAAOgAQADAAAAAQABAACgAgAEAAAAAQAAAO6gAwAEAAAAAQAAAIQAAAAAyiTvzQAAAAlwSFlzAAAywAAAMsABKGRa2wAAIsdJREFUeAHtXQmYFNW1vt2zMQsDw7CDIKKoILiigs8nuKDGxKgRoxLZkhDFaGJc8mL8BKKJMcnTxJcYg4qCMYkao1mMu2A0IriACIggEllkZ4bZt+5+/189t6em5nZVdU91T0/1Pd8307XcuvfWqfrrnHvuOecKoUlzQHOg23Eg0O163M07PGfOnLyWlpZ+gUCg4eGHH67A7US6wy1dddVVxQWBgpGhSKgskhPhe7Ortrb206eeeqqpO/Tfb30M+u2GMv1+GhoaSkVYXB5piVwxffr0I+bOnVuS4X0OXHnllWU5OTlnhgKhB0RQvIJPzVJ8eG4pLy/vneF99233cn17Zxl6Y/n5+bnhlvDYsAhPDwaCO+tr61fNnjn7XwDES7m5uesXLlzYnCldnz179mAREl9EX78CsJ4cEREN1Ax5OBq4XfcgqO0MARiGRCKRCwCQBU3hprUAyxPhcPglAHxrRUVFPVRRAjkt6vTUqVNz+vXrV1hXVzcCEvWr6Mc0tD0Mf1ozAxMyiTRw0/w0ANJmwGB3IBRoAWgl/zlmLAQ8x4dD4fHYrm1uav6kuLh41cyZM98PhoPvNoYa1z3++ONVXnd3/vz5wa1btw5Ev8YHIoEJdbV1E9DGOOzHla4BEWhB2T3Nzc0tXvdH1+eOA9o45Y5PXpYKTJs2rSckKgFyUyQcOQO/BLDyWRAkONeAv12Qgi/miJzFJbUla+958p4G7CcliQnWPXv2FNXX15+M+r8ByToJ9ZfhLx9/SukKIEeCwWAjevkyPjr3osfvLlq0qAblk+oDrtPUCQ4oX5ZO1KcvTYADN9xwQyHU4ZOAiSsAoMm4dCT+8uyqMIAcEGsgrf8OIL0Cqbfqscceq7W7pvVcYO7UucX1JfUnQlpOQZsXAoSjiUeHa6vxgViPdl+NBCJP79q1a93zzz/f6HCNPp1iDmjgppjBbqrH2DIfavFgAJGAuhpS+HgX11HSVQSCgQ8ArDuGDRv2BiSpUnXF8Vyow6dDsi6AfDwG11ENtn32qPMgyv4dYF0C7WDVxo0bK5ctW6as30VfdRGPOWD78DxuS1fnggNQo0sBlPMB4KsAnBMh6fqaxsLxaggDaI8BissBznbgwvG8oAhODEfCX8PFds87hLYqANSNKP9cbiT3iYWLF26O16A+3rUcsHuQXduzLG+dAC4IFowKB8JnAW5TwY6x+OMY1GuqR/2rUOmz+HsDwN+0ZMmSA9jWY1evOe1hfRq4HjIzRVUFoErn9ezZ82SAajrGp5MhgftDOha5kMTWLhGM9HSqgSTejuv/BseKJ6uqqj7CtFPIWljvZy4HNHAz99koe3b11Vf3h/fVaAD4aIDvaIBvFGTjMEjNQVCvS3EsZmzCPoFK49IWlKPauwGH1uZF8tY1Rho3uzRqKfuhD3YtBzRw08R/SM1CSM3TIDVnQVo2BHOC927evHlDZww+dJgYOHBgbmVlZW5eXl4wWB8saspr6gUjVxH+Io2Njftxe1UwfLXAet0yZsyYFhiqwgnecgD+1bktDS0nYaJoDryoDsGH4DPU8SZ+X4S3195M8vZK8N66bXEN3NQ/ugCcKIYDrPMh7WggymltshK/L8Aq/DTU1bcffPDBHQBCxowr+VEA4A8JRoKnRYKRr8DSPRn9tTplVEHS/xPHF8GgtkwDuPXJpuFHAzfFTAYASkqKS14EaOlwYeU3gdqAo58BtP8AgBc99NBDH6W4S7bV0zkDU0dj0d9vAKzno/Bg/PXAn7Xv5noOQoO4o7q6+pd6rGxmS+q27R5G6lrNoppnzZr1cwDgJpe3XAsArwBEngmGgisbw43bioqK9qVSkuHDkl9YWNgPH43hkVDkVLR/MdqnUwjB6ppwXRhaxdcXPbroUdcX6YJJc0ADN2nWOV84Y8aMkXihP4TxqNC5dLsStPBSld4BMGwI5ARWAkjLWRfcDKvblUxi57rrriutqak5HgauCRiz0kd5FIxXQ1BVL/zFjFtJVF3R3NI8Dj7V25O4Vl+SAAekk3sCl+iibjmQF8y7HIHnhQCF20tkOY6Dy/mHa8dBEl5GRRWSu3bWzFmf4PhqgI0fhE/DwfB2SMuKQFMgFMmPhOECGYGhKhAKhQI4novfvgD8UMQAH4brOBd8XHVV9Sj85st+yV8c6xShnTKMdWejkh91qiJ9sSMHNHAdWZR8AYD2HEjK5CswXxmtphj1HYvDxxpgo76E46GWUBPkZLNoEc2I8Q0hwigHwM7F8QKUyPOsD+b+KLbZDryupuCUBq6CP14e0sD1kpsd66KESwfRo4p/BqULqLI98y++GhPN+3o7NRwIpqZaXSs5AAD1yTZOQF3WdpM0PHQN3DQwWTehOeA1BzRwveaork9zIA0c0MBNA5N1E5oDXnNAA9drjur6NAfSwAEN3DQwWTehOeA1BzRwveaork9zIA0c0MBNA5N1E5oDXnNAA9drjur6NAfSwAEN3DQwWTehOeA1B7Lb5fGRLZO8Zqi5vl0fLDbvZs92ivkaY+SsEcti21m2kV3uaXyhgmISIm3OgHP+pCx71n6+3QWIflomsgjI2QFcAjZHzNNg9TN2Y/e2QMwYMT+259MN/wN3yZalGrA+fXvj35bvwetf4GopG/+1zpYzYTHZr+qzP4EbHcsuzZb3U9+nLQd8KX39OR0UFBq0tu9yVp2cJ/gh9xn5D7gc02rSHDBzwIcfcn+pyou3zMfzmmd+Zn7c5kPLCwZET6zDV5IXEEU5AYFd/AZFPtLMVTQhd2MEiwThX3VzRFQ1h0VjCAeymQKYLpo+YrJfWOA34Pr67SzODYghRbmiX4+gOAS/R/bKEyN75hrHgF8xtDhX9MkPitUVTaIZoCWAPz7YLD7C37bakNjXGBI760PiII77mlHx0OkjY5V/PKei0jbeI+uWx/lVLYA0/e8BPcRXDy3GbwGAmSMI4Hwcj/fVPQPlzUSQEsh1LRGANyze398onvhPrVi2q8EAd9aAmHP5ApLXBxTv2Xe/W1uMBel8QvnQe88c2ENcMLRIfGV4kRhUKJcb8vYGP4f0fWFHvfjbtjrx1t5Gsbch5G0DmVjbjBG+eOd9cROG1dAHBohCSNHJAOx9J5eLYcU5xjjW+u5TctZjvMq/XQAe1eCNVUipjDX4qArXYEw7oiTXkMj9CoJibFm+GI59joN74I8S3PzQ+bVrQZ2fVLeIBzZWiz9uqRX7UQ8O+ZN8oi6bn6G7B5WJpnX6H3dzo9TcI3uK2Yf3FCeWx9Ijx54HMfTOvkbx0uf14r0DTWIjwLqjdawaK2SzQdV6IKT2iJI8cUKffHHWoB7ilH4FoheMW2ai/epjfAQe21wjfv9pjdhe50MJTCNVSCww33eXbyfhY+0OuNoLKSXPlpbgo2Fguv+UcmMca24Ew1EYlFrE81Bl71l/UGyGRPSShsK4Ne2wYmPsfDgMXLRQm+ltqM53rT0oXsbHgtJdU4o5wA9KRLzu1s/aHrgasCl7WrlA7b0nlYkrR5SIPlBpzUT193vvHhArAZ4DsACnivjwSwDY4yGFrx7VU1w8rMhQp2V7nEb682d14hfrDhoquTyuf1POAUdvr/jAzZI50ZQ/AkUDoyFl/w/j2EkYz1LqSvqwskn8ZM1B8SdYfNNNGPoKWqOvP7rUGGeXmiTwcnxAfvRBpXgNVmjODWtKCwdswWt6bUyd0aA1McPbzUuHF4t7x/fB3GtOzEhEg9NtqyvF/RuqRA115C4kGrAoeb9/TC8xDoYt+YLsgcV5Hvr4OIxX1ZDEmtLAARunkY7zDBq0KXsiVEcJ2gEwFElAUJpdsmyPoZKmUCt2fU/8bqytbDYMYQTxkaV5hiW6OBcWwIHRZX7XQ5Wv7eIPjOsb6t4FDxUXfzcgnv3VMuttyPen7biP5kPbbqprtzgve+PoUnEzpFgZPJtIlLIPbaoRN793IGNBUIB+XwNr9w3o+yHwyuLLQjsVjWW/+qhK7PCj1dl4Ohn2TzGF1V7iRqXtpAzrdrfvzrxje4vvjW4DbSNAe+2KA+JuWG0bMthiy66thJcVjWV0r6S7Jcfkp/brYcwxr8WYvArzxppSzIGgOFQ886vF5lbamzO7+Vyo+cYyYZsGn28fVSq+BRW5d6ukpf/w9Df3icWYK+0Ohh7aouhddct7FeLNPY2GxOV9XYf74rxzX4tFPBP47rs+MD+axX+iDbiWE767+S64oWmHlYibx5QiKCCq2NDwdNnre8VfttYaqnK8Lh0GT6ejIOHSRcOgBnM+GX4acYl+zdeu2G/4N1PGUvL+YGwvzAWXxD5KcS/WJzznQBtwo95HnjeQrRVybpTjWjk2pCV2zvJ94o09DYZ7ooovBM43jugp1l80RDwysW+7qSJVeS+O0atqxsgS8eqUgeLuE/sY7pHx6l2DqKN5H1QIGtQoiWm8Ing5rcXxsKYUciAaIBFroA24sUN6o7McKIf6eNcJZYYU4+tMA+zNUDXpzB8vLpYAWnbuILFwQrkBglPhkkg1O9V05qBCOIEUG4EM38Uc7sMT+orTMZ8bD4b/hrp855pKwTln0gBoEz8EeMeW5cW9JtX3kI31m4E7LxsZ4PU9U/DcOra3OKVvQSxI4NeYn33qs9q41mPG1L5x3iBxWv+Cdi//fBi1DoXanCo6vGeeuAzRR1ItZ9/px3wfpqy+iMikeEKUY176M3/ealU+qbxAzME4nvHAmlLEAUsecDNwU9RidlU7BRLsgqGFsXEfJRSBW4E4WBXRT3gp1FSq1lbi1BH9mFNBVHPZz6lwCLHScejLL+COSWcR1biXY9xff1wtXjT5MU/HWHcitATWqyn1HNDA9ZDHdBNklA+NSyRakG9fXSG2IvsEX3YrDYX31HNnDbCVVGdDAl4FUHhNEwCymRjbMsxPRaPgeHHHcb0Nyas6T5X/p5jOehfTRbw31nMTDHFH4DpNqeeABq6HPJ4+slicALWR+aBIv4VUokGHzhZW4jTK05P6C6qrauhEr2BdPz6+t+jfapm21pPMPq3IlyOjBiWrHRG8ND4xRlhFjAP+E1wgtyOKiUSV+RK4S+opIhW3vD2mgesRPwmsiw6JGnlY5TuQRH/YUoOg9I4qMoH66Gn9EHtbEHccae7WYDg+3HNSH/OhpLf5IaAU5zSOGzoZY3UayY7prQY556NX7GuKzUlTOxgGjcPuY+SmXV3GngMauPb8cX32Uhh5juwV9SyigL0f0vY/NS1KFZlTPpRicbTUDm2y3EWQZByTdpbGI1Cf7dOK7Za+fEgRxrtFHcIPeT19lh/dXC0+bY0XpqHtC0OKRJl2zHDL3qTKaeAmxbb2F3Fsy/xQgwqjY1tK25XIWKFyxOcY8LZxvURhAsBha0Uo/3PMs1oD3tv3xH6PuasugcGJ49tEiB8OWo0nY5pIZWmmlZljXRlw/zUE6NM90v2nIZHe6LLkgAauB+8Bp1AoaaQEXfRJjdgKaauiBZjiMUcHqcqojhEEzCVFg1EyxPBaxtvOPtydimxtg6CfDmPWmF4dVWb6ND+NgHs51uXY+JS++cbHxlqP3veGAxq4HvDx3MGFgqlgSAx5o7RVxdUyzSrHl8l6GXGqhWNIeiolSmMxRv0mpKaMTkr0epbnfY4HIKXxzVwH82Ex4RydTfiROR/qcp+C9jEs5vJ6u3Mc0MDtHP8EpQsNN3LM+M/t9Ub2RVW112KqqLQ12EB13s2xXrj+ruPLEpJmtPJ+CePUeNZhN+2yDKd8GGTPGF0r1UHsLoU/877WFK9TAHImC1Cp1tZr9X7iHNDATZxn7a7geHEQXlASQ/Re342XV2FJpicVXQmTlbayUarjx/TOEzchTNANcSg9sX8PcQ2kLSVhZ+lsOJgwEyVjjK1Eh4zdrcAtQcO8Zwbga/KeA5qrneTpsUjvIuctOWf7GeY0mafYSlMxb9oZw5K5vmIMWGdhrOo0D8trRiHq5+soy3G1F0R1nR5S8mNlrpPxuZ9UtQjGG5P+Cx+MUq6NoslzDmjgdoKlVFsZYC4B+c7+JnEAycStRDWahiEmJbcjWmX/BYntRKxlMKT8nceVCSZRj0ccz16AsSb9jp2IUNsCgxqnsJzoDIyxhyv8kolXfry40BiJkrlES1wndiZ1XgM3KbZFLzoKYz2uFiChswbJyisViaMmIGMErbIK7bJd6w9vqhYXL90Tc2Zod9KyQ1WVEUSck1UR26L/83VH9XRsl9cTcLe+X2GsZEADkx1xjMvABNVHg9NCkgcMkOAqCrRoa/KWA5qlneAnpY40NtEveVN1s7GwlrXK07FYF8d8dkRpuwApUJlH+Ztv7bcrGjvHfMzMrsEgeCtx6ohzr4wHdqKDiBV+Cilh/4wIpn9iTnb5XmepfxyGCDJBgLl+WtVlFkjeMYMoVONh8zV6O3EOaOAmzrPYFYdgfR+pJnMdH04BqYTVaMx9OkXNEDTSqLUEy388B+u0ExEYBCj9ic1GL/bpHBiRVJE/1jrZX66W8Af4HFPSrj7QKN6Dyu9EnLeW6XjMZXci1I8fMXyHDOI0mQaumUPebGvgdoKP9A7q2SpJt9e1wFOqo18yx7d8ybksph0txIJbZpr11r6Yymk+bt2mR9WZSJt6OYLhSWxlDKzONyJSx0k1Z/kPoSJzoS+Ob0n8+KyGyr+1NXDAOKj4NxLBESrg0jDFj5jMp8XpsngRSIpq9SGXHNDAdckoVTGqqlKSbkfoHteftRJfcLpE2sGWqiod9c3EJS+vX3nAfCjuNsfPTKPKcEKqxnMw7mXUkRNRpWVWDkpcMzGr4yZYh+2I2gat6aqPAz2oZKaP4SU5WuLaMTLJcxq4STKOgOVqd1wDiEQpU68ALi3PDsJWrKtoVob+MbroL1vrHHvILnCce+u43sa6ulzMyw29urNB0D3TGnZI7YEr19sR1V+Occ0quizPNYckK3ICdp8seYX+TZQDGriJcqy1PF9HvpNOryWtzioXQXOzK+AiqSKOE7+zcr/Y7QAiXkupTuf+n51Y5krCUapyORGpIpvb34P2dtWrI5vM5fjBUOGSY1z5MaBU1jNCZq55s62BmyQfORViNro0YGwXinRUlVlG9XKbm7UbT3LV+OvfcacyU/qpLL3mtrjNqKXntteJZ5AmVkWUlnRhVDmSmMuzLdWUEC3krT4YxkfL6eNmrlNvu+OABq47PnUoRRWZEkdSlSFl5F7bb1+83E7OQzIcru2qti0CgONQBqx7RXTL5Orz0vKrqpf3Q/BqykwOaOAm+Vw4jjMvH8IMGNJQZa6Sai6K2tJBgMSOaOi5bVWFsdC1XTk35zYh3czjmG7yYqHsEL4qCiWj3fBBY9/NU0m8jAZu4jxL6ApOi9jDErmJHfyIKfdo/OJi150hqsgvIBDgScTOOhE1CifDEp1FOESwEnMtwyZnEK3jilky6yV6P0EOaOAmyDBZnNKW0ylyHFgCfVhlhNkP32VZRl5r/XUTI8txJ6dtHk1SZSa86BH1mw3Vjv3hCIBztE6+1eSBSqLSGBdsHdiz3x2hbeWA3k+UAxq4iXLMVJ6J4BpaxSkTuhUpkEsppxBKplqEOMEh26IszHliukWqLMGyTLzfzXDHXLK5VnwMVdmJaKHmagzmMbz1GlqNo+P6jrBk5BAuN2gHppakhdlah95PngMauMnzzpjrrGkdwDJHcrFiwpYpTDk9Ygfe45Ht0Q0RIlw9gCqzXX3WuqgZvLijASqy2opsLc/II6q7drQNDid00bT2gywgL6S3FMfSMszPrj59LjEOaOAmxq92pbfBQ0g61NMnt1hhPqbEpZSze3n5oo+Fm6Ib4piZK+f9zuIiGe9aAut9uDA+sLEq5s0Ur6w8TmeOwxVZLuR5/n4CCc4PkpWi0jon5phCHjkZ56x16H1nDmjgOvMoboltkH4y9pQGJs5rqpwtPjrY5AgaJmJzS7RC37O+SjBw3YkY2L8E4+K1lc4qsqzraARFjIT7pB3xY6SKPba6eG6GD7R0f7SrT59LjAMauInxq13pjfA+ovGJxFgDZsPopZC6K/Y2KVO1miu7EkngMLR0RVSZt2HsePvqynZTUtaLKe1f3RmN/LGei7fPONuTEAAvVd145dbhQ6BK9s4YYLp5kug2ybG1DDiIV5c+njgH7D+rideXVVcwvxIlymkACKN0GKNKa6wMz5PM4Jq4n8OF0C6YfjAk9rdGlRoLhMnr7H4pxagy01h1JjJHqky37BsXHDPPN9vVyXNnIbsFs1HaEWNu+adyHGHWi96tH69VUNGlRmJXnz6XOAc0cBPnWbsrmDliH6TusNxcI1VLX6QkZZpSMxE4/9hWb2RH5BgwHjHn8u/hHCEzSMQrJ49zjMmFt/jnBY3Dh+e8IYXKFQvM9TO9zmetYYDm4/RLHo2xurSu0wdbGu/M5fR25zkQ/y3qfN1ZUcPbWJ2dzhEkhtQdC1WRc7pW+it8g508pBgmuGhiX+uladmnz/FFSOHKAHw7opGNS4fSh9pKlNSDsZoDp5GoHr8JgEvjnbWs3u8cBzRwO8c/I1cTDTVSHf0CJNbAHh0VGeaj+jdA7mSoYd7i7x/jLvVqJ7seu5xAuwxZKJkw3Wls+/LnDeID3IvKqeQc5FLu3yP6Si3HvTLxHEYRmlLAAQ3cTjKVnkOvY6wppS6lzjAEmVundPn+/gwqrXX8q2r+pyeUiW/GSQKnKt+ZY+wns0DeMLrUmH+1q4tjWkYUqZw4mEKHjiQylQ9T7+xXTBfZ1a/PueeABq57XsUt+RqAux1TQyQapy4ZVqx0YKCx5llE+qiMOtbKf3NKH6yLW2Y97Ok+Je2FUI/vxoeCFnEn4uJeHLeqrMRMncOMjiQa7TgO1mqyE0eTP6+BmzzvYlfSBfFlOO/ToZ50CZakZGpSlcvg/647KHYA5E4aJOeDb0USOC5+7QZUsc643BgIK/YtY3qJ+04uN1KtOl3GMS1zU22ANdlKXGrkPENNjnpbPYFynD+m84em1HBAA9cjvj6B9KaftlpaOe3DsSotzFYiyOevrnAtjbjC+xvnDfRU+jK4nxkgKdHpteVEHA78Fuv9voQ5YW5bieNj5riCADe8qZ6BViE/Ytayet8bDmjgesNHY9z3CnI4HWhdN+jrGKNyiRCVJxVTxjysyPUUryucXhmtyJ0cr7zTcaq6dP7f06ohOJX/C8a1T8PPWWUVZ0bJSzE0kEuS/An3xphfFcCd2tHn3XNAA9c9rxxLPoSVCNbDvZEqIkP1rj+q1FixTnXhD7BqwDvI7OhGnQwjWv1fcOLwkqiuq9ReaxtcMvR+SFvmqLISDVtMyH5MWVTacpzP/MxOieas9ej9xDmggZs4z+JewekPhs5RmpHOxdTQl2H8UTldcFrowqW7BQ1WCu2zXRuUXrRce0ns4wZIRjt6B6C9bVVl3LZ5b5z3lffH8Tv9p918jOza1eecOaCB68yjhEo8jpSqnK+l5Zj+yz+EgSneYtD09f3Sa7uNhbDtGuEU0mp4aHlJuxFI/DGkaLyPBqXxTzB99QrGtaoyXD/o+qNLjUXP2C+W4zKbbr2+vLyXbKxLA9fjp85g9zvWVIp1rZKHEUN3YbqFCcRpvLES1covvLLbWD3Aeo77lF70zvJaijG4nZZfht1Z6S20x8ySTFKnAi3XQbp1XC9j/VveEy3Ov1hXhbWTOtZlrVvve8MBDVxv+NiulvWInOGLLFXm8QiU//mJfeLmlmLupgnP7xS//KiqXT3cIXBe29V+pYEOhZI8wNUXGOgviV5Of0Y+qqvf3m9Mb6k+FjS23YhppPMx/cPkeDR0/fTDg8bHReVNJevWv95yQAPXW37GansS00OPfVobCzbntA6DCJgSRkV0mbwBUm7q63uM9XtkGcMwBWeGVBBDA6WBitM3P/mwUlzz9j5jPSFVe5yXnoulTri0JzUJflQe2lQj/grJzGVUNKWPA+q3KH3t+7YlvtR3Y4xIdZNxsSS+8PMBXukWaBy0/KPEO+7vO2LSl6o0Y19TQQQrA+z5kfnSa3vEnWviu2RSJb72yFJxo8k18lksj/Kbj6uU6nYq+qvrbONA27Br8Zbo29V2Tm95wAFOCz1yWl/Ds0g68DPtzA+RJ5lzvnZMHws3xAuHFoofQxVNFVH15UugcmOUbTLb47cxtfUdGKOYj4rEpOrMffW+iyU5ZT36t5McmDEihtfYhtDA7SRX41/OjBCPIFyPkUMSvLTCTntjn6MTBB+QHbjjt+rNGS4T+j+IVroG0laq+UwTezu8v5jLSjUO9qZlXUsHDpiAq1XlDtzx/gA9jqa/uVf8ESqpDP87G/OfS6cMdMw20ZWgpcRnfPBNMEYRtOzLM1CPb3rvgHgXklaD1vt3xW2NbcANiGVuL9LlEucAF4z+1vL9GBNWx/yUmS3i5XMGiO9CBVUtnpV4K95cQV/mS+HL/ChU/KnwQ6b1mMN0Lr59M0BLq7mmruVAG3Aj4vWu7Yr/W+c48ha8+NdgukXG7xIk947vI5aeO1AwEL2riZFID5xaLhZOKDfia6mq0z3y++g3x+VerDnU1ffYLdu3CNY24Ia1xE3HA6V6ySCD01/YacS2ynV1TulbIF46e4D4w+n9EGmT2yEQP5V94wIMDEO8HQtj/+OsAWLW4SWGrzWl7GqMY+eu2C/uwxyzKqtjKvul6zZxwCJYO+ZYMZXVm6njABPKnfPybvFVqKLMeCENP1cgIP2LsCS/ibxOP4PvLzM5porokslxLIFKv+MhSOrOwAESE+D9bmONeBDqMed79Xg2ypdM+d/6mFq7s2TLUlggJmVK57KlH4zfvQfqMoPRmUHDTHSQ4Fq2zCjBIAbV6gHm8k7btBIPR1K7U/sViCtGlIgzBhS0Cz2kIW0Z2mLCdbapKUM4YLIos0ftgfvIlkkiKJZmSFezqhuUdFw4jA4aM7GqARe7kw8HGqvhxFEBKfgBgg1o2WVUEYPyGczANWpZJmJarJar5bEOjqH5YWCSc46hJwKwXMu3BGliKXFJvJbWbk7z3AvAvrc/GiRhnNT/MoEDC8SMEfPNHZHvRtuxxVtYYF7bAb2Vbg6MQuQNs0pw3peSseNDivaIluqdSLTOpOPRBbQJQayqALDS8aMP/voBtPxVEbBqJABgLikGy69EfLBeWU/FqS491gG07I36ndAqc5c+Kflg6NV0RGmu4bU0BdKyHAAsNknKRDtJY1M9rGF7EdL3NmJtuTI91eE6IFiPYRPlZprKW1Rk2araOBUSCwQ92/R4V/Ip7b+UnZw+op8yp484l8oUqEdAGh8BqzNX0xvbG4tzYZveWNbFsekfXQXHf047McSQ9TASiEYxhvOp0tCk/SZ1g/YcCIvJ8QqoJa4srdVmyYmM/uX4mIEL/CVFJWvE1v84WlL/z0gOcM6WwnPWiGXx+mcPXF4VBS+35vGfJs0BzYEUccAFYGXLzsCVJfnbBmKOjs8wn+rSba3Sdyn7u13jFi+kLu0/HSuk85ONhLX2MTHgWq/OlH09jZUpT6I79ENppe0OHTf3UT1PYC7RHbYT+FJ1h9vRfUwhB6R0S2ET6ajaH8AlpzJJ/UnHk9NtJMcBn3zk/QNcWuE0aQ7Yc8A374g/xrjyYWnHEckJ/WvlADWy6SMmWw93133/SFw+AS11u+t7mPp+W8LiUt9galvwl8Qlr7SFObVvTPes3ReWZDPr/SVxeWdR44NvxjLmh6W3k+KA70BLLvhP4spnq901JSey+deXoOUD9S9weXcavORCtpJvQcsH6m/gyldWA1hywv+/Cfj7dmdmZAdw5RMigOljrX2bJUf88Sudbxwiavxxs9G7yC7gmp9cVApLLmROwIS5j3o7PgeSdM6PX6E+ozmgOaA5oDmgOaA5oDlg5cD/A+qplueDZ5IZAAAAAElFTkSuQmCC;aspect=fixed;" parent="afDIatIIUUOGtq9c_muA-3" vertex="1">
          <mxGeometry x="519" y="42.99999999999999" width="50" height="27.73" as="geometry" />
        </mxCell>
        <mxCell id="JfFE76ZaCVtJRvMq8Mvy-2" value="accept-ride-process-api" style="shape=image;verticalLabelPosition=bottom;verticalAlign=top;imageAspect=0;image=data:image/png,iVBORw0KGgoAAAANSUhEUgAAAO4AAACECAYAAACXgRceAAAAAXNSR0IArs4c6QAAAIRlWElmTU0AKgAAAAgABQESAAMAAAABAAEAAAEaAAUAAAABAAAASgEbAAUAAAABAAAAUgEoAAMAAAABAAIAAIdpAAQAAAABAAAAWgAAAAAAAAFKAAAAAQAAAUoAAAABAAOgAQADAAAAAQABAACgAgAEAAAAAQAAAO6gAwAEAAAAAQAAAIQAAAAAyiTvzQAAAAlwSFlzAAAywAAAMsABKGRa2wAAIsdJREFUeAHtXQmYFNW1vt2zMQsDw7CDIKKoILiigs8nuKDGxKgRoxLZkhDFaGJc8mL8BKKJMcnTxJcYg4qCMYkao1mMu2A0IriACIggEllkZ4bZt+5+/189t6em5nZVdU91T0/1Pd8307XcuvfWqfrrnHvuOecKoUlzQHOg23Eg0O163M07PGfOnLyWlpZ+gUCg4eGHH67A7US6wy1dddVVxQWBgpGhSKgskhPhe7Ortrb206eeeqqpO/Tfb30M+u2GMv1+GhoaSkVYXB5piVwxffr0I+bOnVuS4X0OXHnllWU5OTlnhgKhB0RQvIJPzVJ8eG4pLy/vneF99233cn17Zxl6Y/n5+bnhlvDYsAhPDwaCO+tr61fNnjn7XwDES7m5uesXLlzYnCldnz179mAREl9EX78CsJ4cEREN1Ax5OBq4XfcgqO0MARiGRCKRCwCQBU3hprUAyxPhcPglAHxrRUVFPVRRAjkt6vTUqVNz+vXrV1hXVzcCEvWr6Mc0tD0Mf1ozAxMyiTRw0/w0ANJmwGB3IBRoAWgl/zlmLAQ8x4dD4fHYrm1uav6kuLh41cyZM98PhoPvNoYa1z3++ONVXnd3/vz5wa1btw5Ev8YHIoEJdbV1E9DGOOzHla4BEWhB2T3Nzc0tXvdH1+eOA9o45Y5PXpYKTJs2rSckKgFyUyQcOQO/BLDyWRAkONeAv12Qgi/miJzFJbUla+958p4G7CcliQnWPXv2FNXX15+M+r8ByToJ9ZfhLx9/SukKIEeCwWAjevkyPjr3osfvLlq0qAblk+oDrtPUCQ4oX5ZO1KcvTYADN9xwQyHU4ZOAiSsAoMm4dCT+8uyqMIAcEGsgrf8OIL0Cqbfqscceq7W7pvVcYO7UucX1JfUnQlpOQZsXAoSjiUeHa6vxgViPdl+NBCJP79q1a93zzz/f6HCNPp1iDmjgppjBbqrH2DIfavFgAJGAuhpS+HgX11HSVQSCgQ8ArDuGDRv2BiSpUnXF8Vyow6dDsi6AfDwG11ENtn32qPMgyv4dYF0C7WDVxo0bK5ctW6as30VfdRGPOWD78DxuS1fnggNQo0sBlPMB4KsAnBMh6fqaxsLxaggDaI8BissBznbgwvG8oAhODEfCX8PFds87hLYqANSNKP9cbiT3iYWLF26O16A+3rUcsHuQXduzLG+dAC4IFowKB8JnAW5TwY6x+OMY1GuqR/2rUOmz+HsDwN+0ZMmSA9jWY1evOe1hfRq4HjIzRVUFoErn9ezZ82SAajrGp5MhgftDOha5kMTWLhGM9HSqgSTejuv/BseKJ6uqqj7CtFPIWljvZy4HNHAz99koe3b11Vf3h/fVaAD4aIDvaIBvFGTjMEjNQVCvS3EsZmzCPoFK49IWlKPauwGH1uZF8tY1Rho3uzRqKfuhD3YtBzRw08R/SM1CSM3TIDVnQVo2BHOC927evHlDZww+dJgYOHBgbmVlZW5eXl4wWB8saspr6gUjVxH+Io2Njftxe1UwfLXAet0yZsyYFhiqwgnecgD+1bktDS0nYaJoDryoDsGH4DPU8SZ+X4S3195M8vZK8N66bXEN3NQ/ugCcKIYDrPMh7WggymltshK/L8Aq/DTU1bcffPDBHQBCxowr+VEA4A8JRoKnRYKRr8DSPRn9tTplVEHS/xPHF8GgtkwDuPXJpuFHAzfFTAYASkqKS14EaOlwYeU3gdqAo58BtP8AgBc99NBDH6W4S7bV0zkDU0dj0d9vAKzno/Bg/PXAn7Xv5noOQoO4o7q6+pd6rGxmS+q27R5G6lrNoppnzZr1cwDgJpe3XAsArwBEngmGgisbw43bioqK9qVSkuHDkl9YWNgPH43hkVDkVLR/MdqnUwjB6ppwXRhaxdcXPbroUdcX6YJJc0ADN2nWOV84Y8aMkXihP4TxqNC5dLsStPBSld4BMGwI5ARWAkjLWRfcDKvblUxi57rrriutqak5HgauCRiz0kd5FIxXQ1BVL/zFjFtJVF3R3NI8Dj7V25O4Vl+SAAekk3sCl+iibjmQF8y7HIHnhQCF20tkOY6Dy/mHa8dBEl5GRRWSu3bWzFmf4PhqgI0fhE/DwfB2SMuKQFMgFMmPhOECGYGhKhAKhQI4novfvgD8UMQAH4brOBd8XHVV9Sj85st+yV8c6xShnTKMdWejkh91qiJ9sSMHNHAdWZR8AYD2HEjK5CswXxmtphj1HYvDxxpgo76E46GWUBPkZLNoEc2I8Q0hwigHwM7F8QKUyPOsD+b+KLbZDryupuCUBq6CP14e0sD1kpsd66KESwfRo4p/BqULqLI98y++GhPN+3o7NRwIpqZaXSs5AAD1yTZOQF3WdpM0PHQN3DQwWTehOeA1BzRwveaork9zIA0c0MBNA5N1E5oDXnNAA9drjur6NAfSwAEN3DQwWTehOeA1BzRwveaork9zIA0c0MBNA5N1E5oDXnNAA9drjur6NAfSwAEN3DQwWTehOeA1B7Lb5fGRLZO8Zqi5vl0fLDbvZs92ivkaY+SsEcti21m2kV3uaXyhgmISIm3OgHP+pCx71n6+3QWIflomsgjI2QFcAjZHzNNg9TN2Y/e2QMwYMT+259MN/wN3yZalGrA+fXvj35bvwetf4GopG/+1zpYzYTHZr+qzP4EbHcsuzZb3U9+nLQd8KX39OR0UFBq0tu9yVp2cJ/gh9xn5D7gc02rSHDBzwIcfcn+pyou3zMfzmmd+Zn7c5kPLCwZET6zDV5IXEEU5AYFd/AZFPtLMVTQhd2MEiwThX3VzRFQ1h0VjCAeymQKYLpo+YrJfWOA34Pr67SzODYghRbmiX4+gOAS/R/bKEyN75hrHgF8xtDhX9MkPitUVTaIZoCWAPz7YLD7C37bakNjXGBI760PiII77mlHx0OkjY5V/PKei0jbeI+uWx/lVLYA0/e8BPcRXDy3GbwGAmSMI4Hwcj/fVPQPlzUSQEsh1LRGANyze398onvhPrVi2q8EAd9aAmHP5ApLXBxTv2Xe/W1uMBel8QvnQe88c2ENcMLRIfGV4kRhUKJcb8vYGP4f0fWFHvfjbtjrx1t5Gsbch5G0DmVjbjBG+eOd9cROG1dAHBohCSNHJAOx9J5eLYcU5xjjW+u5TctZjvMq/XQAe1eCNVUipjDX4qArXYEw7oiTXkMj9CoJibFm+GI59joN74I8S3PzQ+bVrQZ2fVLeIBzZWiz9uqRX7UQ8O+ZN8oi6bn6G7B5WJpnX6H3dzo9TcI3uK2Yf3FCeWx9Ijx54HMfTOvkbx0uf14r0DTWIjwLqjdawaK2SzQdV6IKT2iJI8cUKffHHWoB7ilH4FoheMW2ai/epjfAQe21wjfv9pjdhe50MJTCNVSCww33eXbyfhY+0OuNoLKSXPlpbgo2Fguv+UcmMca24Ew1EYlFrE81Bl71l/UGyGRPSShsK4Ne2wYmPsfDgMXLRQm+ltqM53rT0oXsbHgtJdU4o5wA9KRLzu1s/aHrgasCl7WrlA7b0nlYkrR5SIPlBpzUT193vvHhArAZ4DsACnivjwSwDY4yGFrx7VU1w8rMhQp2V7nEb682d14hfrDhoquTyuf1POAUdvr/jAzZI50ZQ/AkUDoyFl/w/j2EkYz1LqSvqwskn8ZM1B8SdYfNNNGPoKWqOvP7rUGGeXmiTwcnxAfvRBpXgNVmjODWtKCwdswWt6bUyd0aA1McPbzUuHF4t7x/fB3GtOzEhEg9NtqyvF/RuqRA115C4kGrAoeb9/TC8xDoYt+YLsgcV5Hvr4OIxX1ZDEmtLAARunkY7zDBq0KXsiVEcJ2gEwFElAUJpdsmyPoZKmUCt2fU/8bqytbDYMYQTxkaV5hiW6OBcWwIHRZX7XQ5Wv7eIPjOsb6t4FDxUXfzcgnv3VMuttyPen7biP5kPbbqprtzgve+PoUnEzpFgZPJtIlLIPbaoRN793IGNBUIB+XwNr9w3o+yHwyuLLQjsVjWW/+qhK7PCj1dl4Ohn2TzGF1V7iRqXtpAzrdrfvzrxje4vvjW4DbSNAe+2KA+JuWG0bMthiy66thJcVjWV0r6S7Jcfkp/brYcwxr8WYvArzxppSzIGgOFQ886vF5lbamzO7+Vyo+cYyYZsGn28fVSq+BRW5d6ukpf/w9Df3icWYK+0Ohh7aouhddct7FeLNPY2GxOV9XYf74rxzX4tFPBP47rs+MD+axX+iDbiWE767+S64oWmHlYibx5QiKCCq2NDwdNnre8VfttYaqnK8Lh0GT6ejIOHSRcOgBnM+GX4acYl+zdeu2G/4N1PGUvL+YGwvzAWXxD5KcS/WJzznQBtwo95HnjeQrRVybpTjWjk2pCV2zvJ94o09DYZ7ooovBM43jugp1l80RDwysW+7qSJVeS+O0atqxsgS8eqUgeLuE/sY7pHx6l2DqKN5H1QIGtQoiWm8Ing5rcXxsKYUciAaIBFroA24sUN6o7McKIf6eNcJZYYU4+tMA+zNUDXpzB8vLpYAWnbuILFwQrkBglPhkkg1O9V05qBCOIEUG4EM38Uc7sMT+orTMZ8bD4b/hrp855pKwTln0gBoEz8EeMeW5cW9JtX3kI31m4E7LxsZ4PU9U/DcOra3OKVvQSxI4NeYn33qs9q41mPG1L5x3iBxWv+Cdi//fBi1DoXanCo6vGeeuAzRR1ItZ9/px3wfpqy+iMikeEKUY176M3/ealU+qbxAzME4nvHAmlLEAUsecDNwU9RidlU7BRLsgqGFsXEfJRSBW4E4WBXRT3gp1FSq1lbi1BH9mFNBVHPZz6lwCLHScejLL+COSWcR1biXY9xff1wtXjT5MU/HWHcitATWqyn1HNDA9ZDHdBNklA+NSyRakG9fXSG2IvsEX3YrDYX31HNnDbCVVGdDAl4FUHhNEwCymRjbMsxPRaPgeHHHcb0Nyas6T5X/p5jOehfTRbw31nMTDHFH4DpNqeeABq6HPJ4+slicALWR+aBIv4VUokGHzhZW4jTK05P6C6qrauhEr2BdPz6+t+jfapm21pPMPq3IlyOjBiWrHRG8ND4xRlhFjAP+E1wgtyOKiUSV+RK4S+opIhW3vD2mgesRPwmsiw6JGnlY5TuQRH/YUoOg9I4qMoH66Gn9EHtbEHccae7WYDg+3HNSH/OhpLf5IaAU5zSOGzoZY3UayY7prQY556NX7GuKzUlTOxgGjcPuY+SmXV3GngMauPb8cX32Uhh5juwV9SyigL0f0vY/NS1KFZlTPpRicbTUDm2y3EWQZByTdpbGI1Cf7dOK7Za+fEgRxrtFHcIPeT19lh/dXC0+bY0XpqHtC0OKRJl2zHDL3qTKaeAmxbb2F3Fsy/xQgwqjY1tK25XIWKFyxOcY8LZxvURhAsBha0Uo/3PMs1oD3tv3xH6PuasugcGJ49tEiB8OWo0nY5pIZWmmlZljXRlw/zUE6NM90v2nIZHe6LLkgAauB+8Bp1AoaaQEXfRJjdgKaauiBZjiMUcHqcqojhEEzCVFg1EyxPBaxtvOPtydimxtg6CfDmPWmF4dVWb6ND+NgHs51uXY+JS++cbHxlqP3veGAxq4HvDx3MGFgqlgSAx5o7RVxdUyzSrHl8l6GXGqhWNIeiolSmMxRv0mpKaMTkr0epbnfY4HIKXxzVwH82Ex4RydTfiROR/qcp+C9jEs5vJ6u3Mc0MDtHP8EpQsNN3LM+M/t9Ub2RVW112KqqLQ12EB13s2xXrj+ruPLEpJmtPJ+CePUeNZhN+2yDKd8GGTPGF0r1UHsLoU/877WFK9TAHImC1Cp1tZr9X7iHNDATZxn7a7geHEQXlASQ/Re342XV2FJpicVXQmTlbayUarjx/TOEzchTNANcSg9sX8PcQ2kLSVhZ+lsOJgwEyVjjK1Eh4zdrcAtQcO8Zwbga/KeA5qrneTpsUjvIuctOWf7GeY0mafYSlMxb9oZw5K5vmIMWGdhrOo0D8trRiHq5+soy3G1F0R1nR5S8mNlrpPxuZ9UtQjGG5P+Cx+MUq6NoslzDmjgdoKlVFsZYC4B+c7+JnEAycStRDWahiEmJbcjWmX/BYntRKxlMKT8nceVCSZRj0ccz16AsSb9jp2IUNsCgxqnsJzoDIyxhyv8kolXfry40BiJkrlES1wndiZ1XgM3KbZFLzoKYz2uFiChswbJyisViaMmIGMErbIK7bJd6w9vqhYXL90Tc2Zod9KyQ1WVEUSck1UR26L/83VH9XRsl9cTcLe+X2GsZEADkx1xjMvABNVHg9NCkgcMkOAqCrRoa/KWA5qlneAnpY40NtEveVN1s7GwlrXK07FYF8d8dkRpuwApUJlH+Ztv7bcrGjvHfMzMrsEgeCtx6ohzr4wHdqKDiBV+Cilh/4wIpn9iTnb5XmepfxyGCDJBgLl+WtVlFkjeMYMoVONh8zV6O3EOaOAmzrPYFYdgfR+pJnMdH04BqYTVaMx9OkXNEDTSqLUEy388B+u0ExEYBCj9ic1GL/bpHBiRVJE/1jrZX66W8Af4HFPSrj7QKN6Dyu9EnLeW6XjMZXci1I8fMXyHDOI0mQaumUPebGvgdoKP9A7q2SpJt9e1wFOqo18yx7d8ybksph0txIJbZpr11r6Yymk+bt2mR9WZSJt6OYLhSWxlDKzONyJSx0k1Z/kPoSJzoS+Ob0n8+KyGyr+1NXDAOKj4NxLBESrg0jDFj5jMp8XpsngRSIpq9SGXHNDAdckoVTGqqlKSbkfoHteftRJfcLpE2sGWqiod9c3EJS+vX3nAfCjuNsfPTKPKcEKqxnMw7mXUkRNRpWVWDkpcMzGr4yZYh+2I2gat6aqPAz2oZKaP4SU5WuLaMTLJcxq4STKOgOVqd1wDiEQpU68ALi3PDsJWrKtoVob+MbroL1vrHHvILnCce+u43sa6ulzMyw29urNB0D3TGnZI7YEr19sR1V+Occ0quizPNYckK3ICdp8seYX+TZQDGriJcqy1PF9HvpNOryWtzioXQXOzK+AiqSKOE7+zcr/Y7QAiXkupTuf+n51Y5krCUapyORGpIpvb34P2dtWrI5vM5fjBUOGSY1z5MaBU1jNCZq55s62BmyQfORViNro0YGwXinRUlVlG9XKbm7UbT3LV+OvfcacyU/qpLL3mtrjNqKXntteJZ5AmVkWUlnRhVDmSmMuzLdWUEC3krT4YxkfL6eNmrlNvu+OABq47PnUoRRWZEkdSlSFl5F7bb1+83E7OQzIcru2qti0CgONQBqx7RXTL5Orz0vKrqpf3Q/BqykwOaOAm+Vw4jjMvH8IMGNJQZa6Sai6K2tJBgMSOaOi5bVWFsdC1XTk35zYh3czjmG7yYqHsEL4qCiWj3fBBY9/NU0m8jAZu4jxL6ApOi9jDErmJHfyIKfdo/OJi150hqsgvIBDgScTOOhE1CifDEp1FOESwEnMtwyZnEK3jilky6yV6P0EOaOAmyDBZnNKW0ylyHFgCfVhlhNkP32VZRl5r/XUTI8txJ6dtHk1SZSa86BH1mw3Vjv3hCIBztE6+1eSBSqLSGBdsHdiz3x2hbeWA3k+UAxq4iXLMVJ6J4BpaxSkTuhUpkEsppxBKplqEOMEh26IszHliukWqLMGyTLzfzXDHXLK5VnwMVdmJaKHmagzmMbz1GlqNo+P6jrBk5BAuN2gHppakhdlah95PngMauMnzzpjrrGkdwDJHcrFiwpYpTDk9Ygfe45Ht0Q0RIlw9gCqzXX3WuqgZvLijASqy2opsLc/II6q7drQNDid00bT2gywgL6S3FMfSMszPrj59LjEOaOAmxq92pbfBQ0g61NMnt1hhPqbEpZSze3n5oo+Fm6Ib4piZK+f9zuIiGe9aAut9uDA+sLEq5s0Ur6w8TmeOwxVZLuR5/n4CCc4PkpWi0jon5phCHjkZ56x16H1nDmjgOvMoboltkH4y9pQGJs5rqpwtPjrY5AgaJmJzS7RC37O+SjBw3YkY2L8E4+K1lc4qsqzraARFjIT7pB3xY6SKPba6eG6GD7R0f7SrT59LjAMauInxq13pjfA+ovGJxFgDZsPopZC6K/Y2KVO1miu7EkngMLR0RVSZt2HsePvqynZTUtaLKe1f3RmN/LGei7fPONuTEAAvVd145dbhQ6BK9s4YYLp5kug2ybG1DDiIV5c+njgH7D+rideXVVcwvxIlymkACKN0GKNKa6wMz5PM4Jq4n8OF0C6YfjAk9rdGlRoLhMnr7H4pxagy01h1JjJHqky37BsXHDPPN9vVyXNnIbsFs1HaEWNu+adyHGHWi96tH69VUNGlRmJXnz6XOAc0cBPnWbsrmDliH6TusNxcI1VLX6QkZZpSMxE4/9hWb2RH5BgwHjHn8u/hHCEzSMQrJ49zjMmFt/jnBY3Dh+e8IYXKFQvM9TO9zmetYYDm4/RLHo2xurSu0wdbGu/M5fR25zkQ/y3qfN1ZUcPbWJ2dzhEkhtQdC1WRc7pW+it8g508pBgmuGhiX+uladmnz/FFSOHKAHw7opGNS4fSh9pKlNSDsZoDp5GoHr8JgEvjnbWs3u8cBzRwO8c/I1cTDTVSHf0CJNbAHh0VGeaj+jdA7mSoYd7i7x/jLvVqJ7seu5xAuwxZKJkw3Wls+/LnDeID3IvKqeQc5FLu3yP6Si3HvTLxHEYRmlLAAQ3cTjKVnkOvY6wppS6lzjAEmVundPn+/gwqrXX8q2r+pyeUiW/GSQKnKt+ZY+wns0DeMLrUmH+1q4tjWkYUqZw4mEKHjiQylQ9T7+xXTBfZ1a/PueeABq57XsUt+RqAux1TQyQapy4ZVqx0YKCx5llE+qiMOtbKf3NKH6yLW2Y97Ok+Je2FUI/vxoeCFnEn4uJeHLeqrMRMncOMjiQa7TgO1mqyE0eTP6+BmzzvYlfSBfFlOO/ToZ50CZakZGpSlcvg/647KHYA5E4aJOeDb0USOC5+7QZUsc643BgIK/YtY3qJ+04uN1KtOl3GMS1zU22ANdlKXGrkPENNjnpbPYFynD+m84em1HBAA9cjvj6B9KaftlpaOe3DsSotzFYiyOevrnAtjbjC+xvnDfRU+jK4nxkgKdHpteVEHA78Fuv9voQ5YW5bieNj5riCADe8qZ6BViE/Ytayet8bDmjgesNHY9z3CnI4HWhdN+jrGKNyiRCVJxVTxjysyPUUryucXhmtyJ0cr7zTcaq6dP7f06ohOJX/C8a1T8PPWWUVZ0bJSzE0kEuS/An3xphfFcCd2tHn3XNAA9c9rxxLPoSVCNbDvZEqIkP1rj+q1FixTnXhD7BqwDvI7OhGnQwjWv1fcOLwkqiuq9ReaxtcMvR+SFvmqLISDVtMyH5MWVTacpzP/MxOieas9ej9xDmggZs4z+JewekPhs5RmpHOxdTQl2H8UTldcFrowqW7BQ1WCu2zXRuUXrRce0ns4wZIRjt6B6C9bVVl3LZ5b5z3lffH8Tv9p918jOza1eecOaCB68yjhEo8jpSqnK+l5Zj+yz+EgSneYtD09f3Sa7uNhbDtGuEU0mp4aHlJuxFI/DGkaLyPBqXxTzB99QrGtaoyXD/o+qNLjUXP2C+W4zKbbr2+vLyXbKxLA9fjp85g9zvWVIp1rZKHEUN3YbqFCcRpvLES1covvLLbWD3Aeo77lF70zvJaijG4nZZfht1Z6S20x8ySTFKnAi3XQbp1XC9j/VveEy3Ov1hXhbWTOtZlrVvve8MBDVxv+NiulvWInOGLLFXm8QiU//mJfeLmlmLupgnP7xS//KiqXT3cIXBe29V+pYEOhZI8wNUXGOgviV5Of0Y+qqvf3m9Mb6k+FjS23YhppPMx/cPkeDR0/fTDg8bHReVNJevWv95yQAPXW37GansS00OPfVobCzbntA6DCJgSRkV0mbwBUm7q63uM9XtkGcMwBWeGVBBDA6WBitM3P/mwUlzz9j5jPSFVe5yXnoulTri0JzUJflQe2lQj/grJzGVUNKWPA+q3KH3t+7YlvtR3Y4xIdZNxsSS+8PMBXukWaBy0/KPEO+7vO2LSl6o0Y19TQQQrA+z5kfnSa3vEnWviu2RSJb72yFJxo8k18lksj/Kbj6uU6nYq+qvrbONA27Br8Zbo29V2Tm95wAFOCz1yWl/Ds0g68DPtzA+RJ5lzvnZMHws3xAuHFoofQxVNFVH15UugcmOUbTLb47cxtfUdGKOYj4rEpOrMffW+iyU5ZT36t5McmDEihtfYhtDA7SRX41/OjBCPIFyPkUMSvLTCTntjn6MTBB+QHbjjt+rNGS4T+j+IVroG0laq+UwTezu8v5jLSjUO9qZlXUsHDpiAq1XlDtzx/gA9jqa/uVf8ESqpDP87G/OfS6cMdMw20ZWgpcRnfPBNMEYRtOzLM1CPb3rvgHgXklaD1vt3xW2NbcANiGVuL9LlEucAF4z+1vL9GBNWx/yUmS3i5XMGiO9CBVUtnpV4K95cQV/mS+HL/ChU/KnwQ6b1mMN0Lr59M0BLq7mmruVAG3Aj4vWu7Yr/W+c48ha8+NdgukXG7xIk947vI5aeO1AwEL2riZFID5xaLhZOKDfia6mq0z3y++g3x+VerDnU1ffYLdu3CNY24Ia1xE3HA6V6ySCD01/YacS2ynV1TulbIF46e4D4w+n9EGmT2yEQP5V94wIMDEO8HQtj/+OsAWLW4SWGrzWl7GqMY+eu2C/uwxyzKqtjKvul6zZxwCJYO+ZYMZXVm6njABPKnfPybvFVqKLMeCENP1cgIP2LsCS/ibxOP4PvLzM5porokslxLIFKv+MhSOrOwAESE+D9bmONeBDqMed79Xg2ypdM+d/6mFq7s2TLUlggJmVK57KlH4zfvQfqMoPRmUHDTHSQ4Fq2zCjBIAbV6gHm8k7btBIPR1K7U/sViCtGlIgzBhS0Cz2kIW0Z2mLCdbapKUM4YLIos0ftgfvIlkkiKJZmSFezqhuUdFw4jA4aM7GqARe7kw8HGqvhxFEBKfgBgg1o2WVUEYPyGczANWpZJmJarJar5bEOjqH5YWCSc46hJwKwXMu3BGliKXFJvJbWbk7z3AvAvrc/GiRhnNT/MoEDC8SMEfPNHZHvRtuxxVtYYF7bAb2Vbg6MQuQNs0pw3peSseNDivaIluqdSLTOpOPRBbQJQayqALDS8aMP/voBtPxVEbBqJABgLikGy69EfLBeWU/FqS491gG07I36ndAqc5c+Kflg6NV0RGmu4bU0BdKyHAAsNknKRDtJY1M9rGF7EdL3NmJtuTI91eE6IFiPYRPlZprKW1Rk2araOBUSCwQ92/R4V/Ip7b+UnZw+op8yp484l8oUqEdAGh8BqzNX0xvbG4tzYZveWNbFsekfXQXHf047McSQ9TASiEYxhvOp0tCk/SZ1g/YcCIvJ8QqoJa4srdVmyYmM/uX4mIEL/CVFJWvE1v84WlL/z0gOcM6WwnPWiGXx+mcPXF4VBS+35vGfJs0BzYEUccAFYGXLzsCVJfnbBmKOjs8wn+rSba3Sdyn7u13jFi+kLu0/HSuk85ONhLX2MTHgWq/OlH09jZUpT6I79ENppe0OHTf3UT1PYC7RHbYT+FJ1h9vRfUwhB6R0S2ET6ajaH8AlpzJJ/UnHk9NtJMcBn3zk/QNcWuE0aQ7Yc8A374g/xrjyYWnHEckJ/WvlADWy6SMmWw93133/SFw+AS11u+t7mPp+W8LiUt9galvwl8Qlr7SFObVvTPes3ReWZDPr/SVxeWdR44NvxjLmh6W3k+KA70BLLvhP4spnq901JSey+deXoOUD9S9weXcavORCtpJvQcsH6m/gyldWA1hywv+/Cfj7dmdmZAdw5RMigOljrX2bJUf88Sudbxwiavxxs9G7yC7gmp9cVApLLmROwIS5j3o7PgeSdM6PX6E+ozmgOaA5oDmgOaA5oDlg5cD/A+qplueDZ5IZAAAAAElFTkSuQmCC;aspect=fixed;" parent="afDIatIIUUOGtq9c_muA-3" vertex="1">
          <mxGeometry x="335" y="42.99999999999999" width="50" height="27.73" as="geometry" />
        </mxCell>
        <mxCell id="afDIatIIUUOGtq9c_muA-32" value="finish-ride-process-api" style="shape=image;verticalLabelPosition=bottom;verticalAlign=top;imageAspect=0;image=data:image/png,iVBORw0KGgoAAAANSUhEUgAAAO4AAACECAYAAACXgRceAAAAAXNSR0IArs4c6QAAAIRlWElmTU0AKgAAAAgABQESAAMAAAABAAEAAAEaAAUAAAABAAAASgEbAAUAAAABAAAAUgEoAAMAAAABAAIAAIdpAAQAAAABAAAAWgAAAAAAAAFKAAAAAQAAAUoAAAABAAOgAQADAAAAAQABAACgAgAEAAAAAQAAAO6gAwAEAAAAAQAAAIQAAAAAyiTvzQAAAAlwSFlzAAAywAAAMsABKGRa2wAAIsdJREFUeAHtXQmYFNW1vt2zMQsDw7CDIKKoILiigs8nuKDGxKgRoxLZkhDFaGJc8mL8BKKJMcnTxJcYg4qCMYkao1mMu2A0IriACIggEllkZ4bZt+5+/189t6em5nZVdU91T0/1Pd8307XcuvfWqfrrnHvuOecKoUlzQHOg23Eg0O163M07PGfOnLyWlpZ+gUCg4eGHH67A7US6wy1dddVVxQWBgpGhSKgskhPhe7Ortrb206eeeqqpO/Tfb30M+u2GMv1+GhoaSkVYXB5piVwxffr0I+bOnVuS4X0OXHnllWU5OTlnhgKhB0RQvIJPzVJ8eG4pLy/vneF99233cn17Zxl6Y/n5+bnhlvDYsAhPDwaCO+tr61fNnjn7XwDES7m5uesXLlzYnCldnz179mAREl9EX78CsJ4cEREN1Ax5OBq4XfcgqO0MARiGRCKRCwCQBU3hprUAyxPhcPglAHxrRUVFPVRRAjkt6vTUqVNz+vXrV1hXVzcCEvWr6Mc0tD0Mf1ozAxMyiTRw0/w0ANJmwGB3IBRoAWgl/zlmLAQ8x4dD4fHYrm1uav6kuLh41cyZM98PhoPvNoYa1z3++ONVXnd3/vz5wa1btw5Ev8YHIoEJdbV1E9DGOOzHla4BEWhB2T3Nzc0tXvdH1+eOA9o45Y5PXpYKTJs2rSckKgFyUyQcOQO/BLDyWRAkONeAv12Qgi/miJzFJbUla+958p4G7CcliQnWPXv2FNXX15+M+r8ByToJ9ZfhLx9/SukKIEeCwWAjevkyPjr3osfvLlq0qAblk+oDrtPUCQ4oX5ZO1KcvTYADN9xwQyHU4ZOAiSsAoMm4dCT+8uyqMIAcEGsgrf8OIL0Cqbfqscceq7W7pvVcYO7UucX1JfUnQlpOQZsXAoSjiUeHa6vxgViPdl+NBCJP79q1a93zzz/f6HCNPp1iDmjgppjBbqrH2DIfavFgAJGAuhpS+HgX11HSVQSCgQ8ArDuGDRv2BiSpUnXF8Vyow6dDsi6AfDwG11ENtn32qPMgyv4dYF0C7WDVxo0bK5ctW6as30VfdRGPOWD78DxuS1fnggNQo0sBlPMB4KsAnBMh6fqaxsLxaggDaI8BissBznbgwvG8oAhODEfCX8PFds87hLYqANSNKP9cbiT3iYWLF26O16A+3rUcsHuQXduzLG+dAC4IFowKB8JnAW5TwY6x+OMY1GuqR/2rUOmz+HsDwN+0ZMmSA9jWY1evOe1hfRq4HjIzRVUFoErn9ezZ82SAajrGp5MhgftDOha5kMTWLhGM9HSqgSTejuv/BseKJ6uqqj7CtFPIWljvZy4HNHAz99koe3b11Vf3h/fVaAD4aIDvaIBvFGTjMEjNQVCvS3EsZmzCPoFK49IWlKPauwGH1uZF8tY1Rho3uzRqKfuhD3YtBzRw08R/SM1CSM3TIDVnQVo2BHOC927evHlDZww+dJgYOHBgbmVlZW5eXl4wWB8saspr6gUjVxH+Io2Njftxe1UwfLXAet0yZsyYFhiqwgnecgD+1bktDS0nYaJoDryoDsGH4DPU8SZ+X4S3195M8vZK8N66bXEN3NQ/ugCcKIYDrPMh7WggymltshK/L8Aq/DTU1bcffPDBHQBCxowr+VEA4A8JRoKnRYKRr8DSPRn9tTplVEHS/xPHF8GgtkwDuPXJpuFHAzfFTAYASkqKS14EaOlwYeU3gdqAo58BtP8AgBc99NBDH6W4S7bV0zkDU0dj0d9vAKzno/Bg/PXAn7Xv5noOQoO4o7q6+pd6rGxmS+q27R5G6lrNoppnzZr1cwDgJpe3XAsArwBEngmGgisbw43bioqK9qVSkuHDkl9YWNgPH43hkVDkVLR/MdqnUwjB6ppwXRhaxdcXPbroUdcX6YJJc0ADN2nWOV84Y8aMkXihP4TxqNC5dLsStPBSld4BMGwI5ARWAkjLWRfcDKvblUxi57rrriutqak5HgauCRiz0kd5FIxXQ1BVL/zFjFtJVF3R3NI8Dj7V25O4Vl+SAAekk3sCl+iibjmQF8y7HIHnhQCF20tkOY6Dy/mHa8dBEl5GRRWSu3bWzFmf4PhqgI0fhE/DwfB2SMuKQFMgFMmPhOECGYGhKhAKhQI4novfvgD8UMQAH4brOBd8XHVV9Sj85st+yV8c6xShnTKMdWejkh91qiJ9sSMHNHAdWZR8AYD2HEjK5CswXxmtphj1HYvDxxpgo76E46GWUBPkZLNoEc2I8Q0hwigHwM7F8QKUyPOsD+b+KLbZDryupuCUBq6CP14e0sD1kpsd66KESwfRo4p/BqULqLI98y++GhPN+3o7NRwIpqZaXSs5AAD1yTZOQF3WdpM0PHQN3DQwWTehOeA1BzRwveaork9zIA0c0MBNA5N1E5oDXnNAA9drjur6NAfSwAEN3DQwWTehOeA1BzRwveaork9zIA0c0MBNA5N1E5oDXnNAA9drjur6NAfSwAEN3DQwWTehOeA1B7Lb5fGRLZO8Zqi5vl0fLDbvZs92ivkaY+SsEcti21m2kV3uaXyhgmISIm3OgHP+pCx71n6+3QWIflomsgjI2QFcAjZHzNNg9TN2Y/e2QMwYMT+259MN/wN3yZalGrA+fXvj35bvwetf4GopG/+1zpYzYTHZr+qzP4EbHcsuzZb3U9+nLQd8KX39OR0UFBq0tu9yVp2cJ/gh9xn5D7gc02rSHDBzwIcfcn+pyou3zMfzmmd+Zn7c5kPLCwZET6zDV5IXEEU5AYFd/AZFPtLMVTQhd2MEiwThX3VzRFQ1h0VjCAeymQKYLpo+YrJfWOA34Pr67SzODYghRbmiX4+gOAS/R/bKEyN75hrHgF8xtDhX9MkPitUVTaIZoCWAPz7YLD7C37bakNjXGBI760PiII77mlHx0OkjY5V/PKei0jbeI+uWx/lVLYA0/e8BPcRXDy3GbwGAmSMI4Hwcj/fVPQPlzUSQEsh1LRGANyze398onvhPrVi2q8EAd9aAmHP5ApLXBxTv2Xe/W1uMBel8QvnQe88c2ENcMLRIfGV4kRhUKJcb8vYGP4f0fWFHvfjbtjrx1t5Gsbch5G0DmVjbjBG+eOd9cROG1dAHBohCSNHJAOx9J5eLYcU5xjjW+u5TctZjvMq/XQAe1eCNVUipjDX4qArXYEw7oiTXkMj9CoJibFm+GI59joN74I8S3PzQ+bVrQZ2fVLeIBzZWiz9uqRX7UQ8O+ZN8oi6bn6G7B5WJpnX6H3dzo9TcI3uK2Yf3FCeWx9Ijx54HMfTOvkbx0uf14r0DTWIjwLqjdawaK2SzQdV6IKT2iJI8cUKffHHWoB7ilH4FoheMW2ai/epjfAQe21wjfv9pjdhe50MJTCNVSCww33eXbyfhY+0OuNoLKSXPlpbgo2Fguv+UcmMca24Ew1EYlFrE81Bl71l/UGyGRPSShsK4Ne2wYmPsfDgMXLRQm+ltqM53rT0oXsbHgtJdU4o5wA9KRLzu1s/aHrgasCl7WrlA7b0nlYkrR5SIPlBpzUT193vvHhArAZ4DsACnivjwSwDY4yGFrx7VU1w8rMhQp2V7nEb682d14hfrDhoquTyuf1POAUdvr/jAzZI50ZQ/AkUDoyFl/w/j2EkYz1LqSvqwskn8ZM1B8SdYfNNNGPoKWqOvP7rUGGeXmiTwcnxAfvRBpXgNVmjODWtKCwdswWt6bUyd0aA1McPbzUuHF4t7x/fB3GtOzEhEg9NtqyvF/RuqRA115C4kGrAoeb9/TC8xDoYt+YLsgcV5Hvr4OIxX1ZDEmtLAARunkY7zDBq0KXsiVEcJ2gEwFElAUJpdsmyPoZKmUCt2fU/8bqytbDYMYQTxkaV5hiW6OBcWwIHRZX7XQ5Wv7eIPjOsb6t4FDxUXfzcgnv3VMuttyPen7biP5kPbbqprtzgve+PoUnEzpFgZPJtIlLIPbaoRN793IGNBUIB+XwNr9w3o+yHwyuLLQjsVjWW/+qhK7PCj1dl4Ohn2TzGF1V7iRqXtpAzrdrfvzrxje4vvjW4DbSNAe+2KA+JuWG0bMthiy66thJcVjWV0r6S7Jcfkp/brYcwxr8WYvArzxppSzIGgOFQ886vF5lbamzO7+Vyo+cYyYZsGn28fVSq+BRW5d6ukpf/w9Df3icWYK+0Ohh7aouhddct7FeLNPY2GxOV9XYf74rxzX4tFPBP47rs+MD+axX+iDbiWE767+S64oWmHlYibx5QiKCCq2NDwdNnre8VfttYaqnK8Lh0GT6ejIOHSRcOgBnM+GX4acYl+zdeu2G/4N1PGUvL+YGwvzAWXxD5KcS/WJzznQBtwo95HnjeQrRVybpTjWjk2pCV2zvJ94o09DYZ7ooovBM43jugp1l80RDwysW+7qSJVeS+O0atqxsgS8eqUgeLuE/sY7pHx6l2DqKN5H1QIGtQoiWm8Ing5rcXxsKYUciAaIBFroA24sUN6o7McKIf6eNcJZYYU4+tMA+zNUDXpzB8vLpYAWnbuILFwQrkBglPhkkg1O9V05qBCOIEUG4EM38Uc7sMT+orTMZ8bD4b/hrp855pKwTln0gBoEz8EeMeW5cW9JtX3kI31m4E7LxsZ4PU9U/DcOra3OKVvQSxI4NeYn33qs9q41mPG1L5x3iBxWv+Cdi//fBi1DoXanCo6vGeeuAzRR1ItZ9/px3wfpqy+iMikeEKUY176M3/ealU+qbxAzME4nvHAmlLEAUsecDNwU9RidlU7BRLsgqGFsXEfJRSBW4E4WBXRT3gp1FSq1lbi1BH9mFNBVHPZz6lwCLHScejLL+COSWcR1biXY9xff1wtXjT5MU/HWHcitATWqyn1HNDA9ZDHdBNklA+NSyRakG9fXSG2IvsEX3YrDYX31HNnDbCVVGdDAl4FUHhNEwCymRjbMsxPRaPgeHHHcb0Nyas6T5X/p5jOehfTRbw31nMTDHFH4DpNqeeABq6HPJ4+slicALWR+aBIv4VUokGHzhZW4jTK05P6C6qrauhEr2BdPz6+t+jfapm21pPMPq3IlyOjBiWrHRG8ND4xRlhFjAP+E1wgtyOKiUSV+RK4S+opIhW3vD2mgesRPwmsiw6JGnlY5TuQRH/YUoOg9I4qMoH66Gn9EHtbEHccae7WYDg+3HNSH/OhpLf5IaAU5zSOGzoZY3UayY7prQY556NX7GuKzUlTOxgGjcPuY+SmXV3GngMauPb8cX32Uhh5juwV9SyigL0f0vY/NS1KFZlTPpRicbTUDm2y3EWQZByTdpbGI1Cf7dOK7Za+fEgRxrtFHcIPeT19lh/dXC0+bY0XpqHtC0OKRJl2zHDL3qTKaeAmxbb2F3Fsy/xQgwqjY1tK25XIWKFyxOcY8LZxvURhAsBha0Uo/3PMs1oD3tv3xH6PuasugcGJ49tEiB8OWo0nY5pIZWmmlZljXRlw/zUE6NM90v2nIZHe6LLkgAauB+8Bp1AoaaQEXfRJjdgKaauiBZjiMUcHqcqojhEEzCVFg1EyxPBaxtvOPtydimxtg6CfDmPWmF4dVWb6ND+NgHs51uXY+JS++cbHxlqP3veGAxq4HvDx3MGFgqlgSAx5o7RVxdUyzSrHl8l6GXGqhWNIeiolSmMxRv0mpKaMTkr0epbnfY4HIKXxzVwH82Ex4RydTfiROR/qcp+C9jEs5vJ6u3Mc0MDtHP8EpQsNN3LM+M/t9Ub2RVW112KqqLQ12EB13s2xXrj+ruPLEpJmtPJ+CePUeNZhN+2yDKd8GGTPGF0r1UHsLoU/877WFK9TAHImC1Cp1tZr9X7iHNDATZxn7a7geHEQXlASQ/Re342XV2FJpicVXQmTlbayUarjx/TOEzchTNANcSg9sX8PcQ2kLSVhZ+lsOJgwEyVjjK1Eh4zdrcAtQcO8Zwbga/KeA5qrneTpsUjvIuctOWf7GeY0mafYSlMxb9oZw5K5vmIMWGdhrOo0D8trRiHq5+soy3G1F0R1nR5S8mNlrpPxuZ9UtQjGG5P+Cx+MUq6NoslzDmjgdoKlVFsZYC4B+c7+JnEAycStRDWahiEmJbcjWmX/BYntRKxlMKT8nceVCSZRj0ccz16AsSb9jp2IUNsCgxqnsJzoDIyxhyv8kolXfry40BiJkrlES1wndiZ1XgM3KbZFLzoKYz2uFiChswbJyisViaMmIGMErbIK7bJd6w9vqhYXL90Tc2Zod9KyQ1WVEUSck1UR26L/83VH9XRsl9cTcLe+X2GsZEADkx1xjMvABNVHg9NCkgcMkOAqCrRoa/KWA5qlneAnpY40NtEveVN1s7GwlrXK07FYF8d8dkRpuwApUJlH+Ztv7bcrGjvHfMzMrsEgeCtx6ohzr4wHdqKDiBV+Cilh/4wIpn9iTnb5XmepfxyGCDJBgLl+WtVlFkjeMYMoVONh8zV6O3EOaOAmzrPYFYdgfR+pJnMdH04BqYTVaMx9OkXNEDTSqLUEy388B+u0ExEYBCj9ic1GL/bpHBiRVJE/1jrZX66W8Af4HFPSrj7QKN6Dyu9EnLeW6XjMZXci1I8fMXyHDOI0mQaumUPebGvgdoKP9A7q2SpJt9e1wFOqo18yx7d8ybksph0txIJbZpr11r6Yymk+bt2mR9WZSJt6OYLhSWxlDKzONyJSx0k1Z/kPoSJzoS+Ob0n8+KyGyr+1NXDAOKj4NxLBESrg0jDFj5jMp8XpsngRSIpq9SGXHNDAdckoVTGqqlKSbkfoHteftRJfcLpE2sGWqiod9c3EJS+vX3nAfCjuNsfPTKPKcEKqxnMw7mXUkRNRpWVWDkpcMzGr4yZYh+2I2gat6aqPAz2oZKaP4SU5WuLaMTLJcxq4STKOgOVqd1wDiEQpU68ALi3PDsJWrKtoVob+MbroL1vrHHvILnCce+u43sa6ulzMyw29urNB0D3TGnZI7YEr19sR1V+Occ0quizPNYckK3ICdp8seYX+TZQDGriJcqy1PF9HvpNOryWtzioXQXOzK+AiqSKOE7+zcr/Y7QAiXkupTuf+n51Y5krCUapyORGpIpvb34P2dtWrI5vM5fjBUOGSY1z5MaBU1jNCZq55s62BmyQfORViNro0YGwXinRUlVlG9XKbm7UbT3LV+OvfcacyU/qpLL3mtrjNqKXntteJZ5AmVkWUlnRhVDmSmMuzLdWUEC3krT4YxkfL6eNmrlNvu+OABq47PnUoRRWZEkdSlSFl5F7bb1+83E7OQzIcru2qti0CgONQBqx7RXTL5Orz0vKrqpf3Q/BqykwOaOAm+Vw4jjMvH8IMGNJQZa6Sai6K2tJBgMSOaOi5bVWFsdC1XTk35zYh3czjmG7yYqHsEL4qCiWj3fBBY9/NU0m8jAZu4jxL6ApOi9jDErmJHfyIKfdo/OJi150hqsgvIBDgScTOOhE1CifDEp1FOESwEnMtwyZnEK3jilky6yV6P0EOaOAmyDBZnNKW0ylyHFgCfVhlhNkP32VZRl5r/XUTI8txJ6dtHk1SZSa86BH1mw3Vjv3hCIBztE6+1eSBSqLSGBdsHdiz3x2hbeWA3k+UAxq4iXLMVJ6J4BpaxSkTuhUpkEsppxBKplqEOMEh26IszHliukWqLMGyTLzfzXDHXLK5VnwMVdmJaKHmagzmMbz1GlqNo+P6jrBk5BAuN2gHppakhdlah95PngMauMnzzpjrrGkdwDJHcrFiwpYpTDk9Ygfe45Ht0Q0RIlw9gCqzXX3WuqgZvLijASqy2opsLc/II6q7drQNDid00bT2gywgL6S3FMfSMszPrj59LjEOaOAmxq92pbfBQ0g61NMnt1hhPqbEpZSze3n5oo+Fm6Ib4piZK+f9zuIiGe9aAut9uDA+sLEq5s0Ur6w8TmeOwxVZLuR5/n4CCc4PkpWi0jon5phCHjkZ56x16H1nDmjgOvMoboltkH4y9pQGJs5rqpwtPjrY5AgaJmJzS7RC37O+SjBw3YkY2L8E4+K1lc4qsqzraARFjIT7pB3xY6SKPba6eG6GD7R0f7SrT59LjAMauInxq13pjfA+ovGJxFgDZsPopZC6K/Y2KVO1miu7EkngMLR0RVSZt2HsePvqynZTUtaLKe1f3RmN/LGei7fPONuTEAAvVd145dbhQ6BK9s4YYLp5kug2ybG1DDiIV5c+njgH7D+rideXVVcwvxIlymkACKN0GKNKa6wMz5PM4Jq4n8OF0C6YfjAk9rdGlRoLhMnr7H4pxagy01h1JjJHqky37BsXHDPPN9vVyXNnIbsFs1HaEWNu+adyHGHWi96tH69VUNGlRmJXnz6XOAc0cBPnWbsrmDliH6TusNxcI1VLX6QkZZpSMxE4/9hWb2RH5BgwHjHn8u/hHCEzSMQrJ49zjMmFt/jnBY3Dh+e8IYXKFQvM9TO9zmetYYDm4/RLHo2xurSu0wdbGu/M5fR25zkQ/y3qfN1ZUcPbWJ2dzhEkhtQdC1WRc7pW+it8g508pBgmuGhiX+uladmnz/FFSOHKAHw7opGNS4fSh9pKlNSDsZoDp5GoHr8JgEvjnbWs3u8cBzRwO8c/I1cTDTVSHf0CJNbAHh0VGeaj+jdA7mSoYd7i7x/jLvVqJ7seu5xAuwxZKJkw3Wls+/LnDeID3IvKqeQc5FLu3yP6Si3HvTLxHEYRmlLAAQ3cTjKVnkOvY6wppS6lzjAEmVundPn+/gwqrXX8q2r+pyeUiW/GSQKnKt+ZY+wns0DeMLrUmH+1q4tjWkYUqZw4mEKHjiQylQ9T7+xXTBfZ1a/PueeABq57XsUt+RqAux1TQyQapy4ZVqx0YKCx5llE+qiMOtbKf3NKH6yLW2Y97Ok+Je2FUI/vxoeCFnEn4uJeHLeqrMRMncOMjiQa7TgO1mqyE0eTP6+BmzzvYlfSBfFlOO/ToZ50CZakZGpSlcvg/647KHYA5E4aJOeDb0USOC5+7QZUsc643BgIK/YtY3qJ+04uN1KtOl3GMS1zU22ANdlKXGrkPENNjnpbPYFynD+m84em1HBAA9cjvj6B9KaftlpaOe3DsSotzFYiyOevrnAtjbjC+xvnDfRU+jK4nxkgKdHpteVEHA78Fuv9voQ5YW5bieNj5riCADe8qZ6BViE/Ytayet8bDmjgesNHY9z3CnI4HWhdN+jrGKNyiRCVJxVTxjysyPUUryucXhmtyJ0cr7zTcaq6dP7f06ohOJX/C8a1T8PPWWUVZ0bJSzE0kEuS/An3xphfFcCd2tHn3XNAA9c9rxxLPoSVCNbDvZEqIkP1rj+q1FixTnXhD7BqwDvI7OhGnQwjWv1fcOLwkqiuq9ReaxtcMvR+SFvmqLISDVtMyH5MWVTacpzP/MxOieas9ej9xDmggZs4z+JewekPhs5RmpHOxdTQl2H8UTldcFrowqW7BQ1WCu2zXRuUXrRce0ns4wZIRjt6B6C9bVVl3LZ5b5z3lffH8Tv9p918jOza1eecOaCB68yjhEo8jpSqnK+l5Zj+yz+EgSneYtD09f3Sa7uNhbDtGuEU0mp4aHlJuxFI/DGkaLyPBqXxTzB99QrGtaoyXD/o+qNLjUXP2C+W4zKbbr2+vLyXbKxLA9fjp85g9zvWVIp1rZKHEUN3YbqFCcRpvLES1covvLLbWD3Aeo77lF70zvJaijG4nZZfht1Z6S20x8ySTFKnAi3XQbp1XC9j/VveEy3Ov1hXhbWTOtZlrVvve8MBDVxv+NiulvWInOGLLFXm8QiU//mJfeLmlmLupgnP7xS//KiqXT3cIXBe29V+pYEOhZI8wNUXGOgviV5Of0Y+qqvf3m9Mb6k+FjS23YhppPMx/cPkeDR0/fTDg8bHReVNJevWv95yQAPXW37GansS00OPfVobCzbntA6DCJgSRkV0mbwBUm7q63uM9XtkGcMwBWeGVBBDA6WBitM3P/mwUlzz9j5jPSFVe5yXnoulTri0JzUJflQe2lQj/grJzGVUNKWPA+q3KH3t+7YlvtR3Y4xIdZNxsSS+8PMBXukWaBy0/KPEO+7vO2LSl6o0Y19TQQQrA+z5kfnSa3vEnWviu2RSJb72yFJxo8k18lksj/Kbj6uU6nYq+qvrbONA27Br8Zbo29V2Tm95wAFOCz1yWl/Ds0g68DPtzA+RJ5lzvnZMHws3xAuHFoofQxVNFVH15UugcmOUbTLb47cxtfUdGKOYj4rEpOrMffW+iyU5ZT36t5McmDEihtfYhtDA7SRX41/OjBCPIFyPkUMSvLTCTntjn6MTBB+QHbjjt+rNGS4T+j+IVroG0laq+UwTezu8v5jLSjUO9qZlXUsHDpiAq1XlDtzx/gA9jqa/uVf8ESqpDP87G/OfS6cMdMw20ZWgpcRnfPBNMEYRtOzLM1CPb3rvgHgXklaD1vt3xW2NbcANiGVuL9LlEucAF4z+1vL9GBNWx/yUmS3i5XMGiO9CBVUtnpV4K95cQV/mS+HL/ChU/KnwQ6b1mMN0Lr59M0BLq7mmruVAG3Aj4vWu7Yr/W+c48ha8+NdgukXG7xIk947vI5aeO1AwEL2riZFID5xaLhZOKDfia6mq0z3y++g3x+VerDnU1ffYLdu3CNY24Ia1xE3HA6V6ySCD01/YacS2ynV1TulbIF46e4D4w+n9EGmT2yEQP5V94wIMDEO8HQtj/+OsAWLW4SWGrzWl7GqMY+eu2C/uwxyzKqtjKvul6zZxwCJYO+ZYMZXVm6njABPKnfPybvFVqKLMeCENP1cgIP2LsCS/ibxOP4PvLzM5porokslxLIFKv+MhSOrOwAESE+D9bmONeBDqMed79Xg2ypdM+d/6mFq7s2TLUlggJmVK57KlH4zfvQfqMoPRmUHDTHSQ4Fq2zCjBIAbV6gHm8k7btBIPR1K7U/sViCtGlIgzBhS0Cz2kIW0Z2mLCdbapKUM4YLIos0ftgfvIlkkiKJZmSFezqhuUdFw4jA4aM7GqARe7kw8HGqvhxFEBKfgBgg1o2WVUEYPyGczANWpZJmJarJar5bEOjqH5YWCSc46hJwKwXMu3BGliKXFJvJbWbk7z3AvAvrc/GiRhnNT/MoEDC8SMEfPNHZHvRtuxxVtYYF7bAb2Vbg6MQuQNs0pw3peSseNDivaIluqdSLTOpOPRBbQJQayqALDS8aMP/voBtPxVEbBqJABgLikGy69EfLBeWU/FqS491gG07I36ndAqc5c+Kflg6NV0RGmu4bU0BdKyHAAsNknKRDtJY1M9rGF7EdL3NmJtuTI91eE6IFiPYRPlZprKW1Rk2araOBUSCwQ92/R4V/Ip7b+UnZw+op8yp484l8oUqEdAGh8BqzNX0xvbG4tzYZveWNbFsekfXQXHf047McSQ9TASiEYxhvOp0tCk/SZ1g/YcCIvJ8QqoJa4srdVmyYmM/uX4mIEL/CVFJWvE1v84WlL/z0gOcM6WwnPWiGXx+mcPXF4VBS+35vGfJs0BzYEUccAFYGXLzsCVJfnbBmKOjs8wn+rSba3Sdyn7u13jFi+kLu0/HSuk85ONhLX2MTHgWq/OlH09jZUpT6I79ENppe0OHTf3UT1PYC7RHbYT+FJ1h9vRfUwhB6R0S2ET6ajaH8AlpzJJ/UnHk9NtJMcBn3zk/QNcWuE0aQ7Yc8A374g/xrjyYWnHEckJ/WvlADWy6SMmWw93133/SFw+AS11u+t7mPp+W8LiUt9galvwl8Qlr7SFObVvTPes3ReWZDPr/SVxeWdR44NvxjLmh6W3k+KA70BLLvhP4spnq901JSey+deXoOUD9S9weXcavORCtpJvQcsH6m/gyldWA1hywv+/Cfj7dmdmZAdw5RMigOljrX2bJUf88Sudbxwiavxxs9G7yC7gmp9cVApLLmROwIS5j3o7PgeSdM6PX6E+ozmgOaA5oDmgOaA5oDlg5cD/A+qplueDZ5IZAAAAAElFTkSuQmCC;aspect=fixed;" parent="afDIatIIUUOGtq9c_muA-3" vertex="1">
          <mxGeometry x="700" y="42.99999999999999" width="50" height="27.73" as="geometry" />
        </mxCell>
        <mxCell id="afDIatIIUUOGtq9c_muA-37" value="sign-up-user-process-api" style="shape=image;verticalLabelPosition=bottom;verticalAlign=top;imageAspect=0;image=data:image/png,iVBORw0KGgoAAAANSUhEUgAAAO4AAACECAYAAACXgRceAAAAAXNSR0IArs4c6QAAAIRlWElmTU0AKgAAAAgABQESAAMAAAABAAEAAAEaAAUAAAABAAAASgEbAAUAAAABAAAAUgEoAAMAAAABAAIAAIdpAAQAAAABAAAAWgAAAAAAAAFKAAAAAQAAAUoAAAABAAOgAQADAAAAAQABAACgAgAEAAAAAQAAAO6gAwAEAAAAAQAAAIQAAAAAyiTvzQAAAAlwSFlzAAAywAAAMsABKGRa2wAAIsdJREFUeAHtXQmYFNW1vt2zMQsDw7CDIKKoILiigs8nuKDGxKgRoxLZkhDFaGJc8mL8BKKJMcnTxJcYg4qCMYkao1mMu2A0IriACIggEllkZ4bZt+5+/189t6em5nZVdU91T0/1Pd8307XcuvfWqfrrnHvuOecKoUlzQHOg23Eg0O163M07PGfOnLyWlpZ+gUCg4eGHH67A7US6wy1dddVVxQWBgpGhSKgskhPhe7Ortrb206eeeqqpO/Tfb30M+u2GMv1+GhoaSkVYXB5piVwxffr0I+bOnVuS4X0OXHnllWU5OTlnhgKhB0RQvIJPzVJ8eG4pLy/vneF99233cn17Zxl6Y/n5+bnhlvDYsAhPDwaCO+tr61fNnjn7XwDES7m5uesXLlzYnCldnz179mAREl9EX78CsJ4cEREN1Ax5OBq4XfcgqO0MARiGRCKRCwCQBU3hprUAyxPhcPglAHxrRUVFPVRRAjkt6vTUqVNz+vXrV1hXVzcCEvWr6Mc0tD0Mf1ozAxMyiTRw0/w0ANJmwGB3IBRoAWgl/zlmLAQ8x4dD4fHYrm1uav6kuLh41cyZM98PhoPvNoYa1z3++ONVXnd3/vz5wa1btw5Ev8YHIoEJdbV1E9DGOOzHla4BEWhB2T3Nzc0tXvdH1+eOA9o45Y5PXpYKTJs2rSckKgFyUyQcOQO/BLDyWRAkONeAv12Qgi/miJzFJbUla+958p4G7CcliQnWPXv2FNXX15+M+r8ByToJ9ZfhLx9/SukKIEeCwWAjevkyPjr3osfvLlq0qAblk+oDrtPUCQ4oX5ZO1KcvTYADN9xwQyHU4ZOAiSsAoMm4dCT+8uyqMIAcEGsgrf8OIL0Cqbfqscceq7W7pvVcYO7UucX1JfUnQlpOQZsXAoSjiUeHa6vxgViPdl+NBCJP79q1a93zzz/f6HCNPp1iDmjgppjBbqrH2DIfavFgAJGAuhpS+HgX11HSVQSCgQ8ArDuGDRv2BiSpUnXF8Vyow6dDsi6AfDwG11ENtn32qPMgyv4dYF0C7WDVxo0bK5ctW6as30VfdRGPOWD78DxuS1fnggNQo0sBlPMB4KsAnBMh6fqaxsLxaggDaI8BissBznbgwvG8oAhODEfCX8PFds87hLYqANSNKP9cbiT3iYWLF26O16A+3rUcsHuQXduzLG+dAC4IFowKB8JnAW5TwY6x+OMY1GuqR/2rUOmz+HsDwN+0ZMmSA9jWY1evOe1hfRq4HjIzRVUFoErn9ezZ82SAajrGp5MhgftDOha5kMTWLhGM9HSqgSTejuv/BseKJ6uqqj7CtFPIWljvZy4HNHAz99koe3b11Vf3h/fVaAD4aIDvaIBvFGTjMEjNQVCvS3EsZmzCPoFK49IWlKPauwGH1uZF8tY1Rho3uzRqKfuhD3YtBzRw08R/SM1CSM3TIDVnQVo2BHOC927evHlDZww+dJgYOHBgbmVlZW5eXl4wWB8saspr6gUjVxH+Io2Njftxe1UwfLXAet0yZsyYFhiqwgnecgD+1bktDS0nYaJoDryoDsGH4DPU8SZ+X4S3195M8vZK8N66bXEN3NQ/ugCcKIYDrPMh7WggymltshK/L8Aq/DTU1bcffPDBHQBCxowr+VEA4A8JRoKnRYKRr8DSPRn9tTplVEHS/xPHF8GgtkwDuPXJpuFHAzfFTAYASkqKS14EaOlwYeU3gdqAo58BtP8AgBc99NBDH6W4S7bV0zkDU0dj0d9vAKzno/Bg/PXAn7Xv5noOQoO4o7q6+pd6rGxmS+q27R5G6lrNoppnzZr1cwDgJpe3XAsArwBEngmGgisbw43bioqK9qVSkuHDkl9YWNgPH43hkVDkVLR/MdqnUwjB6ppwXRhaxdcXPbroUdcX6YJJc0ADN2nWOV84Y8aMkXihP4TxqNC5dLsStPBSld4BMGwI5ARWAkjLWRfcDKvblUxi57rrriutqak5HgauCRiz0kd5FIxXQ1BVL/zFjFtJVF3R3NI8Dj7V25O4Vl+SAAekk3sCl+iibjmQF8y7HIHnhQCF20tkOY6Dy/mHa8dBEl5GRRWSu3bWzFmf4PhqgI0fhE/DwfB2SMuKQFMgFMmPhOECGYGhKhAKhQI4novfvgD8UMQAH4brOBd8XHVV9Sj85st+yV8c6xShnTKMdWejkh91qiJ9sSMHNHAdWZR8AYD2HEjK5CswXxmtphj1HYvDxxpgo76E46GWUBPkZLNoEc2I8Q0hwigHwM7F8QKUyPOsD+b+KLbZDryupuCUBq6CP14e0sD1kpsd66KESwfRo4p/BqULqLI98y++GhPN+3o7NRwIpqZaXSs5AAD1yTZOQF3WdpM0PHQN3DQwWTehOeA1BzRwveaork9zIA0c0MBNA5N1E5oDXnNAA9drjur6NAfSwAEN3DQwWTehOeA1BzRwveaork9zIA0c0MBNA5N1E5oDXnNAA9drjur6NAfSwAEN3DQwWTehOeA1B7Lb5fGRLZO8Zqi5vl0fLDbvZs92ivkaY+SsEcti21m2kV3uaXyhgmISIm3OgHP+pCx71n6+3QWIflomsgjI2QFcAjZHzNNg9TN2Y/e2QMwYMT+259MN/wN3yZalGrA+fXvj35bvwetf4GopG/+1zpYzYTHZr+qzP4EbHcsuzZb3U9+nLQd8KX39OR0UFBq0tu9yVp2cJ/gh9xn5D7gc02rSHDBzwIcfcn+pyou3zMfzmmd+Zn7c5kPLCwZET6zDV5IXEEU5AYFd/AZFPtLMVTQhd2MEiwThX3VzRFQ1h0VjCAeymQKYLpo+YrJfWOA34Pr67SzODYghRbmiX4+gOAS/R/bKEyN75hrHgF8xtDhX9MkPitUVTaIZoCWAPz7YLD7C37bakNjXGBI760PiII77mlHx0OkjY5V/PKei0jbeI+uWx/lVLYA0/e8BPcRXDy3GbwGAmSMI4Hwcj/fVPQPlzUSQEsh1LRGANyze398onvhPrVi2q8EAd9aAmHP5ApLXBxTv2Xe/W1uMBel8QvnQe88c2ENcMLRIfGV4kRhUKJcb8vYGP4f0fWFHvfjbtjrx1t5Gsbch5G0DmVjbjBG+eOd9cROG1dAHBohCSNHJAOx9J5eLYcU5xjjW+u5TctZjvMq/XQAe1eCNVUipjDX4qArXYEw7oiTXkMj9CoJibFm+GI59joN74I8S3PzQ+bVrQZ2fVLeIBzZWiz9uqRX7UQ8O+ZN8oi6bn6G7B5WJpnX6H3dzo9TcI3uK2Yf3FCeWx9Ijx54HMfTOvkbx0uf14r0DTWIjwLqjdawaK2SzQdV6IKT2iJI8cUKffHHWoB7ilH4FoheMW2ai/epjfAQe21wjfv9pjdhe50MJTCNVSCww33eXbyfhY+0OuNoLKSXPlpbgo2Fguv+UcmMca24Ew1EYlFrE81Bl71l/UGyGRPSShsK4Ne2wYmPsfDgMXLRQm+ltqM53rT0oXsbHgtJdU4o5wA9KRLzu1s/aHrgasCl7WrlA7b0nlYkrR5SIPlBpzUT193vvHhArAZ4DsACnivjwSwDY4yGFrx7VU1w8rMhQp2V7nEb682d14hfrDhoquTyuf1POAUdvr/jAzZI50ZQ/AkUDoyFl/w/j2EkYz1LqSvqwskn8ZM1B8SdYfNNNGPoKWqOvP7rUGGeXmiTwcnxAfvRBpXgNVmjODWtKCwdswWt6bUyd0aA1McPbzUuHF4t7x/fB3GtOzEhEg9NtqyvF/RuqRA115C4kGrAoeb9/TC8xDoYt+YLsgcV5Hvr4OIxX1ZDEmtLAARunkY7zDBq0KXsiVEcJ2gEwFElAUJpdsmyPoZKmUCt2fU/8bqytbDYMYQTxkaV5hiW6OBcWwIHRZX7XQ5Wv7eIPjOsb6t4FDxUXfzcgnv3VMuttyPen7biP5kPbbqprtzgve+PoUnEzpFgZPJtIlLIPbaoRN793IGNBUIB+XwNr9w3o+yHwyuLLQjsVjWW/+qhK7PCj1dl4Ohn2TzGF1V7iRqXtpAzrdrfvzrxje4vvjW4DbSNAe+2KA+JuWG0bMthiy66thJcVjWV0r6S7Jcfkp/brYcwxr8WYvArzxppSzIGgOFQ886vF5lbamzO7+Vyo+cYyYZsGn28fVSq+BRW5d6ukpf/w9Df3icWYK+0Ohh7aouhddct7FeLNPY2GxOV9XYf74rxzX4tFPBP47rs+MD+axX+iDbiWE767+S64oWmHlYibx5QiKCCq2NDwdNnre8VfttYaqnK8Lh0GT6ejIOHSRcOgBnM+GX4acYl+zdeu2G/4N1PGUvL+YGwvzAWXxD5KcS/WJzznQBtwo95HnjeQrRVybpTjWjk2pCV2zvJ94o09DYZ7ooovBM43jugp1l80RDwysW+7qSJVeS+O0atqxsgS8eqUgeLuE/sY7pHx6l2DqKN5H1QIGtQoiWm8Ing5rcXxsKYUciAaIBFroA24sUN6o7McKIf6eNcJZYYU4+tMA+zNUDXpzB8vLpYAWnbuILFwQrkBglPhkkg1O9V05qBCOIEUG4EM38Uc7sMT+orTMZ8bD4b/hrp855pKwTln0gBoEz8EeMeW5cW9JtX3kI31m4E7LxsZ4PU9U/DcOra3OKVvQSxI4NeYn33qs9q41mPG1L5x3iBxWv+Cdi//fBi1DoXanCo6vGeeuAzRR1ItZ9/px3wfpqy+iMikeEKUY176M3/ealU+qbxAzME4nvHAmlLEAUsecDNwU9RidlU7BRLsgqGFsXEfJRSBW4E4WBXRT3gp1FSq1lbi1BH9mFNBVHPZz6lwCLHScejLL+COSWcR1biXY9xff1wtXjT5MU/HWHcitATWqyn1HNDA9ZDHdBNklA+NSyRakG9fXSG2IvsEX3YrDYX31HNnDbCVVGdDAl4FUHhNEwCymRjbMsxPRaPgeHHHcb0Nyas6T5X/p5jOehfTRbw31nMTDHFH4DpNqeeABq6HPJ4+slicALWR+aBIv4VUokGHzhZW4jTK05P6C6qrauhEr2BdPz6+t+jfapm21pPMPq3IlyOjBiWrHRG8ND4xRlhFjAP+E1wgtyOKiUSV+RK4S+opIhW3vD2mgesRPwmsiw6JGnlY5TuQRH/YUoOg9I4qMoH66Gn9EHtbEHccae7WYDg+3HNSH/OhpLf5IaAU5zSOGzoZY3UayY7prQY556NX7GuKzUlTOxgGjcPuY+SmXV3GngMauPb8cX32Uhh5juwV9SyigL0f0vY/NS1KFZlTPpRicbTUDm2y3EWQZByTdpbGI1Cf7dOK7Za+fEgRxrtFHcIPeT19lh/dXC0+bY0XpqHtC0OKRJl2zHDL3qTKaeAmxbb2F3Fsy/xQgwqjY1tK25XIWKFyxOcY8LZxvURhAsBha0Uo/3PMs1oD3tv3xH6PuasugcGJ49tEiB8OWo0nY5pIZWmmlZljXRlw/zUE6NM90v2nIZHe6LLkgAauB+8Bp1AoaaQEXfRJjdgKaauiBZjiMUcHqcqojhEEzCVFg1EyxPBaxtvOPtydimxtg6CfDmPWmF4dVWb6ND+NgHs51uXY+JS++cbHxlqP3veGAxq4HvDx3MGFgqlgSAx5o7RVxdUyzSrHl8l6GXGqhWNIeiolSmMxRv0mpKaMTkr0epbnfY4HIKXxzVwH82Ex4RydTfiROR/qcp+C9jEs5vJ6u3Mc0MDtHP8EpQsNN3LM+M/t9Ub2RVW112KqqLQ12EB13s2xXrj+ruPLEpJmtPJ+CePUeNZhN+2yDKd8GGTPGF0r1UHsLoU/877WFK9TAHImC1Cp1tZr9X7iHNDATZxn7a7geHEQXlASQ/Re342XV2FJpicVXQmTlbayUarjx/TOEzchTNANcSg9sX8PcQ2kLSVhZ+lsOJgwEyVjjK1Eh4zdrcAtQcO8Zwbga/KeA5qrneTpsUjvIuctOWf7GeY0mafYSlMxb9oZw5K5vmIMWGdhrOo0D8trRiHq5+soy3G1F0R1nR5S8mNlrpPxuZ9UtQjGG5P+Cx+MUq6NoslzDmjgdoKlVFsZYC4B+c7+JnEAycStRDWahiEmJbcjWmX/BYntRKxlMKT8nceVCSZRj0ccz16AsSb9jp2IUNsCgxqnsJzoDIyxhyv8kolXfry40BiJkrlES1wndiZ1XgM3KbZFLzoKYz2uFiChswbJyisViaMmIGMErbIK7bJd6w9vqhYXL90Tc2Zod9KyQ1WVEUSck1UR26L/83VH9XRsl9cTcLe+X2GsZEADkx1xjMvABNVHg9NCkgcMkOAqCrRoa/KWA5qlneAnpY40NtEveVN1s7GwlrXK07FYF8d8dkRpuwApUJlH+Ztv7bcrGjvHfMzMrsEgeCtx6ohzr4wHdqKDiBV+Cilh/4wIpn9iTnb5XmepfxyGCDJBgLl+WtVlFkjeMYMoVONh8zV6O3EOaOAmzrPYFYdgfR+pJnMdH04BqYTVaMx9OkXNEDTSqLUEy388B+u0ExEYBCj9ic1GL/bpHBiRVJE/1jrZX66W8Af4HFPSrj7QKN6Dyu9EnLeW6XjMZXci1I8fMXyHDOI0mQaumUPebGvgdoKP9A7q2SpJt9e1wFOqo18yx7d8ybksph0txIJbZpr11r6Yymk+bt2mR9WZSJt6OYLhSWxlDKzONyJSx0k1Z/kPoSJzoS+Ob0n8+KyGyr+1NXDAOKj4NxLBESrg0jDFj5jMp8XpsngRSIpq9SGXHNDAdckoVTGqqlKSbkfoHteftRJfcLpE2sGWqiod9c3EJS+vX3nAfCjuNsfPTKPKcEKqxnMw7mXUkRNRpWVWDkpcMzGr4yZYh+2I2gat6aqPAz2oZKaP4SU5WuLaMTLJcxq4STKOgOVqd1wDiEQpU68ALi3PDsJWrKtoVob+MbroL1vrHHvILnCce+u43sa6ulzMyw29urNB0D3TGnZI7YEr19sR1V+Occ0quizPNYckK3ICdp8seYX+TZQDGriJcqy1PF9HvpNOryWtzioXQXOzK+AiqSKOE7+zcr/Y7QAiXkupTuf+n51Y5krCUapyORGpIpvb34P2dtWrI5vM5fjBUOGSY1z5MaBU1jNCZq55s62BmyQfORViNro0YGwXinRUlVlG9XKbm7UbT3LV+OvfcacyU/qpLL3mtrjNqKXntteJZ5AmVkWUlnRhVDmSmMuzLdWUEC3krT4YxkfL6eNmrlNvu+OABq47PnUoRRWZEkdSlSFl5F7bb1+83E7OQzIcru2qti0CgONQBqx7RXTL5Orz0vKrqpf3Q/BqykwOaOAm+Vw4jjMvH8IMGNJQZa6Sai6K2tJBgMSOaOi5bVWFsdC1XTk35zYh3czjmG7yYqHsEL4qCiWj3fBBY9/NU0m8jAZu4jxL6ApOi9jDErmJHfyIKfdo/OJi150hqsgvIBDgScTOOhE1CifDEp1FOESwEnMtwyZnEK3jilky6yV6P0EOaOAmyDBZnNKW0ylyHFgCfVhlhNkP32VZRl5r/XUTI8txJ6dtHk1SZSa86BH1mw3Vjv3hCIBztE6+1eSBSqLSGBdsHdiz3x2hbeWA3k+UAxq4iXLMVJ6J4BpaxSkTuhUpkEsppxBKplqEOMEh26IszHliukWqLMGyTLzfzXDHXLK5VnwMVdmJaKHmagzmMbz1GlqNo+P6jrBk5BAuN2gHppakhdlah95PngMauMnzzpjrrGkdwDJHcrFiwpYpTDk9Ygfe45Ht0Q0RIlw9gCqzXX3WuqgZvLijASqy2opsLc/II6q7drQNDid00bT2gywgL6S3FMfSMszPrj59LjEOaOAmxq92pbfBQ0g61NMnt1hhPqbEpZSze3n5oo+Fm6Ib4piZK+f9zuIiGe9aAut9uDA+sLEq5s0Ur6w8TmeOwxVZLuR5/n4CCc4PkpWi0jon5phCHjkZ56x16H1nDmjgOvMoboltkH4y9pQGJs5rqpwtPjrY5AgaJmJzS7RC37O+SjBw3YkY2L8E4+K1lc4qsqzraARFjIT7pB3xY6SKPba6eG6GD7R0f7SrT59LjAMauInxq13pjfA+ovGJxFgDZsPopZC6K/Y2KVO1miu7EkngMLR0RVSZt2HsePvqynZTUtaLKe1f3RmN/LGei7fPONuTEAAvVd145dbhQ6BK9s4YYLp5kug2ybG1DDiIV5c+njgH7D+rideXVVcwvxIlymkACKN0GKNKa6wMz5PM4Jq4n8OF0C6YfjAk9rdGlRoLhMnr7H4pxagy01h1JjJHqky37BsXHDPPN9vVyXNnIbsFs1HaEWNu+adyHGHWi96tH69VUNGlRmJXnz6XOAc0cBPnWbsrmDliH6TusNxcI1VLX6QkZZpSMxE4/9hWb2RH5BgwHjHn8u/hHCEzSMQrJ49zjMmFt/jnBY3Dh+e8IYXKFQvM9TO9zmetYYDm4/RLHo2xurSu0wdbGu/M5fR25zkQ/y3qfN1ZUcPbWJ2dzhEkhtQdC1WRc7pW+it8g508pBgmuGhiX+uladmnz/FFSOHKAHw7opGNS4fSh9pKlNSDsZoDp5GoHr8JgEvjnbWs3u8cBzRwO8c/I1cTDTVSHf0CJNbAHh0VGeaj+jdA7mSoYd7i7x/jLvVqJ7seu5xAuwxZKJkw3Wls+/LnDeID3IvKqeQc5FLu3yP6Si3HvTLxHEYRmlLAAQ3cTjKVnkOvY6wppS6lzjAEmVundPn+/gwqrXX8q2r+pyeUiW/GSQKnKt+ZY+wns0DeMLrUmH+1q4tjWkYUqZw4mEKHjiQylQ9T7+xXTBfZ1a/PueeABq57XsUt+RqAux1TQyQapy4ZVqx0YKCx5llE+qiMOtbKf3NKH6yLW2Y97Ok+Je2FUI/vxoeCFnEn4uJeHLeqrMRMncOMjiQa7TgO1mqyE0eTP6+BmzzvYlfSBfFlOO/ToZ50CZakZGpSlcvg/647KHYA5E4aJOeDb0USOC5+7QZUsc643BgIK/YtY3qJ+04uN1KtOl3GMS1zU22ANdlKXGrkPENNjnpbPYFynD+m84em1HBAA9cjvj6B9KaftlpaOe3DsSotzFYiyOevrnAtjbjC+xvnDfRU+jK4nxkgKdHpteVEHA78Fuv9voQ5YW5bieNj5riCADe8qZ6BViE/Ytayet8bDmjgesNHY9z3CnI4HWhdN+jrGKNyiRCVJxVTxjysyPUUryucXhmtyJ0cr7zTcaq6dP7f06ohOJX/C8a1T8PPWWUVZ0bJSzE0kEuS/An3xphfFcCd2tHn3XNAA9c9rxxLPoSVCNbDvZEqIkP1rj+q1FixTnXhD7BqwDvI7OhGnQwjWv1fcOLwkqiuq9ReaxtcMvR+SFvmqLISDVtMyH5MWVTacpzP/MxOieas9ej9xDmggZs4z+JewekPhs5RmpHOxdTQl2H8UTldcFrowqW7BQ1WCu2zXRuUXrRce0ns4wZIRjt6B6C9bVVl3LZ5b5z3lffH8Tv9p918jOza1eecOaCB68yjhEo8jpSqnK+l5Zj+yz+EgSneYtD09f3Sa7uNhbDtGuEU0mp4aHlJuxFI/DGkaLyPBqXxTzB99QrGtaoyXD/o+qNLjUXP2C+W4zKbbr2+vLyXbKxLA9fjp85g9zvWVIp1rZKHEUN3YbqFCcRpvLES1covvLLbWD3Aeo77lF70zvJaijG4nZZfht1Z6S20x8ySTFKnAi3XQbp1XC9j/VveEy3Ov1hXhbWTOtZlrVvve8MBDVxv+NiulvWInOGLLFXm8QiU//mJfeLmlmLupgnP7xS//KiqXT3cIXBe29V+pYEOhZI8wNUXGOgviV5Of0Y+qqvf3m9Mb6k+FjS23YhppPMx/cPkeDR0/fTDg8bHReVNJevWv95yQAPXW37GansS00OPfVobCzbntA6DCJgSRkV0mbwBUm7q63uM9XtkGcMwBWeGVBBDA6WBitM3P/mwUlzz9j5jPSFVe5yXnoulTri0JzUJflQe2lQj/grJzGVUNKWPA+q3KH3t+7YlvtR3Y4xIdZNxsSS+8PMBXukWaBy0/KPEO+7vO2LSl6o0Y19TQQQrA+z5kfnSa3vEnWviu2RSJb72yFJxo8k18lksj/Kbj6uU6nYq+qvrbONA27Br8Zbo29V2Tm95wAFOCz1yWl/Ds0g68DPtzA+RJ5lzvnZMHws3xAuHFoofQxVNFVH15UugcmOUbTLb47cxtfUdGKOYj4rEpOrMffW+iyU5ZT36t5McmDEihtfYhtDA7SRX41/OjBCPIFyPkUMSvLTCTntjn6MTBB+QHbjjt+rNGS4T+j+IVroG0laq+UwTezu8v5jLSjUO9qZlXUsHDpiAq1XlDtzx/gA9jqa/uVf8ESqpDP87G/OfS6cMdMw20ZWgpcRnfPBNMEYRtOzLM1CPb3rvgHgXklaD1vt3xW2NbcANiGVuL9LlEucAF4z+1vL9GBNWx/yUmS3i5XMGiO9CBVUtnpV4K95cQV/mS+HL/ChU/KnwQ6b1mMN0Lr59M0BLq7mmruVAG3Aj4vWu7Yr/W+c48ha8+NdgukXG7xIk947vI5aeO1AwEL2riZFID5xaLhZOKDfia6mq0z3y++g3x+VerDnU1ffYLdu3CNY24Ia1xE3HA6V6ySCD01/YacS2ynV1TulbIF46e4D4w+n9EGmT2yEQP5V94wIMDEO8HQtj/+OsAWLW4SWGrzWl7GqMY+eu2C/uwxyzKqtjKvul6zZxwCJYO+ZYMZXVm6njABPKnfPybvFVqKLMeCENP1cgIP2LsCS/ibxOP4PvLzM5porokslxLIFKv+MhSOrOwAESE+D9bmONeBDqMed79Xg2ypdM+d/6mFq7s2TLUlggJmVK57KlH4zfvQfqMoPRmUHDTHSQ4Fq2zCjBIAbV6gHm8k7btBIPR1K7U/sViCtGlIgzBhS0Cz2kIW0Z2mLCdbapKUM4YLIos0ftgfvIlkkiKJZmSFezqhuUdFw4jA4aM7GqARe7kw8HGqvhxFEBKfgBgg1o2WVUEYPyGczANWpZJmJarJar5bEOjqH5YWCSc46hJwKwXMu3BGliKXFJvJbWbk7z3AvAvrc/GiRhnNT/MoEDC8SMEfPNHZHvRtuxxVtYYF7bAb2Vbg6MQuQNs0pw3peSseNDivaIluqdSLTOpOPRBbQJQayqALDS8aMP/voBtPxVEbBqJABgLikGy69EfLBeWU/FqS491gG07I36ndAqc5c+Kflg6NV0RGmu4bU0BdKyHAAsNknKRDtJY1M9rGF7EdL3NmJtuTI91eE6IFiPYRPlZprKW1Rk2araOBUSCwQ92/R4V/Ip7b+UnZw+op8yp484l8oUqEdAGh8BqzNX0xvbG4tzYZveWNbFsekfXQXHf047McSQ9TASiEYxhvOp0tCk/SZ1g/YcCIvJ8QqoJa4srdVmyYmM/uX4mIEL/CVFJWvE1v84WlL/z0gOcM6WwnPWiGXx+mcPXF4VBS+35vGfJs0BzYEUccAFYGXLzsCVJfnbBmKOjs8wn+rSba3Sdyn7u13jFi+kLu0/HSuk85ONhLX2MTHgWq/OlH09jZUpT6I79ENppe0OHTf3UT1PYC7RHbYT+FJ1h9vRfUwhB6R0S2ET6ajaH8AlpzJJ/UnHk9NtJMcBn3zk/QNcWuE0aQ7Yc8A374g/xrjyYWnHEckJ/WvlADWy6SMmWw93133/SFw+AS11u+t7mPp+W8LiUt9galvwl8Qlr7SFObVvTPes3ReWZDPr/SVxeWdR44NvxjLmh6W3k+KA70BLLvhP4spnq901JSey+deXoOUD9S9weXcavORCtpJvQcsH6m/gyldWA1hywv+/Cfj7dmdmZAdw5RMigOljrX2bJUf88Sudbxwiavxxs9G7yC7gmp9cVApLLmROwIS5j3o7PgeSdM6PX6E+ozmgOaA5oDmgOaA5oDlg5cD/A+qplueDZ5IZAAAAAElFTkSuQmCC;aspect=fixed;" parent="afDIatIIUUOGtq9c_muA-3" vertex="1">
          <mxGeometry x="905" y="42.999999999999986" width="50" height="27.73" as="geometry" />
        </mxCell>
        <mxCell id="afDIatIIUUOGtq9c_muA-4" value="System" style="swimlane;horizontal=0;whiteSpace=wrap;html=1;startSize=48;strokeWidth=2;" parent="1" vertex="1">
          <mxGeometry x="70" y="380" width="1080" height="150" as="geometry" />
        </mxCell>
        <mxCell id="afDIatIIUUOGtq9c_muA-11" value="salesforce-system-api" style="shape=image;verticalLabelPosition=bottom;verticalAlign=top;imageAspect=0;image=data:image/png,iVBORw0KGgoAAAANSUhEUgAAAO4AAACECAYAAACXgRceAAAAAXNSR0IArs4c6QAAAIRlWElmTU0AKgAAAAgABQESAAMAAAABAAEAAAEaAAUAAAABAAAASgEbAAUAAAABAAAAUgEoAAMAAAABAAIAAIdpAAQAAAABAAAAWgAAAAAAAAFKAAAAAQAAAUoAAAABAAOgAQADAAAAAQABAACgAgAEAAAAAQAAAO6gAwAEAAAAAQAAAIQAAAAAyiTvzQAAAAlwSFlzAAAywAAAMsABKGRa2wAAIsdJREFUeAHtXQmYFNW1vt2zMQsDw7CDIKKoILiigs8nuKDGxKgRoxLZkhDFaGJc8mL8BKKJMcnTxJcYg4qCMYkao1mMu2A0IriACIggEllkZ4bZt+5+/189t6em5nZVdU91T0/1Pd8307XcuvfWqfrrnHvuOecKoUlzQHOg23Eg0O163M07PGfOnLyWlpZ+gUCg4eGHH67A7US6wy1dddVVxQWBgpGhSKgskhPhe7Ortrb206eeeqqpO/Tfb30M+u2GMv1+GhoaSkVYXB5piVwxffr0I+bOnVuS4X0OXHnllWU5OTlnhgKhB0RQvIJPzVJ8eG4pLy/vneF99233cn17Zxl6Y/n5+bnhlvDYsAhPDwaCO+tr61fNnjn7XwDES7m5uesXLlzYnCldnz179mAREl9EX78CsJ4cEREN1Ax5OBq4XfcgqO0MARiGRCKRCwCQBU3hprUAyxPhcPglAHxrRUVFPVRRAjkt6vTUqVNz+vXrV1hXVzcCEvWr6Mc0tD0Mf1ozAxMyiTRw0/w0ANJmwGB3IBRoAWgl/zlmLAQ8x4dD4fHYrm1uav6kuLh41cyZM98PhoPvNoYa1z3++ONVXnd3/vz5wa1btw5Ev8YHIoEJdbV1E9DGOOzHla4BEWhB2T3Nzc0tXvdH1+eOA9o45Y5PXpYKTJs2rSckKgFyUyQcOQO/BLDyWRAkONeAv12Qgi/miJzFJbUla+958p4G7CcliQnWPXv2FNXX15+M+r8ByToJ9ZfhLx9/SukKIEeCwWAjevkyPjr3osfvLlq0qAblk+oDrtPUCQ4oX5ZO1KcvTYADN9xwQyHU4ZOAiSsAoMm4dCT+8uyqMIAcEGsgrf8OIL0Cqbfqscceq7W7pvVcYO7UucX1JfUnQlpOQZsXAoSjiUeHa6vxgViPdl+NBCJP79q1a93zzz/f6HCNPp1iDmjgppjBbqrH2DIfavFgAJGAuhpS+HgX11HSVQSCgQ8ArDuGDRv2BiSpUnXF8Vyow6dDsi6AfDwG11ENtn32qPMgyv4dYF0C7WDVxo0bK5ctW6as30VfdRGPOWD78DxuS1fnggNQo0sBlPMB4KsAnBMh6fqaxsLxaggDaI8BissBznbgwvG8oAhODEfCX8PFds87hLYqANSNKP9cbiT3iYWLF26O16A+3rUcsHuQXduzLG+dAC4IFowKB8JnAW5TwY6x+OMY1GuqR/2rUOmz+HsDwN+0ZMmSA9jWY1evOe1hfRq4HjIzRVUFoErn9ezZ82SAajrGp5MhgftDOha5kMTWLhGM9HSqgSTejuv/BseKJ6uqqj7CtFPIWljvZy4HNHAz99koe3b11Vf3h/fVaAD4aIDvaIBvFGTjMEjNQVCvS3EsZmzCPoFK49IWlKPauwGH1uZF8tY1Rho3uzRqKfuhD3YtBzRw08R/SM1CSM3TIDVnQVo2BHOC927evHlDZww+dJgYOHBgbmVlZW5eXl4wWB8saspr6gUjVxH+Io2Njftxe1UwfLXAet0yZsyYFhiqwgnecgD+1bktDS0nYaJoDryoDsGH4DPU8SZ+X4S3195M8vZK8N66bXEN3NQ/ugCcKIYDrPMh7WggymltshK/L8Aq/DTU1bcffPDBHQBCxowr+VEA4A8JRoKnRYKRr8DSPRn9tTplVEHS/xPHF8GgtkwDuPXJpuFHAzfFTAYASkqKS14EaOlwYeU3gdqAo58BtP8AgBc99NBDH6W4S7bV0zkDU0dj0d9vAKzno/Bg/PXAn7Xv5noOQoO4o7q6+pd6rGxmS+q27R5G6lrNoppnzZr1cwDgJpe3XAsArwBEngmGgisbw43bioqK9qVSkuHDkl9YWNgPH43hkVDkVLR/MdqnUwjB6ppwXRhaxdcXPbroUdcX6YJJc0ADN2nWOV84Y8aMkXihP4TxqNC5dLsStPBSld4BMGwI5ARWAkjLWRfcDKvblUxi57rrriutqak5HgauCRiz0kd5FIxXQ1BVL/zFjFtJVF3R3NI8Dj7V25O4Vl+SAAekk3sCl+iibjmQF8y7HIHnhQCF20tkOY6Dy/mHa8dBEl5GRRWSu3bWzFmf4PhqgI0fhE/DwfB2SMuKQFMgFMmPhOECGYGhKhAKhQI4novfvgD8UMQAH4brOBd8XHVV9Sj85st+yV8c6xShnTKMdWejkh91qiJ9sSMHNHAdWZR8AYD2HEjK5CswXxmtphj1HYvDxxpgo76E46GWUBPkZLNoEc2I8Q0hwigHwM7F8QKUyPOsD+b+KLbZDryupuCUBq6CP14e0sD1kpsd66KESwfRo4p/BqULqLI98y++GhPN+3o7NRwIpqZaXSs5AAD1yTZOQF3WdpM0PHQN3DQwWTehOeA1BzRwveaork9zIA0c0MBNA5N1E5oDXnNAA9drjur6NAfSwAEN3DQwWTehOeA1BzRwveaork9zIA0c0MBNA5N1E5oDXnNAA9drjur6NAfSwAEN3DQwWTehOeA1B7Lb5fGRLZO8Zqi5vl0fLDbvZs92ivkaY+SsEcti21m2kV3uaXyhgmISIm3OgHP+pCx71n6+3QWIflomsgjI2QFcAjZHzNNg9TN2Y/e2QMwYMT+259MN/wN3yZalGrA+fXvj35bvwetf4GopG/+1zpYzYTHZr+qzP4EbHcsuzZb3U9+nLQd8KX39OR0UFBq0tu9yVp2cJ/gh9xn5D7gc02rSHDBzwIcfcn+pyou3zMfzmmd+Zn7c5kPLCwZET6zDV5IXEEU5AYFd/AZFPtLMVTQhd2MEiwThX3VzRFQ1h0VjCAeymQKYLpo+YrJfWOA34Pr67SzODYghRbmiX4+gOAS/R/bKEyN75hrHgF8xtDhX9MkPitUVTaIZoCWAPz7YLD7C37bakNjXGBI760PiII77mlHx0OkjY5V/PKei0jbeI+uWx/lVLYA0/e8BPcRXDy3GbwGAmSMI4Hwcj/fVPQPlzUSQEsh1LRGANyze398onvhPrVi2q8EAd9aAmHP5ApLXBxTv2Xe/W1uMBel8QvnQe88c2ENcMLRIfGV4kRhUKJcb8vYGP4f0fWFHvfjbtjrx1t5Gsbch5G0DmVjbjBG+eOd9cROG1dAHBohCSNHJAOx9J5eLYcU5xjjW+u5TctZjvMq/XQAe1eCNVUipjDX4qArXYEw7oiTXkMj9CoJibFm+GI59joN74I8S3PzQ+bVrQZ2fVLeIBzZWiz9uqRX7UQ8O+ZN8oi6bn6G7B5WJpnX6H3dzo9TcI3uK2Yf3FCeWx9Ijx54HMfTOvkbx0uf14r0DTWIjwLqjdawaK2SzQdV6IKT2iJI8cUKffHHWoB7ilH4FoheMW2ai/epjfAQe21wjfv9pjdhe50MJTCNVSCww33eXbyfhY+0OuNoLKSXPlpbgo2Fguv+UcmMca24Ew1EYlFrE81Bl71l/UGyGRPSShsK4Ne2wYmPsfDgMXLRQm+ltqM53rT0oXsbHgtJdU4o5wA9KRLzu1s/aHrgasCl7WrlA7b0nlYkrR5SIPlBpzUT193vvHhArAZ4DsACnivjwSwDY4yGFrx7VU1w8rMhQp2V7nEb682d14hfrDhoquTyuf1POAUdvr/jAzZI50ZQ/AkUDoyFl/w/j2EkYz1LqSvqwskn8ZM1B8SdYfNNNGPoKWqOvP7rUGGeXmiTwcnxAfvRBpXgNVmjODWtKCwdswWt6bUyd0aA1McPbzUuHF4t7x/fB3GtOzEhEg9NtqyvF/RuqRA115C4kGrAoeb9/TC8xDoYt+YLsgcV5Hvr4OIxX1ZDEmtLAARunkY7zDBq0KXsiVEcJ2gEwFElAUJpdsmyPoZKmUCt2fU/8bqytbDYMYQTxkaV5hiW6OBcWwIHRZX7XQ5Wv7eIPjOsb6t4FDxUXfzcgnv3VMuttyPen7biP5kPbbqprtzgve+PoUnEzpFgZPJtIlLIPbaoRN793IGNBUIB+XwNr9w3o+yHwyuLLQjsVjWW/+qhK7PCj1dl4Ohn2TzGF1V7iRqXtpAzrdrfvzrxje4vvjW4DbSNAe+2KA+JuWG0bMthiy66thJcVjWV0r6S7Jcfkp/brYcwxr8WYvArzxppSzIGgOFQ886vF5lbamzO7+Vyo+cYyYZsGn28fVSq+BRW5d6ukpf/w9Df3icWYK+0Ohh7aouhddct7FeLNPY2GxOV9XYf74rxzX4tFPBP47rs+MD+axX+iDbiWE767+S64oWmHlYibx5QiKCCq2NDwdNnre8VfttYaqnK8Lh0GT6ejIOHSRcOgBnM+GX4acYl+zdeu2G/4N1PGUvL+YGwvzAWXxD5KcS/WJzznQBtwo95HnjeQrRVybpTjWjk2pCV2zvJ94o09DYZ7ooovBM43jugp1l80RDwysW+7qSJVeS+O0atqxsgS8eqUgeLuE/sY7pHx6l2DqKN5H1QIGtQoiWm8Ing5rcXxsKYUciAaIBFroA24sUN6o7McKIf6eNcJZYYU4+tMA+zNUDXpzB8vLpYAWnbuILFwQrkBglPhkkg1O9V05qBCOIEUG4EM38Uc7sMT+orTMZ8bD4b/hrp855pKwTln0gBoEz8EeMeW5cW9JtX3kI31m4E7LxsZ4PU9U/DcOra3OKVvQSxI4NeYn33qs9q41mPG1L5x3iBxWv+Cdi//fBi1DoXanCo6vGeeuAzRR1ItZ9/px3wfpqy+iMikeEKUY176M3/ealU+qbxAzME4nvHAmlLEAUsecDNwU9RidlU7BRLsgqGFsXEfJRSBW4E4WBXRT3gp1FSq1lbi1BH9mFNBVHPZz6lwCLHScejLL+COSWcR1biXY9xff1wtXjT5MU/HWHcitATWqyn1HNDA9ZDHdBNklA+NSyRakG9fXSG2IvsEX3YrDYX31HNnDbCVVGdDAl4FUHhNEwCymRjbMsxPRaPgeHHHcb0Nyas6T5X/p5jOehfTRbw31nMTDHFH4DpNqeeABq6HPJ4+slicALWR+aBIv4VUokGHzhZW4jTK05P6C6qrauhEr2BdPz6+t+jfapm21pPMPq3IlyOjBiWrHRG8ND4xRlhFjAP+E1wgtyOKiUSV+RK4S+opIhW3vD2mgesRPwmsiw6JGnlY5TuQRH/YUoOg9I4qMoH66Gn9EHtbEHccae7WYDg+3HNSH/OhpLf5IaAU5zSOGzoZY3UayY7prQY556NX7GuKzUlTOxgGjcPuY+SmXV3GngMauPb8cX32Uhh5juwV9SyigL0f0vY/NS1KFZlTPpRicbTUDm2y3EWQZByTdpbGI1Cf7dOK7Za+fEgRxrtFHcIPeT19lh/dXC0+bY0XpqHtC0OKRJl2zHDL3qTKaeAmxbb2F3Fsy/xQgwqjY1tK25XIWKFyxOcY8LZxvURhAsBha0Uo/3PMs1oD3tv3xH6PuasugcGJ49tEiB8OWo0nY5pIZWmmlZljXRlw/zUE6NM90v2nIZHe6LLkgAauB+8Bp1AoaaQEXfRJjdgKaauiBZjiMUcHqcqojhEEzCVFg1EyxPBaxtvOPtydimxtg6CfDmPWmF4dVWb6ND+NgHs51uXY+JS++cbHxlqP3veGAxq4HvDx3MGFgqlgSAx5o7RVxdUyzSrHl8l6GXGqhWNIeiolSmMxRv0mpKaMTkr0epbnfY4HIKXxzVwH82Ex4RydTfiROR/qcp+C9jEs5vJ6u3Mc0MDtHP8EpQsNN3LM+M/t9Ub2RVW112KqqLQ12EB13s2xXrj+ruPLEpJmtPJ+CePUeNZhN+2yDKd8GGTPGF0r1UHsLoU/877WFK9TAHImC1Cp1tZr9X7iHNDATZxn7a7geHEQXlASQ/Re342XV2FJpicVXQmTlbayUarjx/TOEzchTNANcSg9sX8PcQ2kLSVhZ+lsOJgwEyVjjK1Eh4zdrcAtQcO8Zwbga/KeA5qrneTpsUjvIuctOWf7GeY0mafYSlMxb9oZw5K5vmIMWGdhrOo0D8trRiHq5+soy3G1F0R1nR5S8mNlrpPxuZ9UtQjGG5P+Cx+MUq6NoslzDmjgdoKlVFsZYC4B+c7+JnEAycStRDWahiEmJbcjWmX/BYntRKxlMKT8nceVCSZRj0ccz16AsSb9jp2IUNsCgxqnsJzoDIyxhyv8kolXfry40BiJkrlES1wndiZ1XgM3KbZFLzoKYz2uFiChswbJyisViaMmIGMErbIK7bJd6w9vqhYXL90Tc2Zod9KyQ1WVEUSck1UR26L/83VH9XRsl9cTcLe+X2GsZEADkx1xjMvABNVHg9NCkgcMkOAqCrRoa/KWA5qlneAnpY40NtEveVN1s7GwlrXK07FYF8d8dkRpuwApUJlH+Ztv7bcrGjvHfMzMrsEgeCtx6ohzr4wHdqKDiBV+Cilh/4wIpn9iTnb5XmepfxyGCDJBgLl+WtVlFkjeMYMoVONh8zV6O3EOaOAmzrPYFYdgfR+pJnMdH04BqYTVaMx9OkXNEDTSqLUEy388B+u0ExEYBCj9ic1GL/bpHBiRVJE/1jrZX66W8Af4HFPSrj7QKN6Dyu9EnLeW6XjMZXci1I8fMXyHDOI0mQaumUPebGvgdoKP9A7q2SpJt9e1wFOqo18yx7d8ybksph0txIJbZpr11r6Yymk+bt2mR9WZSJt6OYLhSWxlDKzONyJSx0k1Z/kPoSJzoS+Ob0n8+KyGyr+1NXDAOKj4NxLBESrg0jDFj5jMp8XpsngRSIpq9SGXHNDAdckoVTGqqlKSbkfoHteftRJfcLpE2sGWqiod9c3EJS+vX3nAfCjuNsfPTKPKcEKqxnMw7mXUkRNRpWVWDkpcMzGr4yZYh+2I2gat6aqPAz2oZKaP4SU5WuLaMTLJcxq4STKOgOVqd1wDiEQpU68ALi3PDsJWrKtoVob+MbroL1vrHHvILnCce+u43sa6ulzMyw29urNB0D3TGnZI7YEr19sR1V+Occ0quizPNYckK3ICdp8seYX+TZQDGriJcqy1PF9HvpNOryWtzioXQXOzK+AiqSKOE7+zcr/Y7QAiXkupTuf+n51Y5krCUapyORGpIpvb34P2dtWrI5vM5fjBUOGSY1z5MaBU1jNCZq55s62BmyQfORViNro0YGwXinRUlVlG9XKbm7UbT3LV+OvfcacyU/qpLL3mtrjNqKXntteJZ5AmVkWUlnRhVDmSmMuzLdWUEC3krT4YxkfL6eNmrlNvu+OABq47PnUoRRWZEkdSlSFl5F7bb1+83E7OQzIcru2qti0CgONQBqx7RXTL5Orz0vKrqpf3Q/BqykwOaOAm+Vw4jjMvH8IMGNJQZa6Sai6K2tJBgMSOaOi5bVWFsdC1XTk35zYh3czjmG7yYqHsEL4qCiWj3fBBY9/NU0m8jAZu4jxL6ApOi9jDErmJHfyIKfdo/OJi150hqsgvIBDgScTOOhE1CifDEp1FOESwEnMtwyZnEK3jilky6yV6P0EOaOAmyDBZnNKW0ylyHFgCfVhlhNkP32VZRl5r/XUTI8txJ6dtHk1SZSa86BH1mw3Vjv3hCIBztE6+1eSBSqLSGBdsHdiz3x2hbeWA3k+UAxq4iXLMVJ6J4BpaxSkTuhUpkEsppxBKplqEOMEh26IszHliukWqLMGyTLzfzXDHXLK5VnwMVdmJaKHmagzmMbz1GlqNo+P6jrBk5BAuN2gHppakhdlah95PngMauMnzzpjrrGkdwDJHcrFiwpYpTDk9Ygfe45Ht0Q0RIlw9gCqzXX3WuqgZvLijASqy2opsLc/II6q7drQNDid00bT2gywgL6S3FMfSMszPrj59LjEOaOAmxq92pbfBQ0g61NMnt1hhPqbEpZSze3n5oo+Fm6Ib4piZK+f9zuIiGe9aAut9uDA+sLEq5s0Ur6w8TmeOwxVZLuR5/n4CCc4PkpWi0jon5phCHjkZ56x16H1nDmjgOvMoboltkH4y9pQGJs5rqpwtPjrY5AgaJmJzS7RC37O+SjBw3YkY2L8E4+K1lc4qsqzraARFjIT7pB3xY6SKPba6eG6GD7R0f7SrT59LjAMauInxq13pjfA+ovGJxFgDZsPopZC6K/Y2KVO1miu7EkngMLR0RVSZt2HsePvqynZTUtaLKe1f3RmN/LGei7fPONuTEAAvVd145dbhQ6BK9s4YYLp5kug2ybG1DDiIV5c+njgH7D+rideXVVcwvxIlymkACKN0GKNKa6wMz5PM4Jq4n8OF0C6YfjAk9rdGlRoLhMnr7H4pxagy01h1JjJHqky37BsXHDPPN9vVyXNnIbsFs1HaEWNu+adyHGHWi96tH69VUNGlRmJXnz6XOAc0cBPnWbsrmDliH6TusNxcI1VLX6QkZZpSMxE4/9hWb2RH5BgwHjHn8u/hHCEzSMQrJ49zjMmFt/jnBY3Dh+e8IYXKFQvM9TO9zmetYYDm4/RLHo2xurSu0wdbGu/M5fR25zkQ/y3qfN1ZUcPbWJ2dzhEkhtQdC1WRc7pW+it8g508pBgmuGhiX+uladmnz/FFSOHKAHw7opGNS4fSh9pKlNSDsZoDp5GoHr8JgEvjnbWs3u8cBzRwO8c/I1cTDTVSHf0CJNbAHh0VGeaj+jdA7mSoYd7i7x/jLvVqJ7seu5xAuwxZKJkw3Wls+/LnDeID3IvKqeQc5FLu3yP6Si3HvTLxHEYRmlLAAQ3cTjKVnkOvY6wppS6lzjAEmVundPn+/gwqrXX8q2r+pyeUiW/GSQKnKt+ZY+wns0DeMLrUmH+1q4tjWkYUqZw4mEKHjiQylQ9T7+xXTBfZ1a/PueeABq57XsUt+RqAux1TQyQapy4ZVqx0YKCx5llE+qiMOtbKf3NKH6yLW2Y97Ok+Je2FUI/vxoeCFnEn4uJeHLeqrMRMncOMjiQa7TgO1mqyE0eTP6+BmzzvYlfSBfFlOO/ToZ50CZakZGpSlcvg/647KHYA5E4aJOeDb0USOC5+7QZUsc643BgIK/YtY3qJ+04uN1KtOl3GMS1zU22ANdlKXGrkPENNjnpbPYFynD+m84em1HBAA9cjvj6B9KaftlpaOe3DsSotzFYiyOevrnAtjbjC+xvnDfRU+jK4nxkgKdHpteVEHA78Fuv9voQ5YW5bieNj5riCADe8qZ6BViE/Ytayet8bDmjgesNHY9z3CnI4HWhdN+jrGKNyiRCVJxVTxjysyPUUryucXhmtyJ0cr7zTcaq6dP7f06ohOJX/C8a1T8PPWWUVZ0bJSzE0kEuS/An3xphfFcCd2tHn3XNAA9c9rxxLPoSVCNbDvZEqIkP1rj+q1FixTnXhD7BqwDvI7OhGnQwjWv1fcOLwkqiuq9ReaxtcMvR+SFvmqLISDVtMyH5MWVTacpzP/MxOieas9ej9xDmggZs4z+JewekPhs5RmpHOxdTQl2H8UTldcFrowqW7BQ1WCu2zXRuUXrRce0ns4wZIRjt6B6C9bVVl3LZ5b5z3lffH8Tv9p918jOza1eecOaCB68yjhEo8jpSqnK+l5Zj+yz+EgSneYtD09f3Sa7uNhbDtGuEU0mp4aHlJuxFI/DGkaLyPBqXxTzB99QrGtaoyXD/o+qNLjUXP2C+W4zKbbr2+vLyXbKxLA9fjp85g9zvWVIp1rZKHEUN3YbqFCcRpvLES1covvLLbWD3Aeo77lF70zvJaijG4nZZfht1Z6S20x8ySTFKnAi3XQbp1XC9j/VveEy3Ov1hXhbWTOtZlrVvve8MBDVxv+NiulvWInOGLLFXm8QiU//mJfeLmlmLupgnP7xS//KiqXT3cIXBe29V+pYEOhZI8wNUXGOgviV5Of0Y+qqvf3m9Mb6k+FjS23YhppPMx/cPkeDR0/fTDg8bHReVNJevWv95yQAPXW37GansS00OPfVobCzbntA6DCJgSRkV0mbwBUm7q63uM9XtkGcMwBWeGVBBDA6WBitM3P/mwUlzz9j5jPSFVe5yXnoulTri0JzUJflQe2lQj/grJzGVUNKWPA+q3KH3t+7YlvtR3Y4xIdZNxsSS+8PMBXukWaBy0/KPEO+7vO2LSl6o0Y19TQQQrA+z5kfnSa3vEnWviu2RSJb72yFJxo8k18lksj/Kbj6uU6nYq+qvrbONA27Br8Zbo29V2Tm95wAFOCz1yWl/Ds0g68DPtzA+RJ5lzvnZMHws3xAuHFoofQxVNFVH15UugcmOUbTLb47cxtfUdGKOYj4rEpOrMffW+iyU5ZT36t5McmDEihtfYhtDA7SRX41/OjBCPIFyPkUMSvLTCTntjn6MTBB+QHbjjt+rNGS4T+j+IVroG0laq+UwTezu8v5jLSjUO9qZlXUsHDpiAq1XlDtzx/gA9jqa/uVf8ESqpDP87G/OfS6cMdMw20ZWgpcRnfPBNMEYRtOzLM1CPb3rvgHgXklaD1vt3xW2NbcANiGVuL9LlEucAF4z+1vL9GBNWx/yUmS3i5XMGiO9CBVUtnpV4K95cQV/mS+HL/ChU/KnwQ6b1mMN0Lr59M0BLq7mmruVAG3Aj4vWu7Yr/W+c48ha8+NdgukXG7xIk947vI5aeO1AwEL2riZFID5xaLhZOKDfia6mq0z3y++g3x+VerDnU1ffYLdu3CNY24Ia1xE3HA6V6ySCD01/YacS2ynV1TulbIF46e4D4w+n9EGmT2yEQP5V94wIMDEO8HQtj/+OsAWLW4SWGrzWl7GqMY+eu2C/uwxyzKqtjKvul6zZxwCJYO+ZYMZXVm6njABPKnfPybvFVqKLMeCENP1cgIP2LsCS/ibxOP4PvLzM5porokslxLIFKv+MhSOrOwAESE+D9bmONeBDqMed79Xg2ypdM+d/6mFq7s2TLUlggJmVK57KlH4zfvQfqMoPRmUHDTHSQ4Fq2zCjBIAbV6gHm8k7btBIPR1K7U/sViCtGlIgzBhS0Cz2kIW0Z2mLCdbapKUM4YLIos0ftgfvIlkkiKJZmSFezqhuUdFw4jA4aM7GqARe7kw8HGqvhxFEBKfgBgg1o2WVUEYPyGczANWpZJmJarJar5bEOjqH5YWCSc46hJwKwXMu3BGliKXFJvJbWbk7z3AvAvrc/GiRhnNT/MoEDC8SMEfPNHZHvRtuxxVtYYF7bAb2Vbg6MQuQNs0pw3peSseNDivaIluqdSLTOpOPRBbQJQayqALDS8aMP/voBtPxVEbBqJABgLikGy69EfLBeWU/FqS491gG07I36ndAqc5c+Kflg6NV0RGmu4bU0BdKyHAAsNknKRDtJY1M9rGF7EdL3NmJtuTI91eE6IFiPYRPlZprKW1Rk2araOBUSCwQ92/R4V/Ip7b+UnZw+op8yp484l8oUqEdAGh8BqzNX0xvbG4tzYZveWNbFsekfXQXHf047McSQ9TASiEYxhvOp0tCk/SZ1g/YcCIvJ8QqoJa4srdVmyYmM/uX4mIEL/CVFJWvE1v84WlL/z0gOcM6WwnPWiGXx+mcPXF4VBS+35vGfJs0BzYEUccAFYGXLzsCVJfnbBmKOjs8wn+rSba3Sdyn7u13jFi+kLu0/HSuk85ONhLX2MTHgWq/OlH09jZUpT6I79ENppe0OHTf3UT1PYC7RHbYT+FJ1h9vRfUwhB6R0S2ET6ajaH8AlpzJJ/UnHk9NtJMcBn3zk/QNcWuE0aQ7Yc8A374g/xrjyYWnHEckJ/WvlADWy6SMmWw93133/SFw+AS11u+t7mPp+W8LiUt9galvwl8Qlr7SFObVvTPes3ReWZDPr/SVxeWdR44NvxjLmh6W3k+KA70BLLvhP4spnq901JSey+deXoOUD9S9weXcavORCtpJvQcsH6m/gyldWA1hywv+/Cfj7dmdmZAdw5RMigOljrX2bJUf88Sudbxwiavxxs9G7yC7gmp9cVApLLmROwIS5j3o7PgeSdM6PX6E+ozmgOaA5oDmgOaA5oDlg5cD/A+qplueDZ5IZAAAAAElFTkSuQmCC;aspect=fixed;" parent="afDIatIIUUOGtq9c_muA-4" vertex="1">
          <mxGeometry x="260" y="58.129999999999995" width="50" height="27.73" as="geometry" />
        </mxCell>
        <mxCell id="afDIatIIUUOGtq9c_muA-36" value="square-system-api" style="shape=image;verticalLabelPosition=bottom;verticalAlign=top;imageAspect=0;image=data:image/png,iVBORw0KGgoAAAANSUhEUgAAAO4AAACECAYAAACXgRceAAAAAXNSR0IArs4c6QAAAIRlWElmTU0AKgAAAAgABQESAAMAAAABAAEAAAEaAAUAAAABAAAASgEbAAUAAAABAAAAUgEoAAMAAAABAAIAAIdpAAQAAAABAAAAWgAAAAAAAAFKAAAAAQAAAUoAAAABAAOgAQADAAAAAQABAACgAgAEAAAAAQAAAO6gAwAEAAAAAQAAAIQAAAAAyiTvzQAAAAlwSFlzAAAywAAAMsABKGRa2wAAIsdJREFUeAHtXQmYFNW1vt2zMQsDw7CDIKKoILiigs8nuKDGxKgRoxLZkhDFaGJc8mL8BKKJMcnTxJcYg4qCMYkao1mMu2A0IriACIggEllkZ4bZt+5+/189t6em5nZVdU91T0/1Pd8307XcuvfWqfrrnHvuOecKoUlzQHOg23Eg0O163M07PGfOnLyWlpZ+gUCg4eGHH67A7US6wy1dddVVxQWBgpGhSKgskhPhe7Ortrb206eeeqqpO/Tfb30M+u2GMv1+GhoaSkVYXB5piVwxffr0I+bOnVuS4X0OXHnllWU5OTlnhgKhB0RQvIJPzVJ8eG4pLy/vneF99233cn17Zxl6Y/n5+bnhlvDYsAhPDwaCO+tr61fNnjn7XwDES7m5uesXLlzYnCldnz179mAREl9EX78CsJ4cEREN1Ax5OBq4XfcgqO0MARiGRCKRCwCQBU3hprUAyxPhcPglAHxrRUVFPVRRAjkt6vTUqVNz+vXrV1hXVzcCEvWr6Mc0tD0Mf1ozAxMyiTRw0/w0ANJmwGB3IBRoAWgl/zlmLAQ8x4dD4fHYrm1uav6kuLh41cyZM98PhoPvNoYa1z3++ONVXnd3/vz5wa1btw5Ev8YHIoEJdbV1E9DGOOzHla4BEWhB2T3Nzc0tXvdH1+eOA9o45Y5PXpYKTJs2rSckKgFyUyQcOQO/BLDyWRAkONeAv12Qgi/miJzFJbUla+958p4G7CcliQnWPXv2FNXX15+M+r8ByToJ9ZfhLx9/SukKIEeCwWAjevkyPjr3osfvLlq0qAblk+oDrtPUCQ4oX5ZO1KcvTYADN9xwQyHU4ZOAiSsAoMm4dCT+8uyqMIAcEGsgrf8OIL0Cqbfqscceq7W7pvVcYO7UucX1JfUnQlpOQZsXAoSjiUeHa6vxgViPdl+NBCJP79q1a93zzz/f6HCNPp1iDmjgppjBbqrH2DIfavFgAJGAuhpS+HgX11HSVQSCgQ8ArDuGDRv2BiSpUnXF8Vyow6dDsi6AfDwG11ENtn32qPMgyv4dYF0C7WDVxo0bK5ctW6as30VfdRGPOWD78DxuS1fnggNQo0sBlPMB4KsAnBMh6fqaxsLxaggDaI8BissBznbgwvG8oAhODEfCX8PFds87hLYqANSNKP9cbiT3iYWLF26O16A+3rUcsHuQXduzLG+dAC4IFowKB8JnAW5TwY6x+OMY1GuqR/2rUOmz+HsDwN+0ZMmSA9jWY1evOe1hfRq4HjIzRVUFoErn9ezZ82SAajrGp5MhgftDOha5kMTWLhGM9HSqgSTejuv/BseKJ6uqqj7CtFPIWljvZy4HNHAz99koe3b11Vf3h/fVaAD4aIDvaIBvFGTjMEjNQVCvS3EsZmzCPoFK49IWlKPauwGH1uZF8tY1Rho3uzRqKfuhD3YtBzRw08R/SM1CSM3TIDVnQVo2BHOC927evHlDZww+dJgYOHBgbmVlZW5eXl4wWB8saspr6gUjVxH+Io2Njftxe1UwfLXAet0yZsyYFhiqwgnecgD+1bktDS0nYaJoDryoDsGH4DPU8SZ+X4S3195M8vZK8N66bXEN3NQ/ugCcKIYDrPMh7WggymltshK/L8Aq/DTU1bcffPDBHQBCxowr+VEA4A8JRoKnRYKRr8DSPRn9tTplVEHS/xPHF8GgtkwDuPXJpuFHAzfFTAYASkqKS14EaOlwYeU3gdqAo58BtP8AgBc99NBDH6W4S7bV0zkDU0dj0d9vAKzno/Bg/PXAn7Xv5noOQoO4o7q6+pd6rGxmS+q27R5G6lrNoppnzZr1cwDgJpe3XAsArwBEngmGgisbw43bioqK9qVSkuHDkl9YWNgPH43hkVDkVLR/MdqnUwjB6ppwXRhaxdcXPbroUdcX6YJJc0ADN2nWOV84Y8aMkXihP4TxqNC5dLsStPBSld4BMGwI5ARWAkjLWRfcDKvblUxi57rrriutqak5HgauCRiz0kd5FIxXQ1BVL/zFjFtJVF3R3NI8Dj7V25O4Vl+SAAekk3sCl+iibjmQF8y7HIHnhQCF20tkOY6Dy/mHa8dBEl5GRRWSu3bWzFmf4PhqgI0fhE/DwfB2SMuKQFMgFMmPhOECGYGhKhAKhQI4novfvgD8UMQAH4brOBd8XHVV9Sj85st+yV8c6xShnTKMdWejkh91qiJ9sSMHNHAdWZR8AYD2HEjK5CswXxmtphj1HYvDxxpgo76E46GWUBPkZLNoEc2I8Q0hwigHwM7F8QKUyPOsD+b+KLbZDryupuCUBq6CP14e0sD1kpsd66KESwfRo4p/BqULqLI98y++GhPN+3o7NRwIpqZaXSs5AAD1yTZOQF3WdpM0PHQN3DQwWTehOeA1BzRwveaork9zIA0c0MBNA5N1E5oDXnNAA9drjur6NAfSwAEN3DQwWTehOeA1BzRwveaork9zIA0c0MBNA5N1E5oDXnNAA9drjur6NAfSwAEN3DQwWTehOeA1B7Lb5fGRLZO8Zqi5vl0fLDbvZs92ivkaY+SsEcti21m2kV3uaXyhgmISIm3OgHP+pCx71n6+3QWIflomsgjI2QFcAjZHzNNg9TN2Y/e2QMwYMT+259MN/wN3yZalGrA+fXvj35bvwetf4GopG/+1zpYzYTHZr+qzP4EbHcsuzZb3U9+nLQd8KX39OR0UFBq0tu9yVp2cJ/gh9xn5D7gc02rSHDBzwIcfcn+pyou3zMfzmmd+Zn7c5kPLCwZET6zDV5IXEEU5AYFd/AZFPtLMVTQhd2MEiwThX3VzRFQ1h0VjCAeymQKYLpo+YrJfWOA34Pr67SzODYghRbmiX4+gOAS/R/bKEyN75hrHgF8xtDhX9MkPitUVTaIZoCWAPz7YLD7C37bakNjXGBI760PiII77mlHx0OkjY5V/PKei0jbeI+uWx/lVLYA0/e8BPcRXDy3GbwGAmSMI4Hwcj/fVPQPlzUSQEsh1LRGANyze398onvhPrVi2q8EAd9aAmHP5ApLXBxTv2Xe/W1uMBel8QvnQe88c2ENcMLRIfGV4kRhUKJcb8vYGP4f0fWFHvfjbtjrx1t5Gsbch5G0DmVjbjBG+eOd9cROG1dAHBohCSNHJAOx9J5eLYcU5xjjW+u5TctZjvMq/XQAe1eCNVUipjDX4qArXYEw7oiTXkMj9CoJibFm+GI59joN74I8S3PzQ+bVrQZ2fVLeIBzZWiz9uqRX7UQ8O+ZN8oi6bn6G7B5WJpnX6H3dzo9TcI3uK2Yf3FCeWx9Ijx54HMfTOvkbx0uf14r0DTWIjwLqjdawaK2SzQdV6IKT2iJI8cUKffHHWoB7ilH4FoheMW2ai/epjfAQe21wjfv9pjdhe50MJTCNVSCww33eXbyfhY+0OuNoLKSXPlpbgo2Fguv+UcmMca24Ew1EYlFrE81Bl71l/UGyGRPSShsK4Ne2wYmPsfDgMXLRQm+ltqM53rT0oXsbHgtJdU4o5wA9KRLzu1s/aHrgasCl7WrlA7b0nlYkrR5SIPlBpzUT193vvHhArAZ4DsACnivjwSwDY4yGFrx7VU1w8rMhQp2V7nEb682d14hfrDhoquTyuf1POAUdvr/jAzZI50ZQ/AkUDoyFl/w/j2EkYz1LqSvqwskn8ZM1B8SdYfNNNGPoKWqOvP7rUGGeXmiTwcnxAfvRBpXgNVmjODWtKCwdswWt6bUyd0aA1McPbzUuHF4t7x/fB3GtOzEhEg9NtqyvF/RuqRA115C4kGrAoeb9/TC8xDoYt+YLsgcV5Hvr4OIxX1ZDEmtLAARunkY7zDBq0KXsiVEcJ2gEwFElAUJpdsmyPoZKmUCt2fU/8bqytbDYMYQTxkaV5hiW6OBcWwIHRZX7XQ5Wv7eIPjOsb6t4FDxUXfzcgnv3VMuttyPen7biP5kPbbqprtzgve+PoUnEzpFgZPJtIlLIPbaoRN793IGNBUIB+XwNr9w3o+yHwyuLLQjsVjWW/+qhK7PCj1dl4Ohn2TzGF1V7iRqXtpAzrdrfvzrxje4vvjW4DbSNAe+2KA+JuWG0bMthiy66thJcVjWV0r6S7Jcfkp/brYcwxr8WYvArzxppSzIGgOFQ886vF5lbamzO7+Vyo+cYyYZsGn28fVSq+BRW5d6ukpf/w9Df3icWYK+0Ohh7aouhddct7FeLNPY2GxOV9XYf74rxzX4tFPBP47rs+MD+axX+iDbiWE767+S64oWmHlYibx5QiKCCq2NDwdNnre8VfttYaqnK8Lh0GT6ejIOHSRcOgBnM+GX4acYl+zdeu2G/4N1PGUvL+YGwvzAWXxD5KcS/WJzznQBtwo95HnjeQrRVybpTjWjk2pCV2zvJ94o09DYZ7ooovBM43jugp1l80RDwysW+7qSJVeS+O0atqxsgS8eqUgeLuE/sY7pHx6l2DqKN5H1QIGtQoiWm8Ing5rcXxsKYUciAaIBFroA24sUN6o7McKIf6eNcJZYYU4+tMA+zNUDXpzB8vLpYAWnbuILFwQrkBglPhkkg1O9V05qBCOIEUG4EM38Uc7sMT+orTMZ8bD4b/hrp855pKwTln0gBoEz8EeMeW5cW9JtX3kI31m4E7LxsZ4PU9U/DcOra3OKVvQSxI4NeYn33qs9q41mPG1L5x3iBxWv+Cdi//fBi1DoXanCo6vGeeuAzRR1ItZ9/px3wfpqy+iMikeEKUY176M3/ealU+qbxAzME4nvHAmlLEAUsecDNwU9RidlU7BRLsgqGFsXEfJRSBW4E4WBXRT3gp1FSq1lbi1BH9mFNBVHPZz6lwCLHScejLL+COSWcR1biXY9xff1wtXjT5MU/HWHcitATWqyn1HNDA9ZDHdBNklA+NSyRakG9fXSG2IvsEX3YrDYX31HNnDbCVVGdDAl4FUHhNEwCymRjbMsxPRaPgeHHHcb0Nyas6T5X/p5jOehfTRbw31nMTDHFH4DpNqeeABq6HPJ4+slicALWR+aBIv4VUokGHzhZW4jTK05P6C6qrauhEr2BdPz6+t+jfapm21pPMPq3IlyOjBiWrHRG8ND4xRlhFjAP+E1wgtyOKiUSV+RK4S+opIhW3vD2mgesRPwmsiw6JGnlY5TuQRH/YUoOg9I4qMoH66Gn9EHtbEHccae7WYDg+3HNSH/OhpLf5IaAU5zSOGzoZY3UayY7prQY556NX7GuKzUlTOxgGjcPuY+SmXV3GngMauPb8cX32Uhh5juwV9SyigL0f0vY/NS1KFZlTPpRicbTUDm2y3EWQZByTdpbGI1Cf7dOK7Za+fEgRxrtFHcIPeT19lh/dXC0+bY0XpqHtC0OKRJl2zHDL3qTKaeAmxbb2F3Fsy/xQgwqjY1tK25XIWKFyxOcY8LZxvURhAsBha0Uo/3PMs1oD3tv3xH6PuasugcGJ49tEiB8OWo0nY5pIZWmmlZljXRlw/zUE6NM90v2nIZHe6LLkgAauB+8Bp1AoaaQEXfRJjdgKaauiBZjiMUcHqcqojhEEzCVFg1EyxPBaxtvOPtydimxtg6CfDmPWmF4dVWb6ND+NgHs51uXY+JS++cbHxlqP3veGAxq4HvDx3MGFgqlgSAx5o7RVxdUyzSrHl8l6GXGqhWNIeiolSmMxRv0mpKaMTkr0epbnfY4HIKXxzVwH82Ex4RydTfiROR/qcp+C9jEs5vJ6u3Mc0MDtHP8EpQsNN3LM+M/t9Ub2RVW112KqqLQ12EB13s2xXrj+ruPLEpJmtPJ+CePUeNZhN+2yDKd8GGTPGF0r1UHsLoU/877WFK9TAHImC1Cp1tZr9X7iHNDATZxn7a7geHEQXlASQ/Re342XV2FJpicVXQmTlbayUarjx/TOEzchTNANcSg9sX8PcQ2kLSVhZ+lsOJgwEyVjjK1Eh4zdrcAtQcO8Zwbga/KeA5qrneTpsUjvIuctOWf7GeY0mafYSlMxb9oZw5K5vmIMWGdhrOo0D8trRiHq5+soy3G1F0R1nR5S8mNlrpPxuZ9UtQjGG5P+Cx+MUq6NoslzDmjgdoKlVFsZYC4B+c7+JnEAycStRDWahiEmJbcjWmX/BYntRKxlMKT8nceVCSZRj0ccz16AsSb9jp2IUNsCgxqnsJzoDIyxhyv8kolXfry40BiJkrlES1wndiZ1XgM3KbZFLzoKYz2uFiChswbJyisViaMmIGMErbIK7bJd6w9vqhYXL90Tc2Zod9KyQ1WVEUSck1UR26L/83VH9XRsl9cTcLe+X2GsZEADkx1xjMvABNVHg9NCkgcMkOAqCrRoa/KWA5qlneAnpY40NtEveVN1s7GwlrXK07FYF8d8dkRpuwApUJlH+Ztv7bcrGjvHfMzMrsEgeCtx6ohzr4wHdqKDiBV+Cilh/4wIpn9iTnb5XmepfxyGCDJBgLl+WtVlFkjeMYMoVONh8zV6O3EOaOAmzrPYFYdgfR+pJnMdH04BqYTVaMx9OkXNEDTSqLUEy388B+u0ExEYBCj9ic1GL/bpHBiRVJE/1jrZX66W8Af4HFPSrj7QKN6Dyu9EnLeW6XjMZXci1I8fMXyHDOI0mQaumUPebGvgdoKP9A7q2SpJt9e1wFOqo18yx7d8ybksph0txIJbZpr11r6Yymk+bt2mR9WZSJt6OYLhSWxlDKzONyJSx0k1Z/kPoSJzoS+Ob0n8+KyGyr+1NXDAOKj4NxLBESrg0jDFj5jMp8XpsngRSIpq9SGXHNDAdckoVTGqqlKSbkfoHteftRJfcLpE2sGWqiod9c3EJS+vX3nAfCjuNsfPTKPKcEKqxnMw7mXUkRNRpWVWDkpcMzGr4yZYh+2I2gat6aqPAz2oZKaP4SU5WuLaMTLJcxq4STKOgOVqd1wDiEQpU68ALi3PDsJWrKtoVob+MbroL1vrHHvILnCce+u43sa6ulzMyw29urNB0D3TGnZI7YEr19sR1V+Occ0quizPNYckK3ICdp8seYX+TZQDGriJcqy1PF9HvpNOryWtzioXQXOzK+AiqSKOE7+zcr/Y7QAiXkupTuf+n51Y5krCUapyORGpIpvb34P2dtWrI5vM5fjBUOGSY1z5MaBU1jNCZq55s62BmyQfORViNro0YGwXinRUlVlG9XKbm7UbT3LV+OvfcacyU/qpLL3mtrjNqKXntteJZ5AmVkWUlnRhVDmSmMuzLdWUEC3krT4YxkfL6eNmrlNvu+OABq47PnUoRRWZEkdSlSFl5F7bb1+83E7OQzIcru2qti0CgONQBqx7RXTL5Orz0vKrqpf3Q/BqykwOaOAm+Vw4jjMvH8IMGNJQZa6Sai6K2tJBgMSOaOi5bVWFsdC1XTk35zYh3czjmG7yYqHsEL4qCiWj3fBBY9/NU0m8jAZu4jxL6ApOi9jDErmJHfyIKfdo/OJi150hqsgvIBDgScTOOhE1CifDEp1FOESwEnMtwyZnEK3jilky6yV6P0EOaOAmyDBZnNKW0ylyHFgCfVhlhNkP32VZRl5r/XUTI8txJ6dtHk1SZSa86BH1mw3Vjv3hCIBztE6+1eSBSqLSGBdsHdiz3x2hbeWA3k+UAxq4iXLMVJ6J4BpaxSkTuhUpkEsppxBKplqEOMEh26IszHliukWqLMGyTLzfzXDHXLK5VnwMVdmJaKHmagzmMbz1GlqNo+P6jrBk5BAuN2gHppakhdlah95PngMauMnzzpjrrGkdwDJHcrFiwpYpTDk9Ygfe45Ht0Q0RIlw9gCqzXX3WuqgZvLijASqy2opsLc/II6q7drQNDid00bT2gywgL6S3FMfSMszPrj59LjEOaOAmxq92pbfBQ0g61NMnt1hhPqbEpZSze3n5oo+Fm6Ib4piZK+f9zuIiGe9aAut9uDA+sLEq5s0Ur6w8TmeOwxVZLuR5/n4CCc4PkpWi0jon5phCHjkZ56x16H1nDmjgOvMoboltkH4y9pQGJs5rqpwtPjrY5AgaJmJzS7RC37O+SjBw3YkY2L8E4+K1lc4qsqzraARFjIT7pB3xY6SKPba6eG6GD7R0f7SrT59LjAMauInxq13pjfA+ovGJxFgDZsPopZC6K/Y2KVO1miu7EkngMLR0RVSZt2HsePvqynZTUtaLKe1f3RmN/LGei7fPONuTEAAvVd145dbhQ6BK9s4YYLp5kug2ybG1DDiIV5c+njgH7D+rideXVVcwvxIlymkACKN0GKNKa6wMz5PM4Jq4n8OF0C6YfjAk9rdGlRoLhMnr7H4pxagy01h1JjJHqky37BsXHDPPN9vVyXNnIbsFs1HaEWNu+adyHGHWi96tH69VUNGlRmJXnz6XOAc0cBPnWbsrmDliH6TusNxcI1VLX6QkZZpSMxE4/9hWb2RH5BgwHjHn8u/hHCEzSMQrJ49zjMmFt/jnBY3Dh+e8IYXKFQvM9TO9zmetYYDm4/RLHo2xurSu0wdbGu/M5fR25zkQ/y3qfN1ZUcPbWJ2dzhEkhtQdC1WRc7pW+it8g508pBgmuGhiX+uladmnz/FFSOHKAHw7opGNS4fSh9pKlNSDsZoDp5GoHr8JgEvjnbWs3u8cBzRwO8c/I1cTDTVSHf0CJNbAHh0VGeaj+jdA7mSoYd7i7x/jLvVqJ7seu5xAuwxZKJkw3Wls+/LnDeID3IvKqeQc5FLu3yP6Si3HvTLxHEYRmlLAAQ3cTjKVnkOvY6wppS6lzjAEmVundPn+/gwqrXX8q2r+pyeUiW/GSQKnKt+ZY+wns0DeMLrUmH+1q4tjWkYUqZw4mEKHjiQylQ9T7+xXTBfZ1a/PueeABq57XsUt+RqAux1TQyQapy4ZVqx0YKCx5llE+qiMOtbKf3NKH6yLW2Y97Ok+Je2FUI/vxoeCFnEn4uJeHLeqrMRMncOMjiQa7TgO1mqyE0eTP6+BmzzvYlfSBfFlOO/ToZ50CZakZGpSlcvg/647KHYA5E4aJOeDb0USOC5+7QZUsc643BgIK/YtY3qJ+04uN1KtOl3GMS1zU22ANdlKXGrkPENNjnpbPYFynD+m84em1HBAA9cjvj6B9KaftlpaOe3DsSotzFYiyOevrnAtjbjC+xvnDfRU+jK4nxkgKdHpteVEHA78Fuv9voQ5YW5bieNj5riCADe8qZ6BViE/Ytayet8bDmjgesNHY9z3CnI4HWhdN+jrGKNyiRCVJxVTxjysyPUUryucXhmtyJ0cr7zTcaq6dP7f06ohOJX/C8a1T8PPWWUVZ0bJSzE0kEuS/An3xphfFcCd2tHn3XNAA9c9rxxLPoSVCNbDvZEqIkP1rj+q1FixTnXhD7BqwDvI7OhGnQwjWv1fcOLwkqiuq9ReaxtcMvR+SFvmqLISDVtMyH5MWVTacpzP/MxOieas9ej9xDmggZs4z+JewekPhs5RmpHOxdTQl2H8UTldcFrowqW7BQ1WCu2zXRuUXrRce0ns4wZIRjt6B6C9bVVl3LZ5b5z3lffH8Tv9p918jOza1eecOaCB68yjhEo8jpSqnK+l5Zj+yz+EgSneYtD09f3Sa7uNhbDtGuEU0mp4aHlJuxFI/DGkaLyPBqXxTzB99QrGtaoyXD/o+qNLjUXP2C+W4zKbbr2+vLyXbKxLA9fjp85g9zvWVIp1rZKHEUN3YbqFCcRpvLES1covvLLbWD3Aeo77lF70zvJaijG4nZZfht1Z6S20x8ySTFKnAi3XQbp1XC9j/VveEy3Ov1hXhbWTOtZlrVvve8MBDVxv+NiulvWInOGLLFXm8QiU//mJfeLmlmLupgnP7xS//KiqXT3cIXBe29V+pYEOhZI8wNUXGOgviV5Of0Y+qqvf3m9Mb6k+FjS23YhppPMx/cPkeDR0/fTDg8bHReVNJevWv95yQAPXW37GansS00OPfVobCzbntA6DCJgSRkV0mbwBUm7q63uM9XtkGcMwBWeGVBBDA6WBitM3P/mwUlzz9j5jPSFVe5yXnoulTri0JzUJflQe2lQj/grJzGVUNKWPA+q3KH3t+7YlvtR3Y4xIdZNxsSS+8PMBXukWaBy0/KPEO+7vO2LSl6o0Y19TQQQrA+z5kfnSa3vEnWviu2RSJb72yFJxo8k18lksj/Kbj6uU6nYq+qvrbONA27Br8Zbo29V2Tm95wAFOCz1yWl/Ds0g68DPtzA+RJ5lzvnZMHws3xAuHFoofQxVNFVH15UugcmOUbTLb47cxtfUdGKOYj4rEpOrMffW+iyU5ZT36t5McmDEihtfYhtDA7SRX41/OjBCPIFyPkUMSvLTCTntjn6MTBB+QHbjjt+rNGS4T+j+IVroG0laq+UwTezu8v5jLSjUO9qZlXUsHDpiAq1XlDtzx/gA9jqa/uVf8ESqpDP87G/OfS6cMdMw20ZWgpcRnfPBNMEYRtOzLM1CPb3rvgHgXklaD1vt3xW2NbcANiGVuL9LlEucAF4z+1vL9GBNWx/yUmS3i5XMGiO9CBVUtnpV4K95cQV/mS+HL/ChU/KnwQ6b1mMN0Lr59M0BLq7mmruVAG3Aj4vWu7Yr/W+c48ha8+NdgukXG7xIk947vI5aeO1AwEL2riZFID5xaLhZOKDfia6mq0z3y++g3x+VerDnU1ffYLdu3CNY24Ia1xE3HA6V6ySCD01/YacS2ynV1TulbIF46e4D4w+n9EGmT2yEQP5V94wIMDEO8HQtj/+OsAWLW4SWGrzWl7GqMY+eu2C/uwxyzKqtjKvul6zZxwCJYO+ZYMZXVm6njABPKnfPybvFVqKLMeCENP1cgIP2LsCS/ibxOP4PvLzM5porokslxLIFKv+MhSOrOwAESE+D9bmONeBDqMed79Xg2ypdM+d/6mFq7s2TLUlggJmVK57KlH4zfvQfqMoPRmUHDTHSQ4Fq2zCjBIAbV6gHm8k7btBIPR1K7U/sViCtGlIgzBhS0Cz2kIW0Z2mLCdbapKUM4YLIos0ftgfvIlkkiKJZmSFezqhuUdFw4jA4aM7GqARe7kw8HGqvhxFEBKfgBgg1o2WVUEYPyGczANWpZJmJarJar5bEOjqH5YWCSc46hJwKwXMu3BGliKXFJvJbWbk7z3AvAvrc/GiRhnNT/MoEDC8SMEfPNHZHvRtuxxVtYYF7bAb2Vbg6MQuQNs0pw3peSseNDivaIluqdSLTOpOPRBbQJQayqALDS8aMP/voBtPxVEbBqJABgLikGy69EfLBeWU/FqS491gG07I36ndAqc5c+Kflg6NV0RGmu4bU0BdKyHAAsNknKRDtJY1M9rGF7EdL3NmJtuTI91eE6IFiPYRPlZprKW1Rk2araOBUSCwQ92/R4V/Ip7b+UnZw+op8yp484l8oUqEdAGh8BqzNX0xvbG4tzYZveWNbFsekfXQXHf047McSQ9TASiEYxhvOp0tCk/SZ1g/YcCIvJ8QqoJa4srdVmyYmM/uX4mIEL/CVFJWvE1v84WlL/z0gOcM6WwnPWiGXx+mcPXF4VBS+35vGfJs0BzYEUccAFYGXLzsCVJfnbBmKOjs8wn+rSba3Sdyn7u13jFi+kLu0/HSuk85ONhLX2MTHgWq/OlH09jZUpT6I79ENppe0OHTf3UT1PYC7RHbYT+FJ1h9vRfUwhB6R0S2ET6ajaH8AlpzJJ/UnHk9NtJMcBn3zk/QNcWuE0aQ7Yc8A374g/xrjyYWnHEckJ/WvlADWy6SMmWw93133/SFw+AS11u+t7mPp+W8LiUt9galvwl8Qlr7SFObVvTPes3ReWZDPr/SVxeWdR44NvxjLmh6W3k+KA70BLLvhP4spnq901JSey+deXoOUD9S9weXcavORCtpJvQcsH6m/gyldWA1hywv+/Cfj7dmdmZAdw5RMigOljrX2bJUf88Sudbxwiavxxs9G7yC7gmp9cVApLLmROwIS5j3o7PgeSdM6PX6E+ozmgOaA5oDmgOaA5oDlg5cD/A+qplueDZ5IZAAAAAElFTkSuQmCC;aspect=fixed;" parent="afDIatIIUUOGtq9c_muA-4" vertex="1">
          <mxGeometry x="108" y="58.13" width="50" height="27.73" as="geometry" />
        </mxCell>
        <mxCell id="afDIatIIUUOGtq9c_muA-5" value="okta-system-api" style="shape=image;verticalLabelPosition=bottom;verticalAlign=top;imageAspect=0;image=data:image/png,iVBORw0KGgoAAAANSUhEUgAAAO4AAACECAYAAACXgRceAAAAAXNSR0IArs4c6QAAAIRlWElmTU0AKgAAAAgABQESAAMAAAABAAEAAAEaAAUAAAABAAAASgEbAAUAAAABAAAAUgEoAAMAAAABAAIAAIdpAAQAAAABAAAAWgAAAAAAAAFKAAAAAQAAAUoAAAABAAOgAQADAAAAAQABAACgAgAEAAAAAQAAAO6gAwAEAAAAAQAAAIQAAAAAyiTvzQAAAAlwSFlzAAAywAAAMsABKGRa2wAAIsdJREFUeAHtXQmYFNW1vt2zMQsDw7CDIKKoILiigs8nuKDGxKgRoxLZkhDFaGJc8mL8BKKJMcnTxJcYg4qCMYkao1mMu2A0IriACIggEllkZ4bZt+5+/189t6em5nZVdU91T0/1Pd8307XcuvfWqfrrnHvuOecKoUlzQHOg23Eg0O163M07PGfOnLyWlpZ+gUCg4eGHH67A7US6wy1dddVVxQWBgpGhSKgskhPhe7Ortrb206eeeqqpO/Tfb30M+u2GMv1+GhoaSkVYXB5piVwxffr0I+bOnVuS4X0OXHnllWU5OTlnhgKhB0RQvIJPzVJ8eG4pLy/vneF99233cn17Zxl6Y/n5+bnhlvDYsAhPDwaCO+tr61fNnjn7XwDES7m5uesXLlzYnCldnz179mAREl9EX78CsJ4cEREN1Ax5OBq4XfcgqO0MARiGRCKRCwCQBU3hprUAyxPhcPglAHxrRUVFPVRRAjkt6vTUqVNz+vXrV1hXVzcCEvWr6Mc0tD0Mf1ozAxMyiTRw0/w0ANJmwGB3IBRoAWgl/zlmLAQ8x4dD4fHYrm1uav6kuLh41cyZM98PhoPvNoYa1z3++ONVXnd3/vz5wa1btw5Ev8YHIoEJdbV1E9DGOOzHla4BEWhB2T3Nzc0tXvdH1+eOA9o45Y5PXpYKTJs2rSckKgFyUyQcOQO/BLDyWRAkONeAv12Qgi/miJzFJbUla+958p4G7CcliQnWPXv2FNXX15+M+r8ByToJ9ZfhLx9/SukKIEeCwWAjevkyPjr3osfvLlq0qAblk+oDrtPUCQ4oX5ZO1KcvTYADN9xwQyHU4ZOAiSsAoMm4dCT+8uyqMIAcEGsgrf8OIL0Cqbfqscceq7W7pvVcYO7UucX1JfUnQlpOQZsXAoSjiUeHa6vxgViPdl+NBCJP79q1a93zzz/f6HCNPp1iDmjgppjBbqrH2DIfavFgAJGAuhpS+HgX11HSVQSCgQ8ArDuGDRv2BiSpUnXF8Vyow6dDsi6AfDwG11ENtn32qPMgyv4dYF0C7WDVxo0bK5ctW6as30VfdRGPOWD78DxuS1fnggNQo0sBlPMB4KsAnBMh6fqaxsLxaggDaI8BissBznbgwvG8oAhODEfCX8PFds87hLYqANSNKP9cbiT3iYWLF26O16A+3rUcsHuQXduzLG+dAC4IFowKB8JnAW5TwY6x+OMY1GuqR/2rUOmz+HsDwN+0ZMmSA9jWY1evOe1hfRq4HjIzRVUFoErn9ezZ82SAajrGp5MhgftDOha5kMTWLhGM9HSqgSTejuv/BseKJ6uqqj7CtFPIWljvZy4HNHAz99koe3b11Vf3h/fVaAD4aIDvaIBvFGTjMEjNQVCvS3EsZmzCPoFK49IWlKPauwGH1uZF8tY1Rho3uzRqKfuhD3YtBzRw08R/SM1CSM3TIDVnQVo2BHOC927evHlDZww+dJgYOHBgbmVlZW5eXl4wWB8saspr6gUjVxH+Io2Njftxe1UwfLXAet0yZsyYFhiqwgnecgD+1bktDS0nYaJoDryoDsGH4DPU8SZ+X4S3195M8vZK8N66bXEN3NQ/ugCcKIYDrPMh7WggymltshK/L8Aq/DTU1bcffPDBHQBCxowr+VEA4A8JRoKnRYKRr8DSPRn9tTplVEHS/xPHF8GgtkwDuPXJpuFHAzfFTAYASkqKS14EaOlwYeU3gdqAo58BtP8AgBc99NBDH6W4S7bV0zkDU0dj0d9vAKzno/Bg/PXAn7Xv5noOQoO4o7q6+pd6rGxmS+q27R5G6lrNoppnzZr1cwDgJpe3XAsArwBEngmGgisbw43bioqK9qVSkuHDkl9YWNgPH43hkVDkVLR/MdqnUwjB6ppwXRhaxdcXPbroUdcX6YJJc0ADN2nWOV84Y8aMkXihP4TxqNC5dLsStPBSld4BMGwI5ARWAkjLWRfcDKvblUxi57rrriutqak5HgauCRiz0kd5FIxXQ1BVL/zFjFtJVF3R3NI8Dj7V25O4Vl+SAAekk3sCl+iibjmQF8y7HIHnhQCF20tkOY6Dy/mHa8dBEl5GRRWSu3bWzFmf4PhqgI0fhE/DwfB2SMuKQFMgFMmPhOECGYGhKhAKhQI4novfvgD8UMQAH4brOBd8XHVV9Sj85st+yV8c6xShnTKMdWejkh91qiJ9sSMHNHAdWZR8AYD2HEjK5CswXxmtphj1HYvDxxpgo76E46GWUBPkZLNoEc2I8Q0hwigHwM7F8QKUyPOsD+b+KLbZDryupuCUBq6CP14e0sD1kpsd66KESwfRo4p/BqULqLI98y++GhPN+3o7NRwIpqZaXSs5AAD1yTZOQF3WdpM0PHQN3DQwWTehOeA1BzRwveaork9zIA0c0MBNA5N1E5oDXnNAA9drjur6NAfSwAEN3DQwWTehOeA1BzRwveaork9zIA0c0MBNA5N1E5oDXnNAA9drjur6NAfSwAEN3DQwWTehOeA1B7Lb5fGRLZO8Zqi5vl0fLDbvZs92ivkaY+SsEcti21m2kV3uaXyhgmISIm3OgHP+pCx71n6+3QWIflomsgjI2QFcAjZHzNNg9TN2Y/e2QMwYMT+259MN/wN3yZalGrA+fXvj35bvwetf4GopG/+1zpYzYTHZr+qzP4EbHcsuzZb3U9+nLQd8KX39OR0UFBq0tu9yVp2cJ/gh9xn5D7gc02rSHDBzwIcfcn+pyou3zMfzmmd+Zn7c5kPLCwZET6zDV5IXEEU5AYFd/AZFPtLMVTQhd2MEiwThX3VzRFQ1h0VjCAeymQKYLpo+YrJfWOA34Pr67SzODYghRbmiX4+gOAS/R/bKEyN75hrHgF8xtDhX9MkPitUVTaIZoCWAPz7YLD7C37bakNjXGBI760PiII77mlHx0OkjY5V/PKei0jbeI+uWx/lVLYA0/e8BPcRXDy3GbwGAmSMI4Hwcj/fVPQPlzUSQEsh1LRGANyze398onvhPrVi2q8EAd9aAmHP5ApLXBxTv2Xe/W1uMBel8QvnQe88c2ENcMLRIfGV4kRhUKJcb8vYGP4f0fWFHvfjbtjrx1t5Gsbch5G0DmVjbjBG+eOd9cROG1dAHBohCSNHJAOx9J5eLYcU5xjjW+u5TctZjvMq/XQAe1eCNVUipjDX4qArXYEw7oiTXkMj9CoJibFm+GI59joN74I8S3PzQ+bVrQZ2fVLeIBzZWiz9uqRX7UQ8O+ZN8oi6bn6G7B5WJpnX6H3dzo9TcI3uK2Yf3FCeWx9Ijx54HMfTOvkbx0uf14r0DTWIjwLqjdawaK2SzQdV6IKT2iJI8cUKffHHWoB7ilH4FoheMW2ai/epjfAQe21wjfv9pjdhe50MJTCNVSCww33eXbyfhY+0OuNoLKSXPlpbgo2Fguv+UcmMca24Ew1EYlFrE81Bl71l/UGyGRPSShsK4Ne2wYmPsfDgMXLRQm+ltqM53rT0oXsbHgtJdU4o5wA9KRLzu1s/aHrgasCl7WrlA7b0nlYkrR5SIPlBpzUT193vvHhArAZ4DsACnivjwSwDY4yGFrx7VU1w8rMhQp2V7nEb682d14hfrDhoquTyuf1POAUdvr/jAzZI50ZQ/AkUDoyFl/w/j2EkYz1LqSvqwskn8ZM1B8SdYfNNNGPoKWqOvP7rUGGeXmiTwcnxAfvRBpXgNVmjODWtKCwdswWt6bUyd0aA1McPbzUuHF4t7x/fB3GtOzEhEg9NtqyvF/RuqRA115C4kGrAoeb9/TC8xDoYt+YLsgcV5Hvr4OIxX1ZDEmtLAARunkY7zDBq0KXsiVEcJ2gEwFElAUJpdsmyPoZKmUCt2fU/8bqytbDYMYQTxkaV5hiW6OBcWwIHRZX7XQ5Wv7eIPjOsb6t4FDxUXfzcgnv3VMuttyPen7biP5kPbbqprtzgve+PoUnEzpFgZPJtIlLIPbaoRN793IGNBUIB+XwNr9w3o+yHwyuLLQjsVjWW/+qhK7PCj1dl4Ohn2TzGF1V7iRqXtpAzrdrfvzrxje4vvjW4DbSNAe+2KA+JuWG0bMthiy66thJcVjWV0r6S7Jcfkp/brYcwxr8WYvArzxppSzIGgOFQ886vF5lbamzO7+Vyo+cYyYZsGn28fVSq+BRW5d6ukpf/w9Df3icWYK+0Ohh7aouhddct7FeLNPY2GxOV9XYf74rxzX4tFPBP47rs+MD+axX+iDbiWE767+S64oWmHlYibx5QiKCCq2NDwdNnre8VfttYaqnK8Lh0GT6ejIOHSRcOgBnM+GX4acYl+zdeu2G/4N1PGUvL+YGwvzAWXxD5KcS/WJzznQBtwo95HnjeQrRVybpTjWjk2pCV2zvJ94o09DYZ7ooovBM43jugp1l80RDwysW+7qSJVeS+O0atqxsgS8eqUgeLuE/sY7pHx6l2DqKN5H1QIGtQoiWm8Ing5rcXxsKYUciAaIBFroA24sUN6o7McKIf6eNcJZYYU4+tMA+zNUDXpzB8vLpYAWnbuILFwQrkBglPhkkg1O9V05qBCOIEUG4EM38Uc7sMT+orTMZ8bD4b/hrp855pKwTln0gBoEz8EeMeW5cW9JtX3kI31m4E7LxsZ4PU9U/DcOra3OKVvQSxI4NeYn33qs9q41mPG1L5x3iBxWv+Cdi//fBi1DoXanCo6vGeeuAzRR1ItZ9/px3wfpqy+iMikeEKUY176M3/ealU+qbxAzME4nvHAmlLEAUsecDNwU9RidlU7BRLsgqGFsXEfJRSBW4E4WBXRT3gp1FSq1lbi1BH9mFNBVHPZz6lwCLHScejLL+COSWcR1biXY9xff1wtXjT5MU/HWHcitATWqyn1HNDA9ZDHdBNklA+NSyRakG9fXSG2IvsEX3YrDYX31HNnDbCVVGdDAl4FUHhNEwCymRjbMsxPRaPgeHHHcb0Nyas6T5X/p5jOehfTRbw31nMTDHFH4DpNqeeABq6HPJ4+slicALWR+aBIv4VUokGHzhZW4jTK05P6C6qrauhEr2BdPz6+t+jfapm21pPMPq3IlyOjBiWrHRG8ND4xRlhFjAP+E1wgtyOKiUSV+RK4S+opIhW3vD2mgesRPwmsiw6JGnlY5TuQRH/YUoOg9I4qMoH66Gn9EHtbEHccae7WYDg+3HNSH/OhpLf5IaAU5zSOGzoZY3UayY7prQY556NX7GuKzUlTOxgGjcPuY+SmXV3GngMauPb8cX32Uhh5juwV9SyigL0f0vY/NS1KFZlTPpRicbTUDm2y3EWQZByTdpbGI1Cf7dOK7Za+fEgRxrtFHcIPeT19lh/dXC0+bY0XpqHtC0OKRJl2zHDL3qTKaeAmxbb2F3Fsy/xQgwqjY1tK25XIWKFyxOcY8LZxvURhAsBha0Uo/3PMs1oD3tv3xH6PuasugcGJ49tEiB8OWo0nY5pIZWmmlZljXRlw/zUE6NM90v2nIZHe6LLkgAauB+8Bp1AoaaQEXfRJjdgKaauiBZjiMUcHqcqojhEEzCVFg1EyxPBaxtvOPtydimxtg6CfDmPWmF4dVWb6ND+NgHs51uXY+JS++cbHxlqP3veGAxq4HvDx3MGFgqlgSAx5o7RVxdUyzSrHl8l6GXGqhWNIeiolSmMxRv0mpKaMTkr0epbnfY4HIKXxzVwH82Ex4RydTfiROR/qcp+C9jEs5vJ6u3Mc0MDtHP8EpQsNN3LM+M/t9Ub2RVW112KqqLQ12EB13s2xXrj+ruPLEpJmtPJ+CePUeNZhN+2yDKd8GGTPGF0r1UHsLoU/877WFK9TAHImC1Cp1tZr9X7iHNDATZxn7a7geHEQXlASQ/Re342XV2FJpicVXQmTlbayUarjx/TOEzchTNANcSg9sX8PcQ2kLSVhZ+lsOJgwEyVjjK1Eh4zdrcAtQcO8Zwbga/KeA5qrneTpsUjvIuctOWf7GeY0mafYSlMxb9oZw5K5vmIMWGdhrOo0D8trRiHq5+soy3G1F0R1nR5S8mNlrpPxuZ9UtQjGG5P+Cx+MUq6NoslzDmjgdoKlVFsZYC4B+c7+JnEAycStRDWahiEmJbcjWmX/BYntRKxlMKT8nceVCSZRj0ccz16AsSb9jp2IUNsCgxqnsJzoDIyxhyv8kolXfry40BiJkrlES1wndiZ1XgM3KbZFLzoKYz2uFiChswbJyisViaMmIGMErbIK7bJd6w9vqhYXL90Tc2Zod9KyQ1WVEUSck1UR26L/83VH9XRsl9cTcLe+X2GsZEADkx1xjMvABNVHg9NCkgcMkOAqCrRoa/KWA5qlneAnpY40NtEveVN1s7GwlrXK07FYF8d8dkRpuwApUJlH+Ztv7bcrGjvHfMzMrsEgeCtx6ohzr4wHdqKDiBV+Cilh/4wIpn9iTnb5XmepfxyGCDJBgLl+WtVlFkjeMYMoVONh8zV6O3EOaOAmzrPYFYdgfR+pJnMdH04BqYTVaMx9OkXNEDTSqLUEy388B+u0ExEYBCj9ic1GL/bpHBiRVJE/1jrZX66W8Af4HFPSrj7QKN6Dyu9EnLeW6XjMZXci1I8fMXyHDOI0mQaumUPebGvgdoKP9A7q2SpJt9e1wFOqo18yx7d8ybksph0txIJbZpr11r6Yymk+bt2mR9WZSJt6OYLhSWxlDKzONyJSx0k1Z/kPoSJzoS+Ob0n8+KyGyr+1NXDAOKj4NxLBESrg0jDFj5jMp8XpsngRSIpq9SGXHNDAdckoVTGqqlKSbkfoHteftRJfcLpE2sGWqiod9c3EJS+vX3nAfCjuNsfPTKPKcEKqxnMw7mXUkRNRpWVWDkpcMzGr4yZYh+2I2gat6aqPAz2oZKaP4SU5WuLaMTLJcxq4STKOgOVqd1wDiEQpU68ALi3PDsJWrKtoVob+MbroL1vrHHvILnCce+u43sa6ulzMyw29urNB0D3TGnZI7YEr19sR1V+Occ0quizPNYckK3ICdp8seYX+TZQDGriJcqy1PF9HvpNOryWtzioXQXOzK+AiqSKOE7+zcr/Y7QAiXkupTuf+n51Y5krCUapyORGpIpvb34P2dtWrI5vM5fjBUOGSY1z5MaBU1jNCZq55s62BmyQfORViNro0YGwXinRUlVlG9XKbm7UbT3LV+OvfcacyU/qpLL3mtrjNqKXntteJZ5AmVkWUlnRhVDmSmMuzLdWUEC3krT4YxkfL6eNmrlNvu+OABq47PnUoRRWZEkdSlSFl5F7bb1+83E7OQzIcru2qti0CgONQBqx7RXTL5Orz0vKrqpf3Q/BqykwOaOAm+Vw4jjMvH8IMGNJQZa6Sai6K2tJBgMSOaOi5bVWFsdC1XTk35zYh3czjmG7yYqHsEL4qCiWj3fBBY9/NU0m8jAZu4jxL6ApOi9jDErmJHfyIKfdo/OJi150hqsgvIBDgScTOOhE1CifDEp1FOESwEnMtwyZnEK3jilky6yV6P0EOaOAmyDBZnNKW0ylyHFgCfVhlhNkP32VZRl5r/XUTI8txJ6dtHk1SZSa86BH1mw3Vjv3hCIBztE6+1eSBSqLSGBdsHdiz3x2hbeWA3k+UAxq4iXLMVJ6J4BpaxSkTuhUpkEsppxBKplqEOMEh26IszHliukWqLMGyTLzfzXDHXLK5VnwMVdmJaKHmagzmMbz1GlqNo+P6jrBk5BAuN2gHppakhdlah95PngMauMnzzpjrrGkdwDJHcrFiwpYpTDk9Ygfe45Ht0Q0RIlw9gCqzXX3WuqgZvLijASqy2opsLc/II6q7drQNDid00bT2gywgL6S3FMfSMszPrj59LjEOaOAmxq92pbfBQ0g61NMnt1hhPqbEpZSze3n5oo+Fm6Ib4piZK+f9zuIiGe9aAut9uDA+sLEq5s0Ur6w8TmeOwxVZLuR5/n4CCc4PkpWi0jon5phCHjkZ56x16H1nDmjgOvMoboltkH4y9pQGJs5rqpwtPjrY5AgaJmJzS7RC37O+SjBw3YkY2L8E4+K1lc4qsqzraARFjIT7pB3xY6SKPba6eG6GD7R0f7SrT59LjAMauInxq13pjfA+ovGJxFgDZsPopZC6K/Y2KVO1miu7EkngMLR0RVSZt2HsePvqynZTUtaLKe1f3RmN/LGei7fPONuTEAAvVd145dbhQ6BK9s4YYLp5kug2ybG1DDiIV5c+njgH7D+rideXVVcwvxIlymkACKN0GKNKa6wMz5PM4Jq4n8OF0C6YfjAk9rdGlRoLhMnr7H4pxagy01h1JjJHqky37BsXHDPPN9vVyXNnIbsFs1HaEWNu+adyHGHWi96tH69VUNGlRmJXnz6XOAc0cBPnWbsrmDliH6TusNxcI1VLX6QkZZpSMxE4/9hWb2RH5BgwHjHn8u/hHCEzSMQrJ49zjMmFt/jnBY3Dh+e8IYXKFQvM9TO9zmetYYDm4/RLHo2xurSu0wdbGu/M5fR25zkQ/y3qfN1ZUcPbWJ2dzhEkhtQdC1WRc7pW+it8g508pBgmuGhiX+uladmnz/FFSOHKAHw7opGNS4fSh9pKlNSDsZoDp5GoHr8JgEvjnbWs3u8cBzRwO8c/I1cTDTVSHf0CJNbAHh0VGeaj+jdA7mSoYd7i7x/jLvVqJ7seu5xAuwxZKJkw3Wls+/LnDeID3IvKqeQc5FLu3yP6Si3HvTLxHEYRmlLAAQ3cTjKVnkOvY6wppS6lzjAEmVundPn+/gwqrXX8q2r+pyeUiW/GSQKnKt+ZY+wns0DeMLrUmH+1q4tjWkYUqZw4mEKHjiQylQ9T7+xXTBfZ1a/PueeABq57XsUt+RqAux1TQyQapy4ZVqx0YKCx5llE+qiMOtbKf3NKH6yLW2Y97Ok+Je2FUI/vxoeCFnEn4uJeHLeqrMRMncOMjiQa7TgO1mqyE0eTP6+BmzzvYlfSBfFlOO/ToZ50CZakZGpSlcvg/647KHYA5E4aJOeDb0USOC5+7QZUsc643BgIK/YtY3qJ+04uN1KtOl3GMS1zU22ANdlKXGrkPENNjnpbPYFynD+m84em1HBAA9cjvj6B9KaftlpaOe3DsSotzFYiyOevrnAtjbjC+xvnDfRU+jK4nxkgKdHpteVEHA78Fuv9voQ5YW5bieNj5riCADe8qZ6BViE/Ytayet8bDmjgesNHY9z3CnI4HWhdN+jrGKNyiRCVJxVTxjysyPUUryucXhmtyJ0cr7zTcaq6dP7f06ohOJX/C8a1T8PPWWUVZ0bJSzE0kEuS/An3xphfFcCd2tHn3XNAA9c9rxxLPoSVCNbDvZEqIkP1rj+q1FixTnXhD7BqwDvI7OhGnQwjWv1fcOLwkqiuq9ReaxtcMvR+SFvmqLISDVtMyH5MWVTacpzP/MxOieas9ej9xDmggZs4z+JewekPhs5RmpHOxdTQl2H8UTldcFrowqW7BQ1WCu2zXRuUXrRce0ns4wZIRjt6B6C9bVVl3LZ5b5z3lffH8Tv9p918jOza1eecOaCB68yjhEo8jpSqnK+l5Zj+yz+EgSneYtD09f3Sa7uNhbDtGuEU0mp4aHlJuxFI/DGkaLyPBqXxTzB99QrGtaoyXD/o+qNLjUXP2C+W4zKbbr2+vLyXbKxLA9fjp85g9zvWVIp1rZKHEUN3YbqFCcRpvLES1covvLLbWD3Aeo77lF70zvJaijG4nZZfht1Z6S20x8ySTFKnAi3XQbp1XC9j/VveEy3Ov1hXhbWTOtZlrVvve8MBDVxv+NiulvWInOGLLFXm8QiU//mJfeLmlmLupgnP7xS//KiqXT3cIXBe29V+pYEOhZI8wNUXGOgviV5Of0Y+qqvf3m9Mb6k+FjS23YhppPMx/cPkeDR0/fTDg8bHReVNJevWv95yQAPXW37GansS00OPfVobCzbntA6DCJgSRkV0mbwBUm7q63uM9XtkGcMwBWeGVBBDA6WBitM3P/mwUlzz9j5jPSFVe5yXnoulTri0JzUJflQe2lQj/grJzGVUNKWPA+q3KH3t+7YlvtR3Y4xIdZNxsSS+8PMBXukWaBy0/KPEO+7vO2LSl6o0Y19TQQQrA+z5kfnSa3vEnWviu2RSJb72yFJxo8k18lksj/Kbj6uU6nYq+qvrbONA27Br8Zbo29V2Tm95wAFOCz1yWl/Ds0g68DPtzA+RJ5lzvnZMHws3xAuHFoofQxVNFVH15UugcmOUbTLb47cxtfUdGKOYj4rEpOrMffW+iyU5ZT36t5McmDEihtfYhtDA7SRX41/OjBCPIFyPkUMSvLTCTntjn6MTBB+QHbjjt+rNGS4T+j+IVroG0laq+UwTezu8v5jLSjUO9qZlXUsHDpiAq1XlDtzx/gA9jqa/uVf8ESqpDP87G/OfS6cMdMw20ZWgpcRnfPBNMEYRtOzLM1CPb3rvgHgXklaD1vt3xW2NbcANiGVuL9LlEucAF4z+1vL9GBNWx/yUmS3i5XMGiO9CBVUtnpV4K95cQV/mS+HL/ChU/KnwQ6b1mMN0Lr59M0BLq7mmruVAG3Aj4vWu7Yr/W+c48ha8+NdgukXG7xIk947vI5aeO1AwEL2riZFID5xaLhZOKDfia6mq0z3y++g3x+VerDnU1ffYLdu3CNY24Ia1xE3HA6V6ySCD01/YacS2ynV1TulbIF46e4D4w+n9EGmT2yEQP5V94wIMDEO8HQtj/+OsAWLW4SWGrzWl7GqMY+eu2C/uwxyzKqtjKvul6zZxwCJYO+ZYMZXVm6njABPKnfPybvFVqKLMeCENP1cgIP2LsCS/ibxOP4PvLzM5porokslxLIFKv+MhSOrOwAESE+D9bmONeBDqMed79Xg2ypdM+d/6mFq7s2TLUlggJmVK57KlH4zfvQfqMoPRmUHDTHSQ4Fq2zCjBIAbV6gHm8k7btBIPR1K7U/sViCtGlIgzBhS0Cz2kIW0Z2mLCdbapKUM4YLIos0ftgfvIlkkiKJZmSFezqhuUdFw4jA4aM7GqARe7kw8HGqvhxFEBKfgBgg1o2WVUEYPyGczANWpZJmJarJar5bEOjqH5YWCSc46hJwKwXMu3BGliKXFJvJbWbk7z3AvAvrc/GiRhnNT/MoEDC8SMEfPNHZHvRtuxxVtYYF7bAb2Vbg6MQuQNs0pw3peSseNDivaIluqdSLTOpOPRBbQJQayqALDS8aMP/voBtPxVEbBqJABgLikGy69EfLBeWU/FqS491gG07I36ndAqc5c+Kflg6NV0RGmu4bU0BdKyHAAsNknKRDtJY1M9rGF7EdL3NmJtuTI91eE6IFiPYRPlZprKW1Rk2araOBUSCwQ92/R4V/Ip7b+UnZw+op8yp484l8oUqEdAGh8BqzNX0xvbG4tzYZveWNbFsekfXQXHf047McSQ9TASiEYxhvOp0tCk/SZ1g/YcCIvJ8QqoJa4srdVmyYmM/uX4mIEL/CVFJWvE1v84WlL/z0gOcM6WwnPWiGXx+mcPXF4VBS+35vGfJs0BzYEUccAFYGXLzsCVJfnbBmKOjs8wn+rSba3Sdyn7u13jFi+kLu0/HSuk85ONhLX2MTHgWq/OlH09jZUpT6I79ENppe0OHTf3UT1PYC7RHbYT+FJ1h9vRfUwhB6R0S2ET6ajaH8AlpzJJ/UnHk9NtJMcBn3zk/QNcWuE0aQ7Yc8A374g/xrjyYWnHEckJ/WvlADWy6SMmWw93133/SFw+AS11u+t7mPp+W8LiUt9galvwl8Qlr7SFObVvTPes3ReWZDPr/SVxeWdR44NvxjLmh6W3k+KA70BLLvhP4spnq901JSey+deXoOUD9S9weXcavORCtpJvQcsH6m/gyldWA1hywv+/Cfj7dmdmZAdw5RMigOljrX2bJUf88Sudbxwiavxxs9G7yC7gmp9cVApLLmROwIS5j3o7PgeSdM6PX6E+ozmgOaA5oDmgOaA5oDlg5cD/A+qplueDZ5IZAAAAAElFTkSuQmCC;aspect=fixed;" parent="afDIatIIUUOGtq9c_muA-4" vertex="1">
          <mxGeometry x="410" y="58.129999999999995" width="50" height="27.73" as="geometry" />
        </mxCell>
        <mxCell id="JfFE76ZaCVtJRvMq8Mvy-9" value="" style="shape=image;html=1;verticalAlign=top;verticalLabelPosition=bottom;labelBackgroundColor=#ffffff;imageAspect=0;aspect=fixed;image=https://cdn1.iconfinder.com/data/icons/unicons-line-vol-5/24/okta-128.png" parent="afDIatIIUUOGtq9c_muA-4" vertex="1">
          <mxGeometry x="410" y="179" width="50" height="50" as="geometry" />
        </mxCell>
        <mxCell id="afDIatIIUUOGtq9c_muA-6" style="edgeStyle=orthogonalEdgeStyle;rounded=0;orthogonalLoop=1;jettySize=auto;html=1;entryX=0.5;entryY=0;entryDx=0;entryDy=0;strokeColor=#333333;strokeWidth=1;" parent="afDIatIIUUOGtq9c_muA-4" source="afDIatIIUUOGtq9c_muA-5" target="JfFE76ZaCVtJRvMq8Mvy-9" edge="1">
          <mxGeometry relative="1" as="geometry" />
        </mxCell>
        <mxCell id="JfFE76ZaCVtJRvMq8Mvy-3" value="google-maps-system-api" style="shape=image;verticalLabelPosition=bottom;verticalAlign=top;imageAspect=0;image=data:image/png,iVBORw0KGgoAAAANSUhEUgAAAO4AAACECAYAAACXgRceAAAAAXNSR0IArs4c6QAAAIRlWElmTU0AKgAAAAgABQESAAMAAAABAAEAAAEaAAUAAAABAAAASgEbAAUAAAABAAAAUgEoAAMAAAABAAIAAIdpAAQAAAABAAAAWgAAAAAAAAFKAAAAAQAAAUoAAAABAAOgAQADAAAAAQABAACgAgAEAAAAAQAAAO6gAwAEAAAAAQAAAIQAAAAAyiTvzQAAAAlwSFlzAAAywAAAMsABKGRa2wAAIsdJREFUeAHtXQmYFNW1vt2zMQsDw7CDIKKoILiigs8nuKDGxKgRoxLZkhDFaGJc8mL8BKKJMcnTxJcYg4qCMYkao1mMu2A0IriACIggEllkZ4bZt+5+/189t6em5nZVdU91T0/1Pd8307XcuvfWqfrrnHvuOecKoUlzQHOg23Eg0O163M07PGfOnLyWlpZ+gUCg4eGHH67A7US6wy1dddVVxQWBgpGhSKgskhPhe7Ortrb206eeeqqpO/Tfb30M+u2GMv1+GhoaSkVYXB5piVwxffr0I+bOnVuS4X0OXHnllWU5OTlnhgKhB0RQvIJPzVJ8eG4pLy/vneF99233cn17Zxl6Y/n5+bnhlvDYsAhPDwaCO+tr61fNnjn7XwDES7m5uesXLlzYnCldnz179mAREl9EX78CsJ4cEREN1Ax5OBq4XfcgqO0MARiGRCKRCwCQBU3hprUAyxPhcPglAHxrRUVFPVRRAjkt6vTUqVNz+vXrV1hXVzcCEvWr6Mc0tD0Mf1ozAxMyiTRw0/w0ANJmwGB3IBRoAWgl/zlmLAQ8x4dD4fHYrm1uav6kuLh41cyZM98PhoPvNoYa1z3++ONVXnd3/vz5wa1btw5Ev8YHIoEJdbV1E9DGOOzHla4BEWhB2T3Nzc0tXvdH1+eOA9o45Y5PXpYKTJs2rSckKgFyUyQcOQO/BLDyWRAkONeAv12Qgi/miJzFJbUla+958p4G7CcliQnWPXv2FNXX15+M+r8ByToJ9ZfhLx9/SukKIEeCwWAjevkyPjr3osfvLlq0qAblk+oDrtPUCQ4oX5ZO1KcvTYADN9xwQyHU4ZOAiSsAoMm4dCT+8uyqMIAcEGsgrf8OIL0Cqbfqscceq7W7pvVcYO7UucX1JfUnQlpOQZsXAoSjiUeHa6vxgViPdl+NBCJP79q1a93zzz/f6HCNPp1iDmjgppjBbqrH2DIfavFgAJGAuhpS+HgX11HSVQSCgQ8ArDuGDRv2BiSpUnXF8Vyow6dDsi6AfDwG11ENtn32qPMgyv4dYF0C7WDVxo0bK5ctW6as30VfdRGPOWD78DxuS1fnggNQo0sBlPMB4KsAnBMh6fqaxsLxaggDaI8BissBznbgwvG8oAhODEfCX8PFds87hLYqANSNKP9cbiT3iYWLF26O16A+3rUcsHuQXduzLG+dAC4IFowKB8JnAW5TwY6x+OMY1GuqR/2rUOmz+HsDwN+0ZMmSA9jWY1evOe1hfRq4HjIzRVUFoErn9ezZ82SAajrGp5MhgftDOha5kMTWLhGM9HSqgSTejuv/BseKJ6uqqj7CtFPIWljvZy4HNHAz99koe3b11Vf3h/fVaAD4aIDvaIBvFGTjMEjNQVCvS3EsZmzCPoFK49IWlKPauwGH1uZF8tY1Rho3uzRqKfuhD3YtBzRw08R/SM1CSM3TIDVnQVo2BHOC927evHlDZww+dJgYOHBgbmVlZW5eXl4wWB8saspr6gUjVxH+Io2Njftxe1UwfLXAet0yZsyYFhiqwgnecgD+1bktDS0nYaJoDryoDsGH4DPU8SZ+X4S3195M8vZK8N66bXEN3NQ/ugCcKIYDrPMh7WggymltshK/L8Aq/DTU1bcffPDBHQBCxowr+VEA4A8JRoKnRYKRr8DSPRn9tTplVEHS/xPHF8GgtkwDuPXJpuFHAzfFTAYASkqKS14EaOlwYeU3gdqAo58BtP8AgBc99NBDH6W4S7bV0zkDU0dj0d9vAKzno/Bg/PXAn7Xv5noOQoO4o7q6+pd6rGxmS+q27R5G6lrNoppnzZr1cwDgJpe3XAsArwBEngmGgisbw43bioqK9qVSkuHDkl9YWNgPH43hkVDkVLR/MdqnUwjB6ppwXRhaxdcXPbroUdcX6YJJc0ADN2nWOV84Y8aMkXihP4TxqNC5dLsStPBSld4BMGwI5ARWAkjLWRfcDKvblUxi57rrriutqak5HgauCRiz0kd5FIxXQ1BVL/zFjFtJVF3R3NI8Dj7V25O4Vl+SAAekk3sCl+iibjmQF8y7HIHnhQCF20tkOY6Dy/mHa8dBEl5GRRWSu3bWzFmf4PhqgI0fhE/DwfB2SMuKQFMgFMmPhOECGYGhKhAKhQI4novfvgD8UMQAH4brOBd8XHVV9Sj85st+yV8c6xShnTKMdWejkh91qiJ9sSMHNHAdWZR8AYD2HEjK5CswXxmtphj1HYvDxxpgo76E46GWUBPkZLNoEc2I8Q0hwigHwM7F8QKUyPOsD+b+KLbZDryupuCUBq6CP14e0sD1kpsd66KESwfRo4p/BqULqLI98y++GhPN+3o7NRwIpqZaXSs5AAD1yTZOQF3WdpM0PHQN3DQwWTehOeA1BzRwveaork9zIA0c0MBNA5N1E5oDXnNAA9drjur6NAfSwAEN3DQwWTehOeA1BzRwveaork9zIA0c0MBNA5N1E5oDXnNAA9drjur6NAfSwAEN3DQwWTehOeA1B7Lb5fGRLZO8Zqi5vl0fLDbvZs92ivkaY+SsEcti21m2kV3uaXyhgmISIm3OgHP+pCx71n6+3QWIflomsgjI2QFcAjZHzNNg9TN2Y/e2QMwYMT+259MN/wN3yZalGrA+fXvj35bvwetf4GopG/+1zpYzYTHZr+qzP4EbHcsuzZb3U9+nLQd8KX39OR0UFBq0tu9yVp2cJ/gh9xn5D7gc02rSHDBzwIcfcn+pyou3zMfzmmd+Zn7c5kPLCwZET6zDV5IXEEU5AYFd/AZFPtLMVTQhd2MEiwThX3VzRFQ1h0VjCAeymQKYLpo+YrJfWOA34Pr67SzODYghRbmiX4+gOAS/R/bKEyN75hrHgF8xtDhX9MkPitUVTaIZoCWAPz7YLD7C37bakNjXGBI760PiII77mlHx0OkjY5V/PKei0jbeI+uWx/lVLYA0/e8BPcRXDy3GbwGAmSMI4Hwcj/fVPQPlzUSQEsh1LRGANyze398onvhPrVi2q8EAd9aAmHP5ApLXBxTv2Xe/W1uMBel8QvnQe88c2ENcMLRIfGV4kRhUKJcb8vYGP4f0fWFHvfjbtjrx1t5Gsbch5G0DmVjbjBG+eOd9cROG1dAHBohCSNHJAOx9J5eLYcU5xjjW+u5TctZjvMq/XQAe1eCNVUipjDX4qArXYEw7oiTXkMj9CoJibFm+GI59joN74I8S3PzQ+bVrQZ2fVLeIBzZWiz9uqRX7UQ8O+ZN8oi6bn6G7B5WJpnX6H3dzo9TcI3uK2Yf3FCeWx9Ijx54HMfTOvkbx0uf14r0DTWIjwLqjdawaK2SzQdV6IKT2iJI8cUKffHHWoB7ilH4FoheMW2ai/epjfAQe21wjfv9pjdhe50MJTCNVSCww33eXbyfhY+0OuNoLKSXPlpbgo2Fguv+UcmMca24Ew1EYlFrE81Bl71l/UGyGRPSShsK4Ne2wYmPsfDgMXLRQm+ltqM53rT0oXsbHgtJdU4o5wA9KRLzu1s/aHrgasCl7WrlA7b0nlYkrR5SIPlBpzUT193vvHhArAZ4DsACnivjwSwDY4yGFrx7VU1w8rMhQp2V7nEb682d14hfrDhoquTyuf1POAUdvr/jAzZI50ZQ/AkUDoyFl/w/j2EkYz1LqSvqwskn8ZM1B8SdYfNNNGPoKWqOvP7rUGGeXmiTwcnxAfvRBpXgNVmjODWtKCwdswWt6bUyd0aA1McPbzUuHF4t7x/fB3GtOzEhEg9NtqyvF/RuqRA115C4kGrAoeb9/TC8xDoYt+YLsgcV5Hvr4OIxX1ZDEmtLAARunkY7zDBq0KXsiVEcJ2gEwFElAUJpdsmyPoZKmUCt2fU/8bqytbDYMYQTxkaV5hiW6OBcWwIHRZX7XQ5Wv7eIPjOsb6t4FDxUXfzcgnv3VMuttyPen7biP5kPbbqprtzgve+PoUnEzpFgZPJtIlLIPbaoRN793IGNBUIB+XwNr9w3o+yHwyuLLQjsVjWW/+qhK7PCj1dl4Ohn2TzGF1V7iRqXtpAzrdrfvzrxje4vvjW4DbSNAe+2KA+JuWG0bMthiy66thJcVjWV0r6S7Jcfkp/brYcwxr8WYvArzxppSzIGgOFQ886vF5lbamzO7+Vyo+cYyYZsGn28fVSq+BRW5d6ukpf/w9Df3icWYK+0Ohh7aouhddct7FeLNPY2GxOV9XYf74rxzX4tFPBP47rs+MD+axX+iDbiWE767+S64oWmHlYibx5QiKCCq2NDwdNnre8VfttYaqnK8Lh0GT6ejIOHSRcOgBnM+GX4acYl+zdeu2G/4N1PGUvL+YGwvzAWXxD5KcS/WJzznQBtwo95HnjeQrRVybpTjWjk2pCV2zvJ94o09DYZ7ooovBM43jugp1l80RDwysW+7qSJVeS+O0atqxsgS8eqUgeLuE/sY7pHx6l2DqKN5H1QIGtQoiWm8Ing5rcXxsKYUciAaIBFroA24sUN6o7McKIf6eNcJZYYU4+tMA+zNUDXpzB8vLpYAWnbuILFwQrkBglPhkkg1O9V05qBCOIEUG4EM38Uc7sMT+orTMZ8bD4b/hrp855pKwTln0gBoEz8EeMeW5cW9JtX3kI31m4E7LxsZ4PU9U/DcOra3OKVvQSxI4NeYn33qs9q41mPG1L5x3iBxWv+Cdi//fBi1DoXanCo6vGeeuAzRR1ItZ9/px3wfpqy+iMikeEKUY176M3/ealU+qbxAzME4nvHAmlLEAUsecDNwU9RidlU7BRLsgqGFsXEfJRSBW4E4WBXRT3gp1FSq1lbi1BH9mFNBVHPZz6lwCLHScejLL+COSWcR1biXY9xff1wtXjT5MU/HWHcitATWqyn1HNDA9ZDHdBNklA+NSyRakG9fXSG2IvsEX3YrDYX31HNnDbCVVGdDAl4FUHhNEwCymRjbMsxPRaPgeHHHcb0Nyas6T5X/p5jOehfTRbw31nMTDHFH4DpNqeeABq6HPJ4+slicALWR+aBIv4VUokGHzhZW4jTK05P6C6qrauhEr2BdPz6+t+jfapm21pPMPq3IlyOjBiWrHRG8ND4xRlhFjAP+E1wgtyOKiUSV+RK4S+opIhW3vD2mgesRPwmsiw6JGnlY5TuQRH/YUoOg9I4qMoH66Gn9EHtbEHccae7WYDg+3HNSH/OhpLf5IaAU5zSOGzoZY3UayY7prQY556NX7GuKzUlTOxgGjcPuY+SmXV3GngMauPb8cX32Uhh5juwV9SyigL0f0vY/NS1KFZlTPpRicbTUDm2y3EWQZByTdpbGI1Cf7dOK7Za+fEgRxrtFHcIPeT19lh/dXC0+bY0XpqHtC0OKRJl2zHDL3qTKaeAmxbb2F3Fsy/xQgwqjY1tK25XIWKFyxOcY8LZxvURhAsBha0Uo/3PMs1oD3tv3xH6PuasugcGJ49tEiB8OWo0nY5pIZWmmlZljXRlw/zUE6NM90v2nIZHe6LLkgAauB+8Bp1AoaaQEXfRJjdgKaauiBZjiMUcHqcqojhEEzCVFg1EyxPBaxtvOPtydimxtg6CfDmPWmF4dVWb6ND+NgHs51uXY+JS++cbHxlqP3veGAxq4HvDx3MGFgqlgSAx5o7RVxdUyzSrHl8l6GXGqhWNIeiolSmMxRv0mpKaMTkr0epbnfY4HIKXxzVwH82Ex4RydTfiROR/qcp+C9jEs5vJ6u3Mc0MDtHP8EpQsNN3LM+M/t9Ub2RVW112KqqLQ12EB13s2xXrj+ruPLEpJmtPJ+CePUeNZhN+2yDKd8GGTPGF0r1UHsLoU/877WFK9TAHImC1Cp1tZr9X7iHNDATZxn7a7geHEQXlASQ/Re342XV2FJpicVXQmTlbayUarjx/TOEzchTNANcSg9sX8PcQ2kLSVhZ+lsOJgwEyVjjK1Eh4zdrcAtQcO8Zwbga/KeA5qrneTpsUjvIuctOWf7GeY0mafYSlMxb9oZw5K5vmIMWGdhrOo0D8trRiHq5+soy3G1F0R1nR5S8mNlrpPxuZ9UtQjGG5P+Cx+MUq6NoslzDmjgdoKlVFsZYC4B+c7+JnEAycStRDWahiEmJbcjWmX/BYntRKxlMKT8nceVCSZRj0ccz16AsSb9jp2IUNsCgxqnsJzoDIyxhyv8kolXfry40BiJkrlES1wndiZ1XgM3KbZFLzoKYz2uFiChswbJyisViaMmIGMErbIK7bJd6w9vqhYXL90Tc2Zod9KyQ1WVEUSck1UR26L/83VH9XRsl9cTcLe+X2GsZEADkx1xjMvABNVHg9NCkgcMkOAqCrRoa/KWA5qlneAnpY40NtEveVN1s7GwlrXK07FYF8d8dkRpuwApUJlH+Ztv7bcrGjvHfMzMrsEgeCtx6ohzr4wHdqKDiBV+Cilh/4wIpn9iTnb5XmepfxyGCDJBgLl+WtVlFkjeMYMoVONh8zV6O3EOaOAmzrPYFYdgfR+pJnMdH04BqYTVaMx9OkXNEDTSqLUEy388B+u0ExEYBCj9ic1GL/bpHBiRVJE/1jrZX66W8Af4HFPSrj7QKN6Dyu9EnLeW6XjMZXci1I8fMXyHDOI0mQaumUPebGvgdoKP9A7q2SpJt9e1wFOqo18yx7d8ybksph0txIJbZpr11r6Yymk+bt2mR9WZSJt6OYLhSWxlDKzONyJSx0k1Z/kPoSJzoS+Ob0n8+KyGyr+1NXDAOKj4NxLBESrg0jDFj5jMp8XpsngRSIpq9SGXHNDAdckoVTGqqlKSbkfoHteftRJfcLpE2sGWqiod9c3EJS+vX3nAfCjuNsfPTKPKcEKqxnMw7mXUkRNRpWVWDkpcMzGr4yZYh+2I2gat6aqPAz2oZKaP4SU5WuLaMTLJcxq4STKOgOVqd1wDiEQpU68ALi3PDsJWrKtoVob+MbroL1vrHHvILnCce+u43sa6ulzMyw29urNB0D3TGnZI7YEr19sR1V+Occ0quizPNYckK3ICdp8seYX+TZQDGriJcqy1PF9HvpNOryWtzioXQXOzK+AiqSKOE7+zcr/Y7QAiXkupTuf+n51Y5krCUapyORGpIpvb34P2dtWrI5vM5fjBUOGSY1z5MaBU1jNCZq55s62BmyQfORViNro0YGwXinRUlVlG9XKbm7UbT3LV+OvfcacyU/qpLL3mtrjNqKXntteJZ5AmVkWUlnRhVDmSmMuzLdWUEC3krT4YxkfL6eNmrlNvu+OABq47PnUoRRWZEkdSlSFl5F7bb1+83E7OQzIcru2qti0CgONQBqx7RXTL5Orz0vKrqpf3Q/BqykwOaOAm+Vw4jjMvH8IMGNJQZa6Sai6K2tJBgMSOaOi5bVWFsdC1XTk35zYh3czjmG7yYqHsEL4qCiWj3fBBY9/NU0m8jAZu4jxL6ApOi9jDErmJHfyIKfdo/OJi150hqsgvIBDgScTOOhE1CifDEp1FOESwEnMtwyZnEK3jilky6yV6P0EOaOAmyDBZnNKW0ylyHFgCfVhlhNkP32VZRl5r/XUTI8txJ6dtHk1SZSa86BH1mw3Vjv3hCIBztE6+1eSBSqLSGBdsHdiz3x2hbeWA3k+UAxq4iXLMVJ6J4BpaxSkTuhUpkEsppxBKplqEOMEh26IszHliukWqLMGyTLzfzXDHXLK5VnwMVdmJaKHmagzmMbz1GlqNo+P6jrBk5BAuN2gHppakhdlah95PngMauMnzzpjrrGkdwDJHcrFiwpYpTDk9Ygfe45Ht0Q0RIlw9gCqzXX3WuqgZvLijASqy2opsLc/II6q7drQNDid00bT2gywgL6S3FMfSMszPrj59LjEOaOAmxq92pbfBQ0g61NMnt1hhPqbEpZSze3n5oo+Fm6Ib4piZK+f9zuIiGe9aAut9uDA+sLEq5s0Ur6w8TmeOwxVZLuR5/n4CCc4PkpWi0jon5phCHjkZ56x16H1nDmjgOvMoboltkH4y9pQGJs5rqpwtPjrY5AgaJmJzS7RC37O+SjBw3YkY2L8E4+K1lc4qsqzraARFjIT7pB3xY6SKPba6eG6GD7R0f7SrT59LjAMauInxq13pjfA+ovGJxFgDZsPopZC6K/Y2KVO1miu7EkngMLR0RVSZt2HsePvqynZTUtaLKe1f3RmN/LGei7fPONuTEAAvVd145dbhQ6BK9s4YYLp5kug2ybG1DDiIV5c+njgH7D+rideXVVcwvxIlymkACKN0GKNKa6wMz5PM4Jq4n8OF0C6YfjAk9rdGlRoLhMnr7H4pxagy01h1JjJHqky37BsXHDPPN9vVyXNnIbsFs1HaEWNu+adyHGHWi96tH69VUNGlRmJXnz6XOAc0cBPnWbsrmDliH6TusNxcI1VLX6QkZZpSMxE4/9hWb2RH5BgwHjHn8u/hHCEzSMQrJ49zjMmFt/jnBY3Dh+e8IYXKFQvM9TO9zmetYYDm4/RLHo2xurSu0wdbGu/M5fR25zkQ/y3qfN1ZUcPbWJ2dzhEkhtQdC1WRc7pW+it8g508pBgmuGhiX+uladmnz/FFSOHKAHw7opGNS4fSh9pKlNSDsZoDp5GoHr8JgEvjnbWs3u8cBzRwO8c/I1cTDTVSHf0CJNbAHh0VGeaj+jdA7mSoYd7i7x/jLvVqJ7seu5xAuwxZKJkw3Wls+/LnDeID3IvKqeQc5FLu3yP6Si3HvTLxHEYRmlLAAQ3cTjKVnkOvY6wppS6lzjAEmVundPn+/gwqrXX8q2r+pyeUiW/GSQKnKt+ZY+wns0DeMLrUmH+1q4tjWkYUqZw4mEKHjiQylQ9T7+xXTBfZ1a/PueeABq57XsUt+RqAux1TQyQapy4ZVqx0YKCx5llE+qiMOtbKf3NKH6yLW2Y97Ok+Je2FUI/vxoeCFnEn4uJeHLeqrMRMncOMjiQa7TgO1mqyE0eTP6+BmzzvYlfSBfFlOO/ToZ50CZakZGpSlcvg/647KHYA5E4aJOeDb0USOC5+7QZUsc643BgIK/YtY3qJ+04uN1KtOl3GMS1zU22ANdlKXGrkPENNjnpbPYFynD+m84em1HBAA9cjvj6B9KaftlpaOe3DsSotzFYiyOevrnAtjbjC+xvnDfRU+jK4nxkgKdHpteVEHA78Fuv9voQ5YW5bieNj5riCADe8qZ6BViE/Ytayet8bDmjgesNHY9z3CnI4HWhdN+jrGKNyiRCVJxVTxjysyPUUryucXhmtyJ0cr7zTcaq6dP7f06ohOJX/C8a1T8PPWWUVZ0bJSzE0kEuS/An3xphfFcCd2tHn3XNAA9c9rxxLPoSVCNbDvZEqIkP1rj+q1FixTnXhD7BqwDvI7OhGnQwjWv1fcOLwkqiuq9ReaxtcMvR+SFvmqLISDVtMyH5MWVTacpzP/MxOieas9ej9xDmggZs4z+JewekPhs5RmpHOxdTQl2H8UTldcFrowqW7BQ1WCu2zXRuUXrRce0ns4wZIRjt6B6C9bVVl3LZ5b5z3lffH8Tv9p918jOza1eecOaCB68yjhEo8jpSqnK+l5Zj+yz+EgSneYtD09f3Sa7uNhbDtGuEU0mp4aHlJuxFI/DGkaLyPBqXxTzB99QrGtaoyXD/o+qNLjUXP2C+W4zKbbr2+vLyXbKxLA9fjp85g9zvWVIp1rZKHEUN3YbqFCcRpvLES1covvLLbWD3Aeo77lF70zvJaijG4nZZfht1Z6S20x8ySTFKnAi3XQbp1XC9j/VveEy3Ov1hXhbWTOtZlrVvve8MBDVxv+NiulvWInOGLLFXm8QiU//mJfeLmlmLupgnP7xS//KiqXT3cIXBe29V+pYEOhZI8wNUXGOgviV5Of0Y+qqvf3m9Mb6k+FjS23YhppPMx/cPkeDR0/fTDg8bHReVNJevWv95yQAPXW37GansS00OPfVobCzbntA6DCJgSRkV0mbwBUm7q63uM9XtkGcMwBWeGVBBDA6WBitM3P/mwUlzz9j5jPSFVe5yXnoulTri0JzUJflQe2lQj/grJzGVUNKWPA+q3KH3t+7YlvtR3Y4xIdZNxsSS+8PMBXukWaBy0/KPEO+7vO2LSl6o0Y19TQQQrA+z5kfnSa3vEnWviu2RSJb72yFJxo8k18lksj/Kbj6uU6nYq+qvrbONA27Br8Zbo29V2Tm95wAFOCz1yWl/Ds0g68DPtzA+RJ5lzvnZMHws3xAuHFoofQxVNFVH15UugcmOUbTLb47cxtfUdGKOYj4rEpOrMffW+iyU5ZT36t5McmDEihtfYhtDA7SRX41/OjBCPIFyPkUMSvLTCTntjn6MTBB+QHbjjt+rNGS4T+j+IVroG0laq+UwTezu8v5jLSjUO9qZlXUsHDpiAq1XlDtzx/gA9jqa/uVf8ESqpDP87G/OfS6cMdMw20ZWgpcRnfPBNMEYRtOzLM1CPb3rvgHgXklaD1vt3xW2NbcANiGVuL9LlEucAF4z+1vL9GBNWx/yUmS3i5XMGiO9CBVUtnpV4K95cQV/mS+HL/ChU/KnwQ6b1mMN0Lr59M0BLq7mmruVAG3Aj4vWu7Yr/W+c48ha8+NdgukXG7xIk947vI5aeO1AwEL2riZFID5xaLhZOKDfia6mq0z3y++g3x+VerDnU1ffYLdu3CNY24Ia1xE3HA6V6ySCD01/YacS2ynV1TulbIF46e4D4w+n9EGmT2yEQP5V94wIMDEO8HQtj/+OsAWLW4SWGrzWl7GqMY+eu2C/uwxyzKqtjKvul6zZxwCJYO+ZYMZXVm6njABPKnfPybvFVqKLMeCENP1cgIP2LsCS/ibxOP4PvLzM5porokslxLIFKv+MhSOrOwAESE+D9bmONeBDqMed79Xg2ypdM+d/6mFq7s2TLUlggJmVK57KlH4zfvQfqMoPRmUHDTHSQ4Fq2zCjBIAbV6gHm8k7btBIPR1K7U/sViCtGlIgzBhS0Cz2kIW0Z2mLCdbapKUM4YLIos0ftgfvIlkkiKJZmSFezqhuUdFw4jA4aM7GqARe7kw8HGqvhxFEBKfgBgg1o2WVUEYPyGczANWpZJmJarJar5bEOjqH5YWCSc46hJwKwXMu3BGliKXFJvJbWbk7z3AvAvrc/GiRhnNT/MoEDC8SMEfPNHZHvRtuxxVtYYF7bAb2Vbg6MQuQNs0pw3peSseNDivaIluqdSLTOpOPRBbQJQayqALDS8aMP/voBtPxVEbBqJABgLikGy69EfLBeWU/FqS491gG07I36ndAqc5c+Kflg6NV0RGmu4bU0BdKyHAAsNknKRDtJY1M9rGF7EdL3NmJtuTI91eE6IFiPYRPlZprKW1Rk2araOBUSCwQ92/R4V/Ip7b+UnZw+op8yp484l8oUqEdAGh8BqzNX0xvbG4tzYZveWNbFsekfXQXHf047McSQ9TASiEYxhvOp0tCk/SZ1g/YcCIvJ8QqoJa4srdVmyYmM/uX4mIEL/CVFJWvE1v84WlL/z0gOcM6WwnPWiGXx+mcPXF4VBS+35vGfJs0BzYEUccAFYGXLzsCVJfnbBmKOjs8wn+rSba3Sdyn7u13jFi+kLu0/HSuk85ONhLX2MTHgWq/OlH09jZUpT6I79ENppe0OHTf3UT1PYC7RHbYT+FJ1h9vRfUwhB6R0S2ET6ajaH8AlpzJJ/UnHk9NtJMcBn3zk/QNcWuE0aQ7Yc8A374g/xrjyYWnHEckJ/WvlADWy6SMmWw93133/SFw+AS11u+t7mPp+W8LiUt9galvwl8Qlr7SFObVvTPes3ReWZDPr/SVxeWdR44NvxjLmh6W3k+KA70BLLvhP4spnq901JSey+deXoOUD9S9weXcavORCtpJvQcsH6m/gyldWA1hywv+/Cfj7dmdmZAdw5RMigOljrX2bJUf88Sudbxwiavxxs9G7yC7gmp9cVApLLmROwIS5j3o7PgeSdM6PX6E+ozmgOaA5oDmgOaA5oDlg5cD/A+qplueDZ5IZAAAAAElFTkSuQmCC;aspect=fixed;" parent="afDIatIIUUOGtq9c_muA-4" vertex="1">
          <mxGeometry x="581" y="58.129999999999995" width="50" height="27.73" as="geometry" />
        </mxCell>
        <mxCell id="afDIatIIUUOGtq9c_muA-34" value="push-notifications-system-api" style="shape=image;verticalLabelPosition=bottom;verticalAlign=top;imageAspect=0;image=data:image/png,iVBORw0KGgoAAAANSUhEUgAAAO4AAACECAYAAACXgRceAAAAAXNSR0IArs4c6QAAAIRlWElmTU0AKgAAAAgABQESAAMAAAABAAEAAAEaAAUAAAABAAAASgEbAAUAAAABAAAAUgEoAAMAAAABAAIAAIdpAAQAAAABAAAAWgAAAAAAAAFKAAAAAQAAAUoAAAABAAOgAQADAAAAAQABAACgAgAEAAAAAQAAAO6gAwAEAAAAAQAAAIQAAAAAyiTvzQAAAAlwSFlzAAAywAAAMsABKGRa2wAAIsdJREFUeAHtXQmYFNW1vt2zMQsDw7CDIKKoILiigs8nuKDGxKgRoxLZkhDFaGJc8mL8BKKJMcnTxJcYg4qCMYkao1mMu2A0IriACIggEllkZ4bZt+5+/189t6em5nZVdU91T0/1Pd8307XcuvfWqfrrnHvuOecKoUlzQHOg23Eg0O163M07PGfOnLyWlpZ+gUCg4eGHH67A7US6wy1dddVVxQWBgpGhSKgskhPhe7Ortrb206eeeqqpO/Tfb30M+u2GMv1+GhoaSkVYXB5piVwxffr0I+bOnVuS4X0OXHnllWU5OTlnhgKhB0RQvIJPzVJ8eG4pLy/vneF99233cn17Zxl6Y/n5+bnhlvDYsAhPDwaCO+tr61fNnjn7XwDES7m5uesXLlzYnCldnz179mAREl9EX78CsJ4cEREN1Ax5OBq4XfcgqO0MARiGRCKRCwCQBU3hprUAyxPhcPglAHxrRUVFPVRRAjkt6vTUqVNz+vXrV1hXVzcCEvWr6Mc0tD0Mf1ozAxMyiTRw0/w0ANJmwGB3IBRoAWgl/zlmLAQ8x4dD4fHYrm1uav6kuLh41cyZM98PhoPvNoYa1z3++ONVXnd3/vz5wa1btw5Ev8YHIoEJdbV1E9DGOOzHla4BEWhB2T3Nzc0tXvdH1+eOA9o45Y5PXpYKTJs2rSckKgFyUyQcOQO/BLDyWRAkONeAv12Qgi/miJzFJbUla+958p4G7CcliQnWPXv2FNXX15+M+r8ByToJ9ZfhLx9/SukKIEeCwWAjevkyPjr3osfvLlq0qAblk+oDrtPUCQ4oX5ZO1KcvTYADN9xwQyHU4ZOAiSsAoMm4dCT+8uyqMIAcEGsgrf8OIL0Cqbfqscceq7W7pvVcYO7UucX1JfUnQlpOQZsXAoSjiUeHa6vxgViPdl+NBCJP79q1a93zzz/f6HCNPp1iDmjgppjBbqrH2DIfavFgAJGAuhpS+HgX11HSVQSCgQ8ArDuGDRv2BiSpUnXF8Vyow6dDsi6AfDwG11ENtn32qPMgyv4dYF0C7WDVxo0bK5ctW6as30VfdRGPOWD78DxuS1fnggNQo0sBlPMB4KsAnBMh6fqaxsLxaggDaI8BissBznbgwvG8oAhODEfCX8PFds87hLYqANSNKP9cbiT3iYWLF26O16A+3rUcsHuQXduzLG+dAC4IFowKB8JnAW5TwY6x+OMY1GuqR/2rUOmz+HsDwN+0ZMmSA9jWY1evOe1hfRq4HjIzRVUFoErn9ezZ82SAajrGp5MhgftDOha5kMTWLhGM9HSqgSTejuv/BseKJ6uqqj7CtFPIWljvZy4HNHAz99koe3b11Vf3h/fVaAD4aIDvaIBvFGTjMEjNQVCvS3EsZmzCPoFK49IWlKPauwGH1uZF8tY1Rho3uzRqKfuhD3YtBzRw08R/SM1CSM3TIDVnQVo2BHOC927evHlDZww+dJgYOHBgbmVlZW5eXl4wWB8saspr6gUjVxH+Io2Njftxe1UwfLXAet0yZsyYFhiqwgnecgD+1bktDS0nYaJoDryoDsGH4DPU8SZ+X4S3195M8vZK8N66bXEN3NQ/ugCcKIYDrPMh7WggymltshK/L8Aq/DTU1bcffPDBHQBCxowr+VEA4A8JRoKnRYKRr8DSPRn9tTplVEHS/xPHF8GgtkwDuPXJpuFHAzfFTAYASkqKS14EaOlwYeU3gdqAo58BtP8AgBc99NBDH6W4S7bV0zkDU0dj0d9vAKzno/Bg/PXAn7Xv5noOQoO4o7q6+pd6rGxmS+q27R5G6lrNoppnzZr1cwDgJpe3XAsArwBEngmGgisbw43bioqK9qVSkuHDkl9YWNgPH43hkVDkVLR/MdqnUwjB6ppwXRhaxdcXPbroUdcX6YJJc0ADN2nWOV84Y8aMkXihP4TxqNC5dLsStPBSld4BMGwI5ARWAkjLWRfcDKvblUxi57rrriutqak5HgauCRiz0kd5FIxXQ1BVL/zFjFtJVF3R3NI8Dj7V25O4Vl+SAAekk3sCl+iibjmQF8y7HIHnhQCF20tkOY6Dy/mHa8dBEl5GRRWSu3bWzFmf4PhqgI0fhE/DwfB2SMuKQFMgFMmPhOECGYGhKhAKhQI4novfvgD8UMQAH4brOBd8XHVV9Sj85st+yV8c6xShnTKMdWejkh91qiJ9sSMHNHAdWZR8AYD2HEjK5CswXxmtphj1HYvDxxpgo76E46GWUBPkZLNoEc2I8Q0hwigHwM7F8QKUyPOsD+b+KLbZDryupuCUBq6CP14e0sD1kpsd66KESwfRo4p/BqULqLI98y++GhPN+3o7NRwIpqZaXSs5AAD1yTZOQF3WdpM0PHQN3DQwWTehOeA1BzRwveaork9zIA0c0MBNA5N1E5oDXnNAA9drjur6NAfSwAEN3DQwWTehOeA1BzRwveaork9zIA0c0MBNA5N1E5oDXnNAA9drjur6NAfSwAEN3DQwWTehOeA1B7Lb5fGRLZO8Zqi5vl0fLDbvZs92ivkaY+SsEcti21m2kV3uaXyhgmISIm3OgHP+pCx71n6+3QWIflomsgjI2QFcAjZHzNNg9TN2Y/e2QMwYMT+259MN/wN3yZalGrA+fXvj35bvwetf4GopG/+1zpYzYTHZr+qzP4EbHcsuzZb3U9+nLQd8KX39OR0UFBq0tu9yVp2cJ/gh9xn5D7gc02rSHDBzwIcfcn+pyou3zMfzmmd+Zn7c5kPLCwZET6zDV5IXEEU5AYFd/AZFPtLMVTQhd2MEiwThX3VzRFQ1h0VjCAeymQKYLpo+YrJfWOA34Pr67SzODYghRbmiX4+gOAS/R/bKEyN75hrHgF8xtDhX9MkPitUVTaIZoCWAPz7YLD7C37bakNjXGBI760PiII77mlHx0OkjY5V/PKei0jbeI+uWx/lVLYA0/e8BPcRXDy3GbwGAmSMI4Hwcj/fVPQPlzUSQEsh1LRGANyze398onvhPrVi2q8EAd9aAmHP5ApLXBxTv2Xe/W1uMBel8QvnQe88c2ENcMLRIfGV4kRhUKJcb8vYGP4f0fWFHvfjbtjrx1t5Gsbch5G0DmVjbjBG+eOd9cROG1dAHBohCSNHJAOx9J5eLYcU5xjjW+u5TctZjvMq/XQAe1eCNVUipjDX4qArXYEw7oiTXkMj9CoJibFm+GI59joN74I8S3PzQ+bVrQZ2fVLeIBzZWiz9uqRX7UQ8O+ZN8oi6bn6G7B5WJpnX6H3dzo9TcI3uK2Yf3FCeWx9Ijx54HMfTOvkbx0uf14r0DTWIjwLqjdawaK2SzQdV6IKT2iJI8cUKffHHWoB7ilH4FoheMW2ai/epjfAQe21wjfv9pjdhe50MJTCNVSCww33eXbyfhY+0OuNoLKSXPlpbgo2Fguv+UcmMca24Ew1EYlFrE81Bl71l/UGyGRPSShsK4Ne2wYmPsfDgMXLRQm+ltqM53rT0oXsbHgtJdU4o5wA9KRLzu1s/aHrgasCl7WrlA7b0nlYkrR5SIPlBpzUT193vvHhArAZ4DsACnivjwSwDY4yGFrx7VU1w8rMhQp2V7nEb682d14hfrDhoquTyuf1POAUdvr/jAzZI50ZQ/AkUDoyFl/w/j2EkYz1LqSvqwskn8ZM1B8SdYfNNNGPoKWqOvP7rUGGeXmiTwcnxAfvRBpXgNVmjODWtKCwdswWt6bUyd0aA1McPbzUuHF4t7x/fB3GtOzEhEg9NtqyvF/RuqRA115C4kGrAoeb9/TC8xDoYt+YLsgcV5Hvr4OIxX1ZDEmtLAARunkY7zDBq0KXsiVEcJ2gEwFElAUJpdsmyPoZKmUCt2fU/8bqytbDYMYQTxkaV5hiW6OBcWwIHRZX7XQ5Wv7eIPjOsb6t4FDxUXfzcgnv3VMuttyPen7biP5kPbbqprtzgve+PoUnEzpFgZPJtIlLIPbaoRN793IGNBUIB+XwNr9w3o+yHwyuLLQjsVjWW/+qhK7PCj1dl4Ohn2TzGF1V7iRqXtpAzrdrfvzrxje4vvjW4DbSNAe+2KA+JuWG0bMthiy66thJcVjWV0r6S7Jcfkp/brYcwxr8WYvArzxppSzIGgOFQ886vF5lbamzO7+Vyo+cYyYZsGn28fVSq+BRW5d6ukpf/w9Df3icWYK+0Ohh7aouhddct7FeLNPY2GxOV9XYf74rxzX4tFPBP47rs+MD+axX+iDbiWE767+S64oWmHlYibx5QiKCCq2NDwdNnre8VfttYaqnK8Lh0GT6ejIOHSRcOgBnM+GX4acYl+zdeu2G/4N1PGUvL+YGwvzAWXxD5KcS/WJzznQBtwo95HnjeQrRVybpTjWjk2pCV2zvJ94o09DYZ7ooovBM43jugp1l80RDwysW+7qSJVeS+O0atqxsgS8eqUgeLuE/sY7pHx6l2DqKN5H1QIGtQoiWm8Ing5rcXxsKYUciAaIBFroA24sUN6o7McKIf6eNcJZYYU4+tMA+zNUDXpzB8vLpYAWnbuILFwQrkBglPhkkg1O9V05qBCOIEUG4EM38Uc7sMT+orTMZ8bD4b/hrp855pKwTln0gBoEz8EeMeW5cW9JtX3kI31m4E7LxsZ4PU9U/DcOra3OKVvQSxI4NeYn33qs9q41mPG1L5x3iBxWv+Cdi//fBi1DoXanCo6vGeeuAzRR1ItZ9/px3wfpqy+iMikeEKUY176M3/ealU+qbxAzME4nvHAmlLEAUsecDNwU9RidlU7BRLsgqGFsXEfJRSBW4E4WBXRT3gp1FSq1lbi1BH9mFNBVHPZz6lwCLHScejLL+COSWcR1biXY9xff1wtXjT5MU/HWHcitATWqyn1HNDA9ZDHdBNklA+NSyRakG9fXSG2IvsEX3YrDYX31HNnDbCVVGdDAl4FUHhNEwCymRjbMsxPRaPgeHHHcb0Nyas6T5X/p5jOehfTRbw31nMTDHFH4DpNqeeABq6HPJ4+slicALWR+aBIv4VUokGHzhZW4jTK05P6C6qrauhEr2BdPz6+t+jfapm21pPMPq3IlyOjBiWrHRG8ND4xRlhFjAP+E1wgtyOKiUSV+RK4S+opIhW3vD2mgesRPwmsiw6JGnlY5TuQRH/YUoOg9I4qMoH66Gn9EHtbEHccae7WYDg+3HNSH/OhpLf5IaAU5zSOGzoZY3UayY7prQY556NX7GuKzUlTOxgGjcPuY+SmXV3GngMauPb8cX32Uhh5juwV9SyigL0f0vY/NS1KFZlTPpRicbTUDm2y3EWQZByTdpbGI1Cf7dOK7Za+fEgRxrtFHcIPeT19lh/dXC0+bY0XpqHtC0OKRJl2zHDL3qTKaeAmxbb2F3Fsy/xQgwqjY1tK25XIWKFyxOcY8LZxvURhAsBha0Uo/3PMs1oD3tv3xH6PuasugcGJ49tEiB8OWo0nY5pIZWmmlZljXRlw/zUE6NM90v2nIZHe6LLkgAauB+8Bp1AoaaQEXfRJjdgKaauiBZjiMUcHqcqojhEEzCVFg1EyxPBaxtvOPtydimxtg6CfDmPWmF4dVWb6ND+NgHs51uXY+JS++cbHxlqP3veGAxq4HvDx3MGFgqlgSAx5o7RVxdUyzSrHl8l6GXGqhWNIeiolSmMxRv0mpKaMTkr0epbnfY4HIKXxzVwH82Ex4RydTfiROR/qcp+C9jEs5vJ6u3Mc0MDtHP8EpQsNN3LM+M/t9Ub2RVW112KqqLQ12EB13s2xXrj+ruPLEpJmtPJ+CePUeNZhN+2yDKd8GGTPGF0r1UHsLoU/877WFK9TAHImC1Cp1tZr9X7iHNDATZxn7a7geHEQXlASQ/Re342XV2FJpicVXQmTlbayUarjx/TOEzchTNANcSg9sX8PcQ2kLSVhZ+lsOJgwEyVjjK1Eh4zdrcAtQcO8Zwbga/KeA5qrneTpsUjvIuctOWf7GeY0mafYSlMxb9oZw5K5vmIMWGdhrOo0D8trRiHq5+soy3G1F0R1nR5S8mNlrpPxuZ9UtQjGG5P+Cx+MUq6NoslzDmjgdoKlVFsZYC4B+c7+JnEAycStRDWahiEmJbcjWmX/BYntRKxlMKT8nceVCSZRj0ccz16AsSb9jp2IUNsCgxqnsJzoDIyxhyv8kolXfry40BiJkrlES1wndiZ1XgM3KbZFLzoKYz2uFiChswbJyisViaMmIGMErbIK7bJd6w9vqhYXL90Tc2Zod9KyQ1WVEUSck1UR26L/83VH9XRsl9cTcLe+X2GsZEADkx1xjMvABNVHg9NCkgcMkOAqCrRoa/KWA5qlneAnpY40NtEveVN1s7GwlrXK07FYF8d8dkRpuwApUJlH+Ztv7bcrGjvHfMzMrsEgeCtx6ohzr4wHdqKDiBV+Cilh/4wIpn9iTnb5XmepfxyGCDJBgLl+WtVlFkjeMYMoVONh8zV6O3EOaOAmzrPYFYdgfR+pJnMdH04BqYTVaMx9OkXNEDTSqLUEy388B+u0ExEYBCj9ic1GL/bpHBiRVJE/1jrZX66W8Af4HFPSrj7QKN6Dyu9EnLeW6XjMZXci1I8fMXyHDOI0mQaumUPebGvgdoKP9A7q2SpJt9e1wFOqo18yx7d8ybksph0txIJbZpr11r6Yymk+bt2mR9WZSJt6OYLhSWxlDKzONyJSx0k1Z/kPoSJzoS+Ob0n8+KyGyr+1NXDAOKj4NxLBESrg0jDFj5jMp8XpsngRSIpq9SGXHNDAdckoVTGqqlKSbkfoHteftRJfcLpE2sGWqiod9c3EJS+vX3nAfCjuNsfPTKPKcEKqxnMw7mXUkRNRpWVWDkpcMzGr4yZYh+2I2gat6aqPAz2oZKaP4SU5WuLaMTLJcxq4STKOgOVqd1wDiEQpU68ALi3PDsJWrKtoVob+MbroL1vrHHvILnCce+u43sa6ulzMyw29urNB0D3TGnZI7YEr19sR1V+Occ0quizPNYckK3ICdp8seYX+TZQDGriJcqy1PF9HvpNOryWtzioXQXOzK+AiqSKOE7+zcr/Y7QAiXkupTuf+n51Y5krCUapyORGpIpvb34P2dtWrI5vM5fjBUOGSY1z5MaBU1jNCZq55s62BmyQfORViNro0YGwXinRUlVlG9XKbm7UbT3LV+OvfcacyU/qpLL3mtrjNqKXntteJZ5AmVkWUlnRhVDmSmMuzLdWUEC3krT4YxkfL6eNmrlNvu+OABq47PnUoRRWZEkdSlSFl5F7bb1+83E7OQzIcru2qti0CgONQBqx7RXTL5Orz0vKrqpf3Q/BqykwOaOAm+Vw4jjMvH8IMGNJQZa6Sai6K2tJBgMSOaOi5bVWFsdC1XTk35zYh3czjmG7yYqHsEL4qCiWj3fBBY9/NU0m8jAZu4jxL6ApOi9jDErmJHfyIKfdo/OJi150hqsgvIBDgScTOOhE1CifDEp1FOESwEnMtwyZnEK3jilky6yV6P0EOaOAmyDBZnNKW0ylyHFgCfVhlhNkP32VZRl5r/XUTI8txJ6dtHk1SZSa86BH1mw3Vjv3hCIBztE6+1eSBSqLSGBdsHdiz3x2hbeWA3k+UAxq4iXLMVJ6J4BpaxSkTuhUpkEsppxBKplqEOMEh26IszHliukWqLMGyTLzfzXDHXLK5VnwMVdmJaKHmagzmMbz1GlqNo+P6jrBk5BAuN2gHppakhdlah95PngMauMnzzpjrrGkdwDJHcrFiwpYpTDk9Ygfe45Ht0Q0RIlw9gCqzXX3WuqgZvLijASqy2opsLc/II6q7drQNDid00bT2gywgL6S3FMfSMszPrj59LjEOaOAmxq92pbfBQ0g61NMnt1hhPqbEpZSze3n5oo+Fm6Ib4piZK+f9zuIiGe9aAut9uDA+sLEq5s0Ur6w8TmeOwxVZLuR5/n4CCc4PkpWi0jon5phCHjkZ56x16H1nDmjgOvMoboltkH4y9pQGJs5rqpwtPjrY5AgaJmJzS7RC37O+SjBw3YkY2L8E4+K1lc4qsqzraARFjIT7pB3xY6SKPba6eG6GD7R0f7SrT59LjAMauInxq13pjfA+ovGJxFgDZsPopZC6K/Y2KVO1miu7EkngMLR0RVSZt2HsePvqynZTUtaLKe1f3RmN/LGei7fPONuTEAAvVd145dbhQ6BK9s4YYLp5kug2ybG1DDiIV5c+njgH7D+rideXVVcwvxIlymkACKN0GKNKa6wMz5PM4Jq4n8OF0C6YfjAk9rdGlRoLhMnr7H4pxagy01h1JjJHqky37BsXHDPPN9vVyXNnIbsFs1HaEWNu+adyHGHWi96tH69VUNGlRmJXnz6XOAc0cBPnWbsrmDliH6TusNxcI1VLX6QkZZpSMxE4/9hWb2RH5BgwHjHn8u/hHCEzSMQrJ49zjMmFt/jnBY3Dh+e8IYXKFQvM9TO9zmetYYDm4/RLHo2xurSu0wdbGu/M5fR25zkQ/y3qfN1ZUcPbWJ2dzhEkhtQdC1WRc7pW+it8g508pBgmuGhiX+uladmnz/FFSOHKAHw7opGNS4fSh9pKlNSDsZoDp5GoHr8JgEvjnbWs3u8cBzRwO8c/I1cTDTVSHf0CJNbAHh0VGeaj+jdA7mSoYd7i7x/jLvVqJ7seu5xAuwxZKJkw3Wls+/LnDeID3IvKqeQc5FLu3yP6Si3HvTLxHEYRmlLAAQ3cTjKVnkOvY6wppS6lzjAEmVundPn+/gwqrXX8q2r+pyeUiW/GSQKnKt+ZY+wns0DeMLrUmH+1q4tjWkYUqZw4mEKHjiQylQ9T7+xXTBfZ1a/PueeABq57XsUt+RqAux1TQyQapy4ZVqx0YKCx5llE+qiMOtbKf3NKH6yLW2Y97Ok+Je2FUI/vxoeCFnEn4uJeHLeqrMRMncOMjiQa7TgO1mqyE0eTP6+BmzzvYlfSBfFlOO/ToZ50CZakZGpSlcvg/647KHYA5E4aJOeDb0USOC5+7QZUsc643BgIK/YtY3qJ+04uN1KtOl3GMS1zU22ANdlKXGrkPENNjnpbPYFynD+m84em1HBAA9cjvj6B9KaftlpaOe3DsSotzFYiyOevrnAtjbjC+xvnDfRU+jK4nxkgKdHpteVEHA78Fuv9voQ5YW5bieNj5riCADe8qZ6BViE/Ytayet8bDmjgesNHY9z3CnI4HWhdN+jrGKNyiRCVJxVTxjysyPUUryucXhmtyJ0cr7zTcaq6dP7f06ohOJX/C8a1T8PPWWUVZ0bJSzE0kEuS/An3xphfFcCd2tHn3XNAA9c9rxxLPoSVCNbDvZEqIkP1rj+q1FixTnXhD7BqwDvI7OhGnQwjWv1fcOLwkqiuq9ReaxtcMvR+SFvmqLISDVtMyH5MWVTacpzP/MxOieas9ej9xDmggZs4z+JewekPhs5RmpHOxdTQl2H8UTldcFrowqW7BQ1WCu2zXRuUXrRce0ns4wZIRjt6B6C9bVVl3LZ5b5z3lffH8Tv9p918jOza1eecOaCB68yjhEo8jpSqnK+l5Zj+yz+EgSneYtD09f3Sa7uNhbDtGuEU0mp4aHlJuxFI/DGkaLyPBqXxTzB99QrGtaoyXD/o+qNLjUXP2C+W4zKbbr2+vLyXbKxLA9fjp85g9zvWVIp1rZKHEUN3YbqFCcRpvLES1covvLLbWD3Aeo77lF70zvJaijG4nZZfht1Z6S20x8ySTFKnAi3XQbp1XC9j/VveEy3Ov1hXhbWTOtZlrVvve8MBDVxv+NiulvWInOGLLFXm8QiU//mJfeLmlmLupgnP7xS//KiqXT3cIXBe29V+pYEOhZI8wNUXGOgviV5Of0Y+qqvf3m9Mb6k+FjS23YhppPMx/cPkeDR0/fTDg8bHReVNJevWv95yQAPXW37GansS00OPfVobCzbntA6DCJgSRkV0mbwBUm7q63uM9XtkGcMwBWeGVBBDA6WBitM3P/mwUlzz9j5jPSFVe5yXnoulTri0JzUJflQe2lQj/grJzGVUNKWPA+q3KH3t+7YlvtR3Y4xIdZNxsSS+8PMBXukWaBy0/KPEO+7vO2LSl6o0Y19TQQQrA+z5kfnSa3vEnWviu2RSJb72yFJxo8k18lksj/Kbj6uU6nYq+qvrbONA27Br8Zbo29V2Tm95wAFOCz1yWl/Ds0g68DPtzA+RJ5lzvnZMHws3xAuHFoofQxVNFVH15UugcmOUbTLb47cxtfUdGKOYj4rEpOrMffW+iyU5ZT36t5McmDEihtfYhtDA7SRX41/OjBCPIFyPkUMSvLTCTntjn6MTBB+QHbjjt+rNGS4T+j+IVroG0laq+UwTezu8v5jLSjUO9qZlXUsHDpiAq1XlDtzx/gA9jqa/uVf8ESqpDP87G/OfS6cMdMw20ZWgpcRnfPBNMEYRtOzLM1CPb3rvgHgXklaD1vt3xW2NbcANiGVuL9LlEucAF4z+1vL9GBNWx/yUmS3i5XMGiO9CBVUtnpV4K95cQV/mS+HL/ChU/KnwQ6b1mMN0Lr59M0BLq7mmruVAG3Aj4vWu7Yr/W+c48ha8+NdgukXG7xIk947vI5aeO1AwEL2riZFID5xaLhZOKDfia6mq0z3y++g3x+VerDnU1ffYLdu3CNY24Ia1xE3HA6V6ySCD01/YacS2ynV1TulbIF46e4D4w+n9EGmT2yEQP5V94wIMDEO8HQtj/+OsAWLW4SWGrzWl7GqMY+eu2C/uwxyzKqtjKvul6zZxwCJYO+ZYMZXVm6njABPKnfPybvFVqKLMeCENP1cgIP2LsCS/ibxOP4PvLzM5porokslxLIFKv+MhSOrOwAESE+D9bmONeBDqMed79Xg2ypdM+d/6mFq7s2TLUlggJmVK57KlH4zfvQfqMoPRmUHDTHSQ4Fq2zCjBIAbV6gHm8k7btBIPR1K7U/sViCtGlIgzBhS0Cz2kIW0Z2mLCdbapKUM4YLIos0ftgfvIlkkiKJZmSFezqhuUdFw4jA4aM7GqARe7kw8HGqvhxFEBKfgBgg1o2WVUEYPyGczANWpZJmJarJar5bEOjqH5YWCSc46hJwKwXMu3BGliKXFJvJbWbk7z3AvAvrc/GiRhnNT/MoEDC8SMEfPNHZHvRtuxxVtYYF7bAb2Vbg6MQuQNs0pw3peSseNDivaIluqdSLTOpOPRBbQJQayqALDS8aMP/voBtPxVEbBqJABgLikGy69EfLBeWU/FqS491gG07I36ndAqc5c+Kflg6NV0RGmu4bU0BdKyHAAsNknKRDtJY1M9rGF7EdL3NmJtuTI91eE6IFiPYRPlZprKW1Rk2araOBUSCwQ92/R4V/Ip7b+UnZw+op8yp484l8oUqEdAGh8BqzNX0xvbG4tzYZveWNbFsekfXQXHf047McSQ9TASiEYxhvOp0tCk/SZ1g/YcCIvJ8QqoJa4srdVmyYmM/uX4mIEL/CVFJWvE1v84WlL/z0gOcM6WwnPWiGXx+mcPXF4VBS+35vGfJs0BzYEUccAFYGXLzsCVJfnbBmKOjs8wn+rSba3Sdyn7u13jFi+kLu0/HSuk85ONhLX2MTHgWq/OlH09jZUpT6I79ENppe0OHTf3UT1PYC7RHbYT+FJ1h9vRfUwhB6R0S2ET6ajaH8AlpzJJ/UnHk9NtJMcBn3zk/QNcWuE0aQ7Yc8A374g/xrjyYWnHEckJ/WvlADWy6SMmWw93133/SFw+AS11u+t7mPp+W8LiUt9galvwl8Qlr7SFObVvTPes3ReWZDPr/SVxeWdR44NvxjLmh6W3k+KA70BLLvhP4spnq901JSey+deXoOUD9S9weXcavORCtpJvQcsH6m/gyldWA1hywv+/Cfj7dmdmZAdw5RMigOljrX2bJUf88Sudbxwiavxxs9G7yC7gmp9cVApLLmROwIS5j3o7PgeSdM6PX6E+ozmgOaA5oDmgOaA5oDlg5cD/A+qplueDZ5IZAAAAAElFTkSuQmCC;aspect=fixed;" parent="afDIatIIUUOGtq9c_muA-4" vertex="1">
          <mxGeometry x="786" y="58.129999999999995" width="50" height="27.73" as="geometry" />
        </mxCell>
        <mxCell id="9_x6dCNxKeWLmISFSyYR-6" value="db-system-api" style="shape=image;verticalLabelPosition=bottom;verticalAlign=top;imageAspect=0;image=data:image/png,iVBORw0KGgoAAAANSUhEUgAAAO4AAACECAYAAACXgRceAAAAAXNSR0IArs4c6QAAAIRlWElmTU0AKgAAAAgABQESAAMAAAABAAEAAAEaAAUAAAABAAAASgEbAAUAAAABAAAAUgEoAAMAAAABAAIAAIdpAAQAAAABAAAAWgAAAAAAAAFKAAAAAQAAAUoAAAABAAOgAQADAAAAAQABAACgAgAEAAAAAQAAAO6gAwAEAAAAAQAAAIQAAAAAyiTvzQAAAAlwSFlzAAAywAAAMsABKGRa2wAAIsdJREFUeAHtXQmYFNW1vt2zMQsDw7CDIKKoILiigs8nuKDGxKgRoxLZkhDFaGJc8mL8BKKJMcnTxJcYg4qCMYkao1mMu2A0IriACIggEllkZ4bZt+5+/189t6em5nZVdU91T0/1Pd8307XcuvfWqfrrnHvuOecKoUlzQHOg23Eg0O163M07PGfOnLyWlpZ+gUCg4eGHH67A7US6wy1dddVVxQWBgpGhSKgskhPhe7Ortrb206eeeqqpO/Tfb30M+u2GMv1+GhoaSkVYXB5piVwxffr0I+bOnVuS4X0OXHnllWU5OTlnhgKhB0RQvIJPzVJ8eG4pLy/vneF99233cn17Zxl6Y/n5+bnhlvDYsAhPDwaCO+tr61fNnjn7XwDES7m5uesXLlzYnCldnz179mAREl9EX78CsJ4cEREN1Ax5OBq4XfcgqO0MARiGRCKRCwCQBU3hprUAyxPhcPglAHxrRUVFPVRRAjkt6vTUqVNz+vXrV1hXVzcCEvWr6Mc0tD0Mf1ozAxMyiTRw0/w0ANJmwGB3IBRoAWgl/zlmLAQ8x4dD4fHYrm1uav6kuLh41cyZM98PhoPvNoYa1z3++ONVXnd3/vz5wa1btw5Ev8YHIoEJdbV1E9DGOOzHla4BEWhB2T3Nzc0tXvdH1+eOA9o45Y5PXpYKTJs2rSckKgFyUyQcOQO/BLDyWRAkONeAv12Qgi/miJzFJbUla+958p4G7CcliQnWPXv2FNXX15+M+r8ByToJ9ZfhLx9/SukKIEeCwWAjevkyPjr3osfvLlq0qAblk+oDrtPUCQ4oX5ZO1KcvTYADN9xwQyHU4ZOAiSsAoMm4dCT+8uyqMIAcEGsgrf8OIL0Cqbfqscceq7W7pvVcYO7UucX1JfUnQlpOQZsXAoSjiUeHa6vxgViPdl+NBCJP79q1a93zzz/f6HCNPp1iDmjgppjBbqrH2DIfavFgAJGAuhpS+HgX11HSVQSCgQ8ArDuGDRv2BiSpUnXF8Vyow6dDsi6AfDwG11ENtn32qPMgyv4dYF0C7WDVxo0bK5ctW6as30VfdRGPOWD78DxuS1fnggNQo0sBlPMB4KsAnBMh6fqaxsLxaggDaI8BissBznbgwvG8oAhODEfCX8PFds87hLYqANSNKP9cbiT3iYWLF26O16A+3rUcsHuQXduzLG+dAC4IFowKB8JnAW5TwY6x+OMY1GuqR/2rUOmz+HsDwN+0ZMmSA9jWY1evOe1hfRq4HjIzRVUFoErn9ezZ82SAajrGp5MhgftDOha5kMTWLhGM9HSqgSTejuv/BseKJ6uqqj7CtFPIWljvZy4HNHAz99koe3b11Vf3h/fVaAD4aIDvaIBvFGTjMEjNQVCvS3EsZmzCPoFK49IWlKPauwGH1uZF8tY1Rho3uzRqKfuhD3YtBzRw08R/SM1CSM3TIDVnQVo2BHOC927evHlDZww+dJgYOHBgbmVlZW5eXl4wWB8saspr6gUjVxH+Io2Njftxe1UwfLXAet0yZsyYFhiqwgnecgD+1bktDS0nYaJoDryoDsGH4DPU8SZ+X4S3195M8vZK8N66bXEN3NQ/ugCcKIYDrPMh7WggymltshK/L8Aq/DTU1bcffPDBHQBCxowr+VEA4A8JRoKnRYKRr8DSPRn9tTplVEHS/xPHF8GgtkwDuPXJpuFHAzfFTAYASkqKS14EaOlwYeU3gdqAo58BtP8AgBc99NBDH6W4S7bV0zkDU0dj0d9vAKzno/Bg/PXAn7Xv5noOQoO4o7q6+pd6rGxmS+q27R5G6lrNoppnzZr1cwDgJpe3XAsArwBEngmGgisbw43bioqK9qVSkuHDkl9YWNgPH43hkVDkVLR/MdqnUwjB6ppwXRhaxdcXPbroUdcX6YJJc0ADN2nWOV84Y8aMkXihP4TxqNC5dLsStPBSld4BMGwI5ARWAkjLWRfcDKvblUxi57rrriutqak5HgauCRiz0kd5FIxXQ1BVL/zFjFtJVF3R3NI8Dj7V25O4Vl+SAAekk3sCl+iibjmQF8y7HIHnhQCF20tkOY6Dy/mHa8dBEl5GRRWSu3bWzFmf4PhqgI0fhE/DwfB2SMuKQFMgFMmPhOECGYGhKhAKhQI4novfvgD8UMQAH4brOBd8XHVV9Sj85st+yV8c6xShnTKMdWejkh91qiJ9sSMHNHAdWZR8AYD2HEjK5CswXxmtphj1HYvDxxpgo76E46GWUBPkZLNoEc2I8Q0hwigHwM7F8QKUyPOsD+b+KLbZDryupuCUBq6CP14e0sD1kpsd66KESwfRo4p/BqULqLI98y++GhPN+3o7NRwIpqZaXSs5AAD1yTZOQF3WdpM0PHQN3DQwWTehOeA1BzRwveaork9zIA0c0MBNA5N1E5oDXnNAA9drjur6NAfSwAEN3DQwWTehOeA1BzRwveaork9zIA0c0MBNA5N1E5oDXnNAA9drjur6NAfSwAEN3DQwWTehOeA1B7Lb5fGRLZO8Zqi5vl0fLDbvZs92ivkaY+SsEcti21m2kV3uaXyhgmISIm3OgHP+pCx71n6+3QWIflomsgjI2QFcAjZHzNNg9TN2Y/e2QMwYMT+259MN/wN3yZalGrA+fXvj35bvwetf4GopG/+1zpYzYTHZr+qzP4EbHcsuzZb3U9+nLQd8KX39OR0UFBq0tu9yVp2cJ/gh9xn5D7gc02rSHDBzwIcfcn+pyou3zMfzmmd+Zn7c5kPLCwZET6zDV5IXEEU5AYFd/AZFPtLMVTQhd2MEiwThX3VzRFQ1h0VjCAeymQKYLpo+YrJfWOA34Pr67SzODYghRbmiX4+gOAS/R/bKEyN75hrHgF8xtDhX9MkPitUVTaIZoCWAPz7YLD7C37bakNjXGBI760PiII77mlHx0OkjY5V/PKei0jbeI+uWx/lVLYA0/e8BPcRXDy3GbwGAmSMI4Hwcj/fVPQPlzUSQEsh1LRGANyze398onvhPrVi2q8EAd9aAmHP5ApLXBxTv2Xe/W1uMBel8QvnQe88c2ENcMLRIfGV4kRhUKJcb8vYGP4f0fWFHvfjbtjrx1t5Gsbch5G0DmVjbjBG+eOd9cROG1dAHBohCSNHJAOx9J5eLYcU5xjjW+u5TctZjvMq/XQAe1eCNVUipjDX4qArXYEw7oiTXkMj9CoJibFm+GI59joN74I8S3PzQ+bVrQZ2fVLeIBzZWiz9uqRX7UQ8O+ZN8oi6bn6G7B5WJpnX6H3dzo9TcI3uK2Yf3FCeWx9Ijx54HMfTOvkbx0uf14r0DTWIjwLqjdawaK2SzQdV6IKT2iJI8cUKffHHWoB7ilH4FoheMW2ai/epjfAQe21wjfv9pjdhe50MJTCNVSCww33eXbyfhY+0OuNoLKSXPlpbgo2Fguv+UcmMca24Ew1EYlFrE81Bl71l/UGyGRPSShsK4Ne2wYmPsfDgMXLRQm+ltqM53rT0oXsbHgtJdU4o5wA9KRLzu1s/aHrgasCl7WrlA7b0nlYkrR5SIPlBpzUT193vvHhArAZ4DsACnivjwSwDY4yGFrx7VU1w8rMhQp2V7nEb682d14hfrDhoquTyuf1POAUdvr/jAzZI50ZQ/AkUDoyFl/w/j2EkYz1LqSvqwskn8ZM1B8SdYfNNNGPoKWqOvP7rUGGeXmiTwcnxAfvRBpXgNVmjODWtKCwdswWt6bUyd0aA1McPbzUuHF4t7x/fB3GtOzEhEg9NtqyvF/RuqRA115C4kGrAoeb9/TC8xDoYt+YLsgcV5Hvr4OIxX1ZDEmtLAARunkY7zDBq0KXsiVEcJ2gEwFElAUJpdsmyPoZKmUCt2fU/8bqytbDYMYQTxkaV5hiW6OBcWwIHRZX7XQ5Wv7eIPjOsb6t4FDxUXfzcgnv3VMuttyPen7biP5kPbbqprtzgve+PoUnEzpFgZPJtIlLIPbaoRN793IGNBUIB+XwNr9w3o+yHwyuLLQjsVjWW/+qhK7PCj1dl4Ohn2TzGF1V7iRqXtpAzrdrfvzrxje4vvjW4DbSNAe+2KA+JuWG0bMthiy66thJcVjWV0r6S7Jcfkp/brYcwxr8WYvArzxppSzIGgOFQ886vF5lbamzO7+Vyo+cYyYZsGn28fVSq+BRW5d6ukpf/w9Df3icWYK+0Ohh7aouhddct7FeLNPY2GxOV9XYf74rxzX4tFPBP47rs+MD+axX+iDbiWE767+S64oWmHlYibx5QiKCCq2NDwdNnre8VfttYaqnK8Lh0GT6ejIOHSRcOgBnM+GX4acYl+zdeu2G/4N1PGUvL+YGwvzAWXxD5KcS/WJzznQBtwo95HnjeQrRVybpTjWjk2pCV2zvJ94o09DYZ7ooovBM43jugp1l80RDwysW+7qSJVeS+O0atqxsgS8eqUgeLuE/sY7pHx6l2DqKN5H1QIGtQoiWm8Ing5rcXxsKYUciAaIBFroA24sUN6o7McKIf6eNcJZYYU4+tMA+zNUDXpzB8vLpYAWnbuILFwQrkBglPhkkg1O9V05qBCOIEUG4EM38Uc7sMT+orTMZ8bD4b/hrp855pKwTln0gBoEz8EeMeW5cW9JtX3kI31m4E7LxsZ4PU9U/DcOra3OKVvQSxI4NeYn33qs9q41mPG1L5x3iBxWv+Cdi//fBi1DoXanCo6vGeeuAzRR1ItZ9/px3wfpqy+iMikeEKUY176M3/ealU+qbxAzME4nvHAmlLEAUsecDNwU9RidlU7BRLsgqGFsXEfJRSBW4E4WBXRT3gp1FSq1lbi1BH9mFNBVHPZz6lwCLHScejLL+COSWcR1biXY9xff1wtXjT5MU/HWHcitATWqyn1HNDA9ZDHdBNklA+NSyRakG9fXSG2IvsEX3YrDYX31HNnDbCVVGdDAl4FUHhNEwCymRjbMsxPRaPgeHHHcb0Nyas6T5X/p5jOehfTRbw31nMTDHFH4DpNqeeABq6HPJ4+slicALWR+aBIv4VUokGHzhZW4jTK05P6C6qrauhEr2BdPz6+t+jfapm21pPMPq3IlyOjBiWrHRG8ND4xRlhFjAP+E1wgtyOKiUSV+RK4S+opIhW3vD2mgesRPwmsiw6JGnlY5TuQRH/YUoOg9I4qMoH66Gn9EHtbEHccae7WYDg+3HNSH/OhpLf5IaAU5zSOGzoZY3UayY7prQY556NX7GuKzUlTOxgGjcPuY+SmXV3GngMauPb8cX32Uhh5juwV9SyigL0f0vY/NS1KFZlTPpRicbTUDm2y3EWQZByTdpbGI1Cf7dOK7Za+fEgRxrtFHcIPeT19lh/dXC0+bY0XpqHtC0OKRJl2zHDL3qTKaeAmxbb2F3Fsy/xQgwqjY1tK25XIWKFyxOcY8LZxvURhAsBha0Uo/3PMs1oD3tv3xH6PuasugcGJ49tEiB8OWo0nY5pIZWmmlZljXRlw/zUE6NM90v2nIZHe6LLkgAauB+8Bp1AoaaQEXfRJjdgKaauiBZjiMUcHqcqojhEEzCVFg1EyxPBaxtvOPtydimxtg6CfDmPWmF4dVWb6ND+NgHs51uXY+JS++cbHxlqP3veGAxq4HvDx3MGFgqlgSAx5o7RVxdUyzSrHl8l6GXGqhWNIeiolSmMxRv0mpKaMTkr0epbnfY4HIKXxzVwH82Ex4RydTfiROR/qcp+C9jEs5vJ6u3Mc0MDtHP8EpQsNN3LM+M/t9Ub2RVW112KqqLQ12EB13s2xXrj+ruPLEpJmtPJ+CePUeNZhN+2yDKd8GGTPGF0r1UHsLoU/877WFK9TAHImC1Cp1tZr9X7iHNDATZxn7a7geHEQXlASQ/Re342XV2FJpicVXQmTlbayUarjx/TOEzchTNANcSg9sX8PcQ2kLSVhZ+lsOJgwEyVjjK1Eh4zdrcAtQcO8Zwbga/KeA5qrneTpsUjvIuctOWf7GeY0mafYSlMxb9oZw5K5vmIMWGdhrOo0D8trRiHq5+soy3G1F0R1nR5S8mNlrpPxuZ9UtQjGG5P+Cx+MUq6NoslzDmjgdoKlVFsZYC4B+c7+JnEAycStRDWahiEmJbcjWmX/BYntRKxlMKT8nceVCSZRj0ccz16AsSb9jp2IUNsCgxqnsJzoDIyxhyv8kolXfry40BiJkrlES1wndiZ1XgM3KbZFLzoKYz2uFiChswbJyisViaMmIGMErbIK7bJd6w9vqhYXL90Tc2Zod9KyQ1WVEUSck1UR26L/83VH9XRsl9cTcLe+X2GsZEADkx1xjMvABNVHg9NCkgcMkOAqCrRoa/KWA5qlneAnpY40NtEveVN1s7GwlrXK07FYF8d8dkRpuwApUJlH+Ztv7bcrGjvHfMzMrsEgeCtx6ohzr4wHdqKDiBV+Cilh/4wIpn9iTnb5XmepfxyGCDJBgLl+WtVlFkjeMYMoVONh8zV6O3EOaOAmzrPYFYdgfR+pJnMdH04BqYTVaMx9OkXNEDTSqLUEy388B+u0ExEYBCj9ic1GL/bpHBiRVJE/1jrZX66W8Af4HFPSrj7QKN6Dyu9EnLeW6XjMZXci1I8fMXyHDOI0mQaumUPebGvgdoKP9A7q2SpJt9e1wFOqo18yx7d8ybksph0txIJbZpr11r6Yymk+bt2mR9WZSJt6OYLhSWxlDKzONyJSx0k1Z/kPoSJzoS+Ob0n8+KyGyr+1NXDAOKj4NxLBESrg0jDFj5jMp8XpsngRSIpq9SGXHNDAdckoVTGqqlKSbkfoHteftRJfcLpE2sGWqiod9c3EJS+vX3nAfCjuNsfPTKPKcEKqxnMw7mXUkRNRpWVWDkpcMzGr4yZYh+2I2gat6aqPAz2oZKaP4SU5WuLaMTLJcxq4STKOgOVqd1wDiEQpU68ALi3PDsJWrKtoVob+MbroL1vrHHvILnCce+u43sa6ulzMyw29urNB0D3TGnZI7YEr19sR1V+Occ0quizPNYckK3ICdp8seYX+TZQDGriJcqy1PF9HvpNOryWtzioXQXOzK+AiqSKOE7+zcr/Y7QAiXkupTuf+n51Y5krCUapyORGpIpvb34P2dtWrI5vM5fjBUOGSY1z5MaBU1jNCZq55s62BmyQfORViNro0YGwXinRUlVlG9XKbm7UbT3LV+OvfcacyU/qpLL3mtrjNqKXntteJZ5AmVkWUlnRhVDmSmMuzLdWUEC3krT4YxkfL6eNmrlNvu+OABq47PnUoRRWZEkdSlSFl5F7bb1+83E7OQzIcru2qti0CgONQBqx7RXTL5Orz0vKrqpf3Q/BqykwOaOAm+Vw4jjMvH8IMGNJQZa6Sai6K2tJBgMSOaOi5bVWFsdC1XTk35zYh3czjmG7yYqHsEL4qCiWj3fBBY9/NU0m8jAZu4jxL6ApOi9jDErmJHfyIKfdo/OJi150hqsgvIBDgScTOOhE1CifDEp1FOESwEnMtwyZnEK3jilky6yV6P0EOaOAmyDBZnNKW0ylyHFgCfVhlhNkP32VZRl5r/XUTI8txJ6dtHk1SZSa86BH1mw3Vjv3hCIBztE6+1eSBSqLSGBdsHdiz3x2hbeWA3k+UAxq4iXLMVJ6J4BpaxSkTuhUpkEsppxBKplqEOMEh26IszHliukWqLMGyTLzfzXDHXLK5VnwMVdmJaKHmagzmMbz1GlqNo+P6jrBk5BAuN2gHppakhdlah95PngMauMnzzpjrrGkdwDJHcrFiwpYpTDk9Ygfe45Ht0Q0RIlw9gCqzXX3WuqgZvLijASqy2opsLc/II6q7drQNDid00bT2gywgL6S3FMfSMszPrj59LjEOaOAmxq92pbfBQ0g61NMnt1hhPqbEpZSze3n5oo+Fm6Ib4piZK+f9zuIiGe9aAut9uDA+sLEq5s0Ur6w8TmeOwxVZLuR5/n4CCc4PkpWi0jon5phCHjkZ56x16H1nDmjgOvMoboltkH4y9pQGJs5rqpwtPjrY5AgaJmJzS7RC37O+SjBw3YkY2L8E4+K1lc4qsqzraARFjIT7pB3xY6SKPba6eG6GD7R0f7SrT59LjAMauInxq13pjfA+ovGJxFgDZsPopZC6K/Y2KVO1miu7EkngMLR0RVSZt2HsePvqynZTUtaLKe1f3RmN/LGei7fPONuTEAAvVd145dbhQ6BK9s4YYLp5kug2ybG1DDiIV5c+njgH7D+rideXVVcwvxIlymkACKN0GKNKa6wMz5PM4Jq4n8OF0C6YfjAk9rdGlRoLhMnr7H4pxagy01h1JjJHqky37BsXHDPPN9vVyXNnIbsFs1HaEWNu+adyHGHWi96tH69VUNGlRmJXnz6XOAc0cBPnWbsrmDliH6TusNxcI1VLX6QkZZpSMxE4/9hWb2RH5BgwHjHn8u/hHCEzSMQrJ49zjMmFt/jnBY3Dh+e8IYXKFQvM9TO9zmetYYDm4/RLHo2xurSu0wdbGu/M5fR25zkQ/y3qfN1ZUcPbWJ2dzhEkhtQdC1WRc7pW+it8g508pBgmuGhiX+uladmnz/FFSOHKAHw7opGNS4fSh9pKlNSDsZoDp5GoHr8JgEvjnbWs3u8cBzRwO8c/I1cTDTVSHf0CJNbAHh0VGeaj+jdA7mSoYd7i7x/jLvVqJ7seu5xAuwxZKJkw3Wls+/LnDeID3IvKqeQc5FLu3yP6Si3HvTLxHEYRmlLAAQ3cTjKVnkOvY6wppS6lzjAEmVundPn+/gwqrXX8q2r+pyeUiW/GSQKnKt+ZY+wns0DeMLrUmH+1q4tjWkYUqZw4mEKHjiQylQ9T7+xXTBfZ1a/PueeABq57XsUt+RqAux1TQyQapy4ZVqx0YKCx5llE+qiMOtbKf3NKH6yLW2Y97Ok+Je2FUI/vxoeCFnEn4uJeHLeqrMRMncOMjiQa7TgO1mqyE0eTP6+BmzzvYlfSBfFlOO/ToZ50CZakZGpSlcvg/647KHYA5E4aJOeDb0USOC5+7QZUsc643BgIK/YtY3qJ+04uN1KtOl3GMS1zU22ANdlKXGrkPENNjnpbPYFynD+m84em1HBAA9cjvj6B9KaftlpaOe3DsSotzFYiyOevrnAtjbjC+xvnDfRU+jK4nxkgKdHpteVEHA78Fuv9voQ5YW5bieNj5riCADe8qZ6BViE/Ytayet8bDmjgesNHY9z3CnI4HWhdN+jrGKNyiRCVJxVTxjysyPUUryucXhmtyJ0cr7zTcaq6dP7f06ohOJX/C8a1T8PPWWUVZ0bJSzE0kEuS/An3xphfFcCd2tHn3XNAA9c9rxxLPoSVCNbDvZEqIkP1rj+q1FixTnXhD7BqwDvI7OhGnQwjWv1fcOLwkqiuq9ReaxtcMvR+SFvmqLISDVtMyH5MWVTacpzP/MxOieas9ej9xDmggZs4z+JewekPhs5RmpHOxdTQl2H8UTldcFrowqW7BQ1WCu2zXRuUXrRce0ns4wZIRjt6B6C9bVVl3LZ5b5z3lffH8Tv9p918jOza1eecOaCB68yjhEo8jpSqnK+l5Zj+yz+EgSneYtD09f3Sa7uNhbDtGuEU0mp4aHlJuxFI/DGkaLyPBqXxTzB99QrGtaoyXD/o+qNLjUXP2C+W4zKbbr2+vLyXbKxLA9fjp85g9zvWVIp1rZKHEUN3YbqFCcRpvLES1covvLLbWD3Aeo77lF70zvJaijG4nZZfht1Z6S20x8ySTFKnAi3XQbp1XC9j/VveEy3Ov1hXhbWTOtZlrVvve8MBDVxv+NiulvWInOGLLFXm8QiU//mJfeLmlmLupgnP7xS//KiqXT3cIXBe29V+pYEOhZI8wNUXGOgviV5Of0Y+qqvf3m9Mb6k+FjS23YhppPMx/cPkeDR0/fTDg8bHReVNJevWv95yQAPXW37GansS00OPfVobCzbntA6DCJgSRkV0mbwBUm7q63uM9XtkGcMwBWeGVBBDA6WBitM3P/mwUlzz9j5jPSFVe5yXnoulTri0JzUJflQe2lQj/grJzGVUNKWPA+q3KH3t+7YlvtR3Y4xIdZNxsSS+8PMBXukWaBy0/KPEO+7vO2LSl6o0Y19TQQQrA+z5kfnSa3vEnWviu2RSJb72yFJxo8k18lksj/Kbj6uU6nYq+qvrbONA27Br8Zbo29V2Tm95wAFOCz1yWl/Ds0g68DPtzA+RJ5lzvnZMHws3xAuHFoofQxVNFVH15UugcmOUbTLb47cxtfUdGKOYj4rEpOrMffW+iyU5ZT36t5McmDEihtfYhtDA7SRX41/OjBCPIFyPkUMSvLTCTntjn6MTBB+QHbjjt+rNGS4T+j+IVroG0laq+UwTezu8v5jLSjUO9qZlXUsHDpiAq1XlDtzx/gA9jqa/uVf8ESqpDP87G/OfS6cMdMw20ZWgpcRnfPBNMEYRtOzLM1CPb3rvgHgXklaD1vt3xW2NbcANiGVuL9LlEucAF4z+1vL9GBNWx/yUmS3i5XMGiO9CBVUtnpV4K95cQV/mS+HL/ChU/KnwQ6b1mMN0Lr59M0BLq7mmruVAG3Aj4vWu7Yr/W+c48ha8+NdgukXG7xIk947vI5aeO1AwEL2riZFID5xaLhZOKDfia6mq0z3y++g3x+VerDnU1ffYLdu3CNY24Ia1xE3HA6V6ySCD01/YacS2ynV1TulbIF46e4D4w+n9EGmT2yEQP5V94wIMDEO8HQtj/+OsAWLW4SWGrzWl7GqMY+eu2C/uwxyzKqtjKvul6zZxwCJYO+ZYMZXVm6njABPKnfPybvFVqKLMeCENP1cgIP2LsCS/ibxOP4PvLzM5porokslxLIFKv+MhSOrOwAESE+D9bmONeBDqMed79Xg2ypdM+d/6mFq7s2TLUlggJmVK57KlH4zfvQfqMoPRmUHDTHSQ4Fq2zCjBIAbV6gHm8k7btBIPR1K7U/sViCtGlIgzBhS0Cz2kIW0Z2mLCdbapKUM4YLIos0ftgfvIlkkiKJZmSFezqhuUdFw4jA4aM7GqARe7kw8HGqvhxFEBKfgBgg1o2WVUEYPyGczANWpZJmJarJar5bEOjqH5YWCSc46hJwKwXMu3BGliKXFJvJbWbk7z3AvAvrc/GiRhnNT/MoEDC8SMEfPNHZHvRtuxxVtYYF7bAb2Vbg6MQuQNs0pw3peSseNDivaIluqdSLTOpOPRBbQJQayqALDS8aMP/voBtPxVEbBqJABgLikGy69EfLBeWU/FqS491gG07I36ndAqc5c+Kflg6NV0RGmu4bU0BdKyHAAsNknKRDtJY1M9rGF7EdL3NmJtuTI91eE6IFiPYRPlZprKW1Rk2araOBUSCwQ92/R4V/Ip7b+UnZw+op8yp484l8oUqEdAGh8BqzNX0xvbG4tzYZveWNbFsekfXQXHf047McSQ9TASiEYxhvOp0tCk/SZ1g/YcCIvJ8QqoJa4srdVmyYmM/uX4mIEL/CVFJWvE1v84WlL/z0gOcM6WwnPWiGXx+mcPXF4VBS+35vGfJs0BzYEUccAFYGXLzsCVJfnbBmKOjs8wn+rSba3Sdyn7u13jFi+kLu0/HSuk85ONhLX2MTHgWq/OlH09jZUpT6I79ENppe0OHTf3UT1PYC7RHbYT+FJ1h9vRfUwhB6R0S2ET6ajaH8AlpzJJ/UnHk9NtJMcBn3zk/QNcWuE0aQ7Yc8A374g/xrjyYWnHEckJ/WvlADWy6SMmWw93133/SFw+AS11u+t7mPp+W8LiUt9galvwl8Qlr7SFObVvTPes3ReWZDPr/SVxeWdR44NvxjLmh6W3k+KA70BLLvhP4spnq901JSey+deXoOUD9S9weXcavORCtpJvQcsH6m/gyldWA1hywv+/Cfj7dmdmZAdw5RMigOljrX2bJUf88Sudbxwiavxxs9G7yC7gmp9cVApLLmROwIS5j3o7PgeSdM6PX6E+ozmgOaA5oDmgOaA5oDlg5cD/A+qplueDZ5IZAAAAAElFTkSuQmCC;aspect=fixed;" vertex="1" parent="afDIatIIUUOGtq9c_muA-4">
          <mxGeometry x="975" y="58.129999999999995" width="51" height="27.73" as="geometry" />
        </mxCell>
        <mxCell id="9_x6dCNxKeWLmISFSyYR-41" style="rounded=0;orthogonalLoop=1;jettySize=auto;html=1;fillColor=#008a00;strokeColor=#005700;exitX=0.5;exitY=1;exitDx=0;exitDy=0;" edge="1" parent="afDIatIIUUOGtq9c_muA-4" source="9_x6dCNxKeWLmISFSyYR-47">
          <mxGeometry relative="1" as="geometry">
            <mxPoint x="450" y="-10" as="sourcePoint" />
            <mxPoint x="1000" y="60" as="targetPoint" />
          </mxGeometry>
        </mxCell>
        <mxCell id="9_x6dCNxKeWLmISFSyYR-51" style="rounded=0;orthogonalLoop=1;jettySize=auto;html=1;entryX=0.5;entryY=0;entryDx=0;entryDy=0;fillColor=#008a00;strokeColor=#005700;exitX=0.5;exitY=1;exitDx=0;exitDy=0;" edge="1" parent="afDIatIIUUOGtq9c_muA-4" source="9_x6dCNxKeWLmISFSyYR-47" target="afDIatIIUUOGtq9c_muA-34">
          <mxGeometry relative="1" as="geometry" />
        </mxCell>
        <mxCell id="9_x6dCNxKeWLmISFSyYR-47" value="" style="ellipse;whiteSpace=wrap;html=1;aspect=fixed;" vertex="1" parent="afDIatIIUUOGtq9c_muA-4">
          <mxGeometry x="450" y="-6" width="10" height="10" as="geometry" />
        </mxCell>
        <mxCell id="9_x6dCNxKeWLmISFSyYR-46" style="rounded=0;orthogonalLoop=1;jettySize=auto;html=1;fillColor=#008a00;strokeColor=#005700;exitX=0.5;exitY=1;exitDx=0;exitDy=0;entryX=0.5;entryY=0;entryDx=0;entryDy=0;" edge="1" parent="afDIatIIUUOGtq9c_muA-4" source="9_x6dCNxKeWLmISFSyYR-47" target="JfFE76ZaCVtJRvMq8Mvy-3">
          <mxGeometry relative="1" as="geometry" />
        </mxCell>
        <mxCell id="9_x6dCNxKeWLmISFSyYR-27" value="" style="rounded=0;orthogonalLoop=1;jettySize=auto;html=1;strokeColor=#005700;strokeWidth=1;fillColor=#008a00;exitX=0.5;exitY=1;exitDx=0;exitDy=0;entryX=0.5;entryY=0;entryDx=0;entryDy=0;" edge="1" parent="afDIatIIUUOGtq9c_muA-4" source="9_x6dCNxKeWLmISFSyYR-47" target="afDIatIIUUOGtq9c_muA-36">
          <mxGeometry relative="1" as="geometry" />
        </mxCell>
        <mxCell id="afDIatIIUUOGtq9c_muA-41" value="" style="image;html=1;image=img/lib/clip_art/finance/Dollar_128x128.png" parent="1" vertex="1">
          <mxGeometry x="178" y="561" width="50" height="40" as="geometry" />
        </mxCell>
        <mxCell id="afDIatIIUUOGtq9c_muA-42" style="edgeStyle=orthogonalEdgeStyle;rounded=0;orthogonalLoop=1;jettySize=auto;html=1;entryX=0.5;entryY=0;entryDx=0;entryDy=0;strokeColor=#333333;strokeWidth=1;" parent="1" source="afDIatIIUUOGtq9c_muA-36" target="afDIatIIUUOGtq9c_muA-41" edge="1">
          <mxGeometry relative="1" as="geometry" />
        </mxCell>
        <mxCell id="9_x6dCNxKeWLmISFSyYR-2" style="edgeStyle=orthogonalEdgeStyle;rounded=0;orthogonalLoop=1;jettySize=auto;html=1;entryX=0.5;entryY=0;entryDx=0;entryDy=0;strokeColor=#333333;strokeWidth=1;" edge="1" parent="1" source="afDIatIIUUOGtq9c_muA-11" target="l7w2UNLdyFyKtGdHqsaT-12">
          <mxGeometry relative="1" as="geometry" />
        </mxCell>
        <mxCell id="9_x6dCNxKeWLmISFSyYR-42" style="edgeStyle=orthogonalEdgeStyle;rounded=0;orthogonalLoop=1;jettySize=auto;html=1;entryX=1;entryY=0.5;entryDx=0;entryDy=0;" edge="1" parent="1" source="9_x6dCNxKeWLmISFSyYR-3" target="l7w2UNLdyFyKtGdHqsaT-3">
          <mxGeometry relative="1" as="geometry">
            <Array as="points">
              <mxPoint x="881" y="650" />
              <mxPoint x="1210" y="650" />
              <mxPoint x="1210" y="40" />
            </Array>
          </mxGeometry>
        </mxCell>
        <mxCell id="9_x6dCNxKeWLmISFSyYR-3" value="" style="dashed=0;outlineConnect=0;html=1;align=center;labelPosition=center;verticalLabelPosition=bottom;verticalAlign=top;shape=mxgraph.weblogos.apple;fillColor=#1B1C1C;strokeColor=none" vertex="1" parent="1">
          <mxGeometry x="859.8" y="560" width="42.4" height="50" as="geometry" />
        </mxCell>
        <mxCell id="afDIatIIUUOGtq9c_muA-35" style="edgeStyle=orthogonalEdgeStyle;rounded=0;orthogonalLoop=1;jettySize=auto;html=1;strokeColor=#333333;strokeWidth=1;" parent="1" source="afDIatIIUUOGtq9c_muA-34" target="9_x6dCNxKeWLmISFSyYR-3" edge="1">
          <mxGeometry relative="1" as="geometry">
            <mxPoint x="740" y="553" as="targetPoint" />
          </mxGeometry>
        </mxCell>
        <mxCell id="9_x6dCNxKeWLmISFSyYR-4" value="" style="sketch=0;html=1;aspect=fixed;strokeColor=none;shadow=0;fillColor=#3B8DF1;verticalAlign=top;labelPosition=center;verticalLabelPosition=bottom;shape=mxgraph.gcp2.maps_api" vertex="1" parent="1">
          <mxGeometry x="661.8" y="561" width="26.84" height="44" as="geometry" />
        </mxCell>
        <mxCell id="afDIatIIUUOGtq9c_muA-28" style="edgeStyle=orthogonalEdgeStyle;rounded=0;orthogonalLoop=1;jettySize=auto;html=1;exitX=0.5;exitY=1;exitDx=0;exitDy=0;entryX=0.508;entryY=-0.02;entryDx=0;entryDy=0;entryPerimeter=0;strokeColor=#333333;strokeWidth=1;" parent="1" source="JfFE76ZaCVtJRvMq8Mvy-3" target="9_x6dCNxKeWLmISFSyYR-4" edge="1">
          <mxGeometry relative="1" as="geometry">
            <mxPoint x="585" y="553" as="targetPoint" />
          </mxGeometry>
        </mxCell>
        <mxCell id="9_x6dCNxKeWLmISFSyYR-5" value="" style="image;html=1;image=img/lib/clip_art/computers/Database_128x128.png" vertex="1" parent="1">
          <mxGeometry x="1046" y="561" width="50" height="54" as="geometry" />
        </mxCell>
        <mxCell id="9_x6dCNxKeWLmISFSyYR-9" style="edgeStyle=orthogonalEdgeStyle;rounded=0;orthogonalLoop=1;jettySize=auto;html=1;entryX=0.5;entryY=0;entryDx=0;entryDy=0;strokeColor=#333333;strokeWidth=1;" edge="1" parent="1" source="9_x6dCNxKeWLmISFSyYR-6" target="9_x6dCNxKeWLmISFSyYR-5">
          <mxGeometry relative="1" as="geometry" />
        </mxCell>
        <mxCell id="9_x6dCNxKeWLmISFSyYR-28" style="edgeStyle=orthogonalEdgeStyle;rounded=0;orthogonalLoop=1;jettySize=auto;html=1;entryX=0.5;entryY=0;entryDx=0;entryDy=0;strokeColor=#333333;strokeWidth=1;" edge="1" parent="1" source="l7w2UNLdyFyKtGdHqsaT-2" target="l7w2UNLdyFyKtGdHqsaT-4">
          <mxGeometry relative="1" as="geometry" />
        </mxCell>
        <mxCell id="9_x6dCNxKeWLmISFSyYR-29" style="edgeStyle=orthogonalEdgeStyle;rounded=0;orthogonalLoop=1;jettySize=auto;html=1;entryX=0.5;entryY=0;entryDx=0;entryDy=0;strokeColor=#333333;strokeWidth=1;" edge="1" parent="1" source="l7w2UNLdyFyKtGdHqsaT-2" target="JfFE76ZaCVtJRvMq8Mvy-2">
          <mxGeometry relative="1" as="geometry" />
        </mxCell>
        <mxCell id="9_x6dCNxKeWLmISFSyYR-30" style="edgeStyle=orthogonalEdgeStyle;rounded=0;orthogonalLoop=1;jettySize=auto;html=1;entryX=0.5;entryY=0;entryDx=0;entryDy=0;strokeColor=#333333;strokeWidth=1;" edge="1" parent="1" source="l7w2UNLdyFyKtGdHqsaT-2" target="l7w2UNLdyFyKtGdHqsaT-6">
          <mxGeometry relative="1" as="geometry" />
        </mxCell>
        <mxCell id="9_x6dCNxKeWLmISFSyYR-31" style="edgeStyle=orthogonalEdgeStyle;rounded=0;orthogonalLoop=1;jettySize=auto;html=1;entryX=0.5;entryY=0;entryDx=0;entryDy=0;strokeColor=#333333;strokeWidth=1;" edge="1" parent="1" source="l7w2UNLdyFyKtGdHqsaT-2" target="afDIatIIUUOGtq9c_muA-32">
          <mxGeometry relative="1" as="geometry" />
        </mxCell>
        <mxCell id="9_x6dCNxKeWLmISFSyYR-32" style="edgeStyle=orthogonalEdgeStyle;rounded=0;orthogonalLoop=1;jettySize=auto;html=1;strokeColor=#333333;strokeWidth=1;" edge="1" parent="1" source="l7w2UNLdyFyKtGdHqsaT-2" target="afDIatIIUUOGtq9c_muA-37">
          <mxGeometry relative="1" as="geometry" />
        </mxCell>
        <mxCell id="9_x6dCNxKeWLmISFSyYR-34" style="rounded=0;orthogonalLoop=1;jettySize=auto;html=1;entryX=0.5;entryY=0;entryDx=0;entryDy=0;strokeColor=#A50040;strokeWidth=1;fillColor=#d80073;" edge="1" parent="1" source="afDIatIIUUOGtq9c_muA-37" target="9_x6dCNxKeWLmISFSyYR-6">
          <mxGeometry relative="1" as="geometry" />
        </mxCell>
        <mxCell id="9_x6dCNxKeWLmISFSyYR-36" style="rounded=0;orthogonalLoop=1;jettySize=auto;html=1;exitX=0.5;exitY=1;exitDx=0;exitDy=0;entryX=0.5;entryY=0;entryDx=0;entryDy=0;strokeColor=#A50040;strokeWidth=1;fillColor=#d80073;" edge="1" parent="1" source="afDIatIIUUOGtq9c_muA-37" target="afDIatIIUUOGtq9c_muA-11">
          <mxGeometry relative="1" as="geometry" />
        </mxCell>
        <mxCell id="9_x6dCNxKeWLmISFSyYR-38" style="rounded=0;orthogonalLoop=1;jettySize=auto;html=1;fillColor=#d80073;strokeColor=#A50040;exitX=0.5;exitY=1;exitDx=0;exitDy=0;entryX=0.5;entryY=0;entryDx=0;entryDy=0;" edge="1" parent="1" source="afDIatIIUUOGtq9c_muA-37" target="afDIatIIUUOGtq9c_muA-5">
          <mxGeometry relative="1" as="geometry" />
        </mxCell>
        <mxCell id="9_x6dCNxKeWLmISFSyYR-52" style="edgeStyle=orthogonalEdgeStyle;rounded=0;orthogonalLoop=1;jettySize=auto;html=1;entryX=0.5;entryY=0;entryDx=0;entryDy=0;" edge="1" parent="1" source="l7w2UNLdyFyKtGdHqsaT-4" target="9_x6dCNxKeWLmISFSyYR-47">
          <mxGeometry relative="1" as="geometry">
            <Array as="points">
              <mxPoint x="251" y="350" />
              <mxPoint x="525" y="350" />
            </Array>
          </mxGeometry>
        </mxCell>
        <mxCell id="9_x6dCNxKeWLmISFSyYR-53" style="edgeStyle=orthogonalEdgeStyle;rounded=0;orthogonalLoop=1;jettySize=auto;html=1;entryX=0.5;entryY=0;entryDx=0;entryDy=0;" edge="1" parent="1" source="JfFE76ZaCVtJRvMq8Mvy-2" target="9_x6dCNxKeWLmISFSyYR-47">
          <mxGeometry relative="1" as="geometry">
            <mxPoint x="510" y="360" as="targetPoint" />
            <Array as="points">
              <mxPoint x="430" y="350" />
              <mxPoint x="525" y="350" />
            </Array>
          </mxGeometry>
        </mxCell>
        <mxCell id="9_x6dCNxKeWLmISFSyYR-54" style="edgeStyle=orthogonalEdgeStyle;rounded=0;orthogonalLoop=1;jettySize=auto;html=1;entryX=0.5;entryY=0;entryDx=0;entryDy=0;" edge="1" parent="1" source="l7w2UNLdyFyKtGdHqsaT-6" target="9_x6dCNxKeWLmISFSyYR-47">
          <mxGeometry relative="1" as="geometry">
            <mxPoint x="530" y="360" as="targetPoint" />
            <Array as="points">
              <mxPoint x="613" y="350" />
              <mxPoint x="525" y="350" />
            </Array>
          </mxGeometry>
        </mxCell>
        <mxCell id="9_x6dCNxKeWLmISFSyYR-55" style="edgeStyle=orthogonalEdgeStyle;rounded=0;orthogonalLoop=1;jettySize=auto;html=1;entryX=0.5;entryY=0;entryDx=0;entryDy=0;" edge="1" parent="1" source="afDIatIIUUOGtq9c_muA-32" target="9_x6dCNxKeWLmISFSyYR-47">
          <mxGeometry relative="1" as="geometry">
            <mxPoint x="529.7674418604652" y="360" as="targetPoint" />
            <Array as="points">
              <mxPoint x="795" y="350" />
              <mxPoint x="525" y="350" />
            </Array>
          </mxGeometry>
        </mxCell>
      </root>
    </mxGraphModel>
  </diagram>
</mxfile>
